<svg viewBox="0 0 1112.2000732421875 400" xmlns="http://www.w3.org/2000/svg"><g><g><g><g><g><line x1="40" y1="378" x2="35" y2="378" style="visibility: inherit;" fill="rgb(0, 0, 0)" stroke="rgb(204, 204, 204)" stroke-width="1px"></line><line x1="40" y1="343.6363636363636" x2="35" y2="343.6363636363636" style="visibility: inherit;" fill="rgb(0, 0, 0)" stroke="rgb(204, 204, 204)" stroke-width="1px"></line><line x1="40" y1="309.27272727272725" x2="35" y2="309.27272727272725" style="visibility: inherit;" fill="rgb(0, 0, 0)" stroke="rgb(204, 204, 204)" stroke-width="1px"></line><line x1="40" y1="274.90909090909093" x2="35" y2="274.90909090909093" style="visibility: inherit;" fill="rgb(0, 0, 0)" stroke="rgb(204, 204, 204)" stroke-width="1px"></line><line x1="40" y1="240.54545454545453" x2="35" y2="240.54545454545453" style="visibility: inherit;" fill="rgb(0, 0, 0)" stroke="rgb(204, 204, 204)" stroke-width="1px"></line><line x1="40" y1="206.18181818181816" x2="35" y2="206.18181818181816" style="visibility: inherit;" fill="rgb(0, 0, 0)" stroke="rgb(204, 204, 204)" stroke-width="1px"></line><line x1="40" y1="171.81818181818184" x2="35" y2="171.81818181818184" style="visibility: inherit;" fill="rgb(0, 0, 0)" stroke="rgb(204, 204, 204)" stroke-width="1px"></line><line x1="40" y1="137.4545454545455" x2="35" y2="137.4545454545455" style="visibility: inherit;" fill="rgb(0, 0, 0)" stroke="rgb(204, 204, 204)" stroke-width="1px"></line><line x1="40" y1="103.09090909090908" x2="35" y2="103.09090909090908" style="visibility: inherit;" fill="rgb(0, 0, 0)" stroke="rgb(204, 204, 204)" stroke-width="1px"></line><line x1="40" y1="68.72727272727275" x2="35" y2="68.72727272727275" style="visibility: inherit;" fill="rgb(0, 0, 0)" stroke="rgb(204, 204, 204)" stroke-width="1px"></line><line x1="40" y1="34.363636363636374" x2="35" y2="34.363636363636374" style="visibility: inherit;" fill="rgb(0, 0, 0)" stroke="rgb(204, 204, 204)" stroke-width="1px"></line><line x1="40" y1="0" x2="35" y2="0" style="visibility: inherit;" fill="rgb(0, 0, 0)" stroke="rgb(204, 204, 204)" stroke-width="1px"></line></g><g transform="translate(30, 0)"><text x="0" y="378" dx="0em" dy="0.3em" style="text-anchor: end; visibility: hidden; font-family: Roboto, sans-serif; font-size: 12px; font-weight: 200;" fill="rgb(50, 49, 63)" stroke="none" stroke-width="1px">0</text><text x="0" y="343.6363636363636" dx="0em" dy="0.3em" style="text-anchor: end; visibility: inherit; font-family: Roboto, sans-serif; font-size: 12px; font-weight: 200;" fill="rgb(50, 49, 63)" stroke="none" stroke-width="1px">0.1</text><text x="0" y="309.27272727272725" dx="0em" dy="0.3em" style="text-anchor: end; visibility: inherit; font-family: Roboto, sans-serif; font-size: 12px; font-weight: 200;" fill="rgb(50, 49, 63)" stroke="none" stroke-width="1px">0.2</text><text x="0" y="274.90909090909093" dx="0em" dy="0.3em" style="text-anchor: end; visibility: inherit; font-family: Roboto, sans-serif; font-size: 12px; font-weight: 200;" fill="rgb(50, 49, 63)" stroke="none" stroke-width="1px">0.3</text><text x="0" y="240.54545454545453" dx="0em" dy="0.3em" style="text-anchor: end; visibility: inherit; font-family: Roboto, sans-serif; font-size: 12px; font-weight: 200;" fill="rgb(50, 49, 63)" stroke="none" stroke-width="1px">0.4</text><text x="0" y="206.18181818181816" dx="0em" dy="0.3em" style="text-anchor: end; visibility: inherit; font-family: Roboto, sans-serif; font-size: 12px; font-weight: 200;" fill="rgb(50, 49, 63)" stroke="none" stroke-width="1px">0.5</text><text x="0" y="171.81818181818184" dx="0em" dy="0.3em" style="text-anchor: end; visibility: inherit; font-family: Roboto, sans-serif; font-size: 12px; font-weight: 200;" fill="rgb(50, 49, 63)" stroke="none" stroke-width="1px">0.6</text><text x="0" y="137.4545454545455" dx="0em" dy="0.3em" style="text-anchor: end; visibility: inherit; font-family: Roboto, sans-serif; font-size: 12px; font-weight: 200;" fill="rgb(50, 49, 63)" stroke="none" stroke-width="1px">0.7</text><text x="0" y="103.09090909090908" dx="0em" dy="0.3em" style="text-anchor: end; visibility: inherit; font-family: Roboto, sans-serif; font-size: 12px; font-weight: 200;" fill="rgb(50, 49, 63)" stroke="none" stroke-width="1px">0.8</text><text x="0" y="68.72727272727275" dx="0em" dy="0.3em" style="text-anchor: end; visibility: inherit; font-family: Roboto, sans-serif; font-size: 12px; font-weight: 200;" fill="rgb(50, 49, 63)" stroke="none" stroke-width="1px">0.9</text><text x="0" y="34.363636363636374" dx="0em" dy="0.3em" style="text-anchor: end; visibility: inherit; font-family: Roboto, sans-serif; font-size: 12px; font-weight: 200;" fill="rgb(50, 49, 63)" stroke="none" stroke-width="1px">1</text><text x="0" y="0" dx="0em" dy="0.3em" style="text-anchor: end; visibility: hidden; font-family: Roboto, sans-serif; font-size: 12px; font-weight: 200;" fill="rgb(50, 49, 63)" stroke="none" stroke-width="1px">1.1</text></g><line x1="40" y1="0" x2="40" y2="378" fill="rgb(0, 0, 0)" stroke="rgb(204, 204, 204)" stroke-width="1px"></line></g></g><g transform="translate(40, 0)" clip-path="url(#clip_0)"><clipPath id="clip_0"><rect width="1072" height="378"></rect></clipPath><g><g><g><line x1="0" y1="0" x2="0" y2="378" fill="rgb(0, 0, 0)" stroke="rgb(60, 60, 60)" stroke-width="1px" opacity="0.25"></line><line x1="76.58571428571429" y1="0" x2="76.58571428571429" y2="378" fill="rgb(0, 0, 0)" stroke="rgb(60, 60, 60)" stroke-width="1px" opacity="0.25"></line><line x1="153.17142857142858" y1="0" x2="153.17142857142858" y2="378" fill="rgb(0, 0, 0)" stroke="rgb(60, 60, 60)" stroke-width="1px" opacity="0.25"></line><line x1="229.75714285714287" y1="0" x2="229.75714285714287" y2="378" fill="rgb(0, 0, 0)" stroke="rgb(60, 60, 60)" stroke-width="1px" opacity="0.25"></line><line x1="306.34285714285716" y1="0" x2="306.34285714285716" y2="378" fill="rgb(0, 0, 0)" stroke="rgb(60, 60, 60)" stroke-width="1px" opacity="0.25"></line><line x1="382.92857142857144" y1="0" x2="382.92857142857144" y2="378" fill="rgb(0, 0, 0)" stroke="rgb(60, 60, 60)" stroke-width="1px" opacity="0.25"></line><line x1="459.51428571428573" y1="0" x2="459.51428571428573" y2="378" fill="rgb(0, 0, 0)" stroke="rgb(60, 60, 60)" stroke-width="1px" opacity="0.25"></line><line x1="536.1" y1="0" x2="536.1" y2="378" fill="rgb(0, 0, 0)" stroke="rgb(60, 60, 60)" stroke-width="1px" opacity="0.25"></line><line x1="612.6857142857143" y1="0" x2="612.6857142857143" y2="378" fill="rgb(0, 0, 0)" stroke="rgb(60, 60, 60)" stroke-width="1px" opacity="0.25"></line><line x1="689.2714285714286" y1="0" x2="689.2714285714286" y2="378" fill="rgb(0, 0, 0)" stroke="rgb(60, 60, 60)" stroke-width="1px" opacity="0.25"></line><line x1="765.8571428571429" y1="0" x2="765.8571428571429" y2="378" fill="rgb(0, 0, 0)" stroke="rgb(60, 60, 60)" stroke-width="1px" opacity="0.25"></line><line x1="842.4428571428572" y1="0" x2="842.4428571428572" y2="378" fill="rgb(0, 0, 0)" stroke="rgb(60, 60, 60)" stroke-width="1px" opacity="0.25"></line><line x1="919.0285714285715" y1="0" x2="919.0285714285715" y2="378" fill="rgb(0, 0, 0)" stroke="rgb(60, 60, 60)" stroke-width="1px" opacity="0.25"></line><line x1="995.6142857142858" y1="0" x2="995.6142857142858" y2="378" fill="rgb(0, 0, 0)" stroke="rgb(60, 60, 60)" stroke-width="1px" opacity="0.25"></line><line x1="1072.2" y1="0" x2="1072.2" y2="378" fill="rgb(0, 0, 0)" stroke="rgb(60, 60, 60)" stroke-width="1px" opacity="0.25"></line></g><g><line x1="0" y1="378" x2="1072.2" y2="378" fill="rgb(0, 0, 0)" stroke="rgb(60, 60, 60)" stroke-width="1px" opacity="0.25"></line><line x1="0" y1="343.6363636363636" x2="1072.2" y2="343.6363636363636" fill="rgb(0, 0, 0)" stroke="rgb(60, 60, 60)" stroke-width="1px" opacity="0.25"></line><line x1="0" y1="309.27272727272725" x2="1072.2" y2="309.27272727272725" fill="rgb(0, 0, 0)" stroke="rgb(60, 60, 60)" stroke-width="1px" opacity="0.25"></line><line x1="0" y1="274.90909090909093" x2="1072.2" y2="274.90909090909093" fill="rgb(0, 0, 0)" stroke="rgb(60, 60, 60)" stroke-width="1px" opacity="0.25"></line><line x1="0" y1="240.54545454545453" x2="1072.2" y2="240.54545454545453" fill="rgb(0, 0, 0)" stroke="rgb(60, 60, 60)" stroke-width="1px" opacity="0.25"></line><line x1="0" y1="206.18181818181816" x2="1072.2" y2="206.18181818181816" fill="rgb(0, 0, 0)" stroke="rgb(60, 60, 60)" stroke-width="1px" opacity="0.25"></line><line x1="0" y1="171.81818181818184" x2="1072.2" y2="171.81818181818184" fill="rgb(0, 0, 0)" stroke="rgb(60, 60, 60)" stroke-width="1px" opacity="0.25"></line><line x1="0" y1="137.4545454545455" x2="1072.2" y2="137.4545454545455" fill="rgb(0, 0, 0)" stroke="rgb(60, 60, 60)" stroke-width="1px" opacity="0.25"></line><line x1="0" y1="103.09090909090908" x2="1072.2" y2="103.09090909090908" fill="rgb(0, 0, 0)" stroke="rgb(60, 60, 60)" stroke-width="1px" opacity="0.25"></line><line x1="0" y1="68.72727272727275" x2="1072.2" y2="68.72727272727275" fill="rgb(0, 0, 0)" stroke="rgb(60, 60, 60)" stroke-width="1px" opacity="0.25"></line><line x1="0" y1="34.363636363636374" x2="1072.2" y2="34.363636363636374" fill="rgb(0, 0, 0)" stroke="rgb(60, 60, 60)" stroke-width="1px" opacity="0.25"></line><line x1="0" y1="0" x2="1072.2" y2="0" fill="rgb(0, 0, 0)" stroke="rgb(60, 60, 60)" stroke-width="1px" opacity="0.25"></line></g></g></g><g><g><line x1="0" y1="378" x2="1072.2" y2="378" fill="rgb(0, 0, 0)" stroke="rgb(153, 153, 153)" stroke-width="1.5px"></line></g></g><g><g><line x1="76.58571428571429" y1="0" x2="76.58571428571429" y2="378" fill="rgb(0, 0, 0)" stroke="rgb(153, 153, 153)" stroke-width="1.5px"></line></g></g><g><g><g><g><g><path stroke="rgb(0, 119, 187)" stroke-width="2px" d="M78.11742857142858,329.89090888608587L79.64914285714286,336.76363643191075L81.18085714285715,346.58181815255773L82.71257142857142,328.51636405966497L84.24428571428571,320.35777188868116L85.77600000000001,319.9636363603852L87.3077142857143,321.50293547811043L88.83942857142857,322.26353033628055L90.37114285714286,307.1476966008303L91.90285714285714,316.8105563900846L93.43457142857143,314.7588222359168L94.96628571428572,299.9848932673881L96.498,289.1638544125894L98.02971428571429,282.03603556507073L99.56142857142858,269.88128423671463L101.09314285714287,284.4226814674072L102.62485714285714,286.5386312429779L104.15657142857143,266.9783327332555L105.68828571428573,250.32550049329018L107.22000000000001,267.771855950468L108.75171428571429,262.7495629681706L110.28342857142857,261.95659886237644L111.81514285714286,259.84193656685335L113.34685714285715,238.1664217417431L114.87857142857143,230.76503088034343L116.41028571428572,239.0916072926312L117.94200000000001,236.38216951554793L119.4737142857143,235.02745064214645L121.00542857142857,229.19554554026098L122.53714285714285,224.56140769568836L124.06885714285714,215.37161293447392L125.60057142857144,219.3676266982179L127.13228571428573,217.92926809921929L128.664,194.87372086089388L130.1957142857143,207.40049536068526L131.7274285714286,208.5093369508638L133.25914285714288,205.62739738672406L134.79085714285716,181.850064787518L136.32257142857142,183.70685016593407L137.8542857142857,186.35342303473712L139.38600000000002,189.39488964873354L140.91771428571428,187.4792625965381L142.4494285714286,179.6487181108944L143.98114285714286,174.01526568847714L145.51285714285714,167.76217911807677L147.04457142857143,168.07199619206867L148.57628571428572,166.5087245494687L150.10800000000003,170.88163950811824L151.6397142857143,171.34990656668535L153.17142857142858,159.55676859763557L154.70314285714286,153.6601996131107L156.23485714285715,166.17555721953522L157.7665714285714,167.27868524279785L159.29828571428573,171.26661985478285L160.83,180.13330787915908L162.3617142857143,162.23028907427653L163.8934285714286,163.58787099057258L165.42514285714284,167.7030223079125L166.95685714285716,156.01514628865323L170.0202857142857,150.1712082790236L171.55200000000002,150.68559963340067L173.08371428571428,152.66098573134687L174.6154285714286,157.08503913951182L176.14714285714285,148.98797452485692L177.67885714285714,141.50308185833762L179.21057142857146,137.76063552507793L180.7422857142857,149.63486403637737L182.27400000000003,155.57197829202707L183.8057142857143,155.10417506066008L185.33742857142857,154.87027344497653L186.86914285714286,141.00786071804382L188.40085714285715,137.51302495493104L189.93257142857144,134.04741665261702L191.46428571428572,142.6237038201974L192.996,138.3209465060078L194.5277142857143,132.73319724855946L196.05942857142858,126.50296226064336L197.59114285714284,131.97875590582674L199.12285714285716,134.71665272841847L200.65457142857144,139.52196149890622L202.18628571428573,133.33370474500862L203.71800000000002,143.98503828715087L205.24971428571428,142.43797409867648L206.7814285714286,126.20081014691405L208.31314285714285,109.49131703189141L209.84485714285714,123.47293329145079L211.37657142857145,118.43646992289715L212.9082857142857,124.50913913660006L214.44000000000003,124.1091133842596L215.97171428571428,132.50001164723082L217.50342857142857,133.25910041952451L219.0351428571429,130.20227420531782L220.56685714285715,123.51932055942663L222.09857142857146,130.4869350552184L223.63028571428572,128.81619152316475L225.162,121.10809903875412L226.6937142857143,125.84495369452854L228.22542857142858,129.93157144317342L229.75714285714287,128.53850971714226L231.28885714285715,117.53288753538929L232.82057142857144,120.62098758365426L234.35228571428573,122.1650376077867L235.88400000000001,119.50070226066107L237.41571428571427,114.73217422790636L238.9474285714286,108.91153961117536L240.47914285714288,114.59213344195135L242.01085714285713,120.86879071653124L243.54257142857145,113.6980280350838L245.0742857142857,127.29446897264293L246.60600000000002,120.34723776349321L248.13771428571428,128.9008936572517L249.66942857142857,121.1504501057976L251.20114285714288,127.58431964880796L252.73285714285714,123.92852346076761L254.26457142857146,118.66426500755556L255.79628571428572,122.90485649933329L257.328,119.87061170643435L258.8597142857143,125.22621002836864L261.92314285714286,117.59492811176013L263.4548571428572,110.34291655310228L264.98657142857144,108.4350909533693L266.51828571428575,112.63572893345237L268.05,118.17240828268575L269.5817142857143,117.5043875981106L271.1134285714286,112.01582647587345L272.64514285714284,107.55336573515895L274.17685714285716,107.04031554439764L275.7085714285714,117.09288176775439L277.24028571428573,116.96462434064489L278.77200000000005,108.30958448794873L280.3037142857143,107.41842492079256L281.83542857142857,108.69103555797206L283.3671428571429,111.04552105615781L284.8988571428572,117.37730434403849L286.4305714285714,106.79774431004958L287.9622857142857,115.25341597098436L289.494,105.7358001235225L291.0257142857143,104.41335255898348L292.5574285714286,102.03394859711804L294.08914285714286,105.99879739613482L295.6208571428571,107.98122179564322L297.15257142857143,107.25424357463979L298.68428571428575,96.5816631454007L300.21600000000007,101.55446424951852L301.74771428571427,102.32268462198148L303.2794285714286,106.14316540856657L304.8111428571429,108.05340580185907L306.34285714285716,112.44488635769726L307.87457142857147,116.35880681521228L309.40628571428573,111.44303608442429L310.938,108.9851507190303L312.4697142857143,104.31984767714145L314.0014285714286,108.85992711574248L315.5331428571428,102.53905569590155L317.06485714285714,106.25135094552658L318.59657142857145,104.67112796998553L320.12828571428577,107.31738708256857L321.66,103.48596585891056L323.1917142857143,106.72480602703111L324.7234285714286,108.34422611109136L326.25514285714286,100.56302501398007L327.7868571428572,101.82696500421225L329.3185714285715,100.74075481973239L330.8502857142857,115.66128158501766L332.382,111.094273469327L333.9137142857143,112.24714001183526L335.4454285714286,100.79630178475604L336.97714285714284,101.94360338960027L338.50885714285715,92.20816287328498L340.0405714285714,89.05862279472328L341.5722857142857,99.51113449493744L343.10400000000004,109.89193088383236L344.6357142857143,99.6186972207546L346.16742857142856,101.35480110759953L347.6991428571429,110.81376419016341L349.2308571428572,113.82506555184938L350.76257142857145,99.86707413400545L353.826,96.3244490254371L355.3577142857143,99.70767700994074L356.8894285714286,97.9629306430007L358.4211428571429,97.09055745953069L359.9528571428571,96.65437086779563L361.4845714285714,101.59081811071597L363.01628571428574,97.1863210137924L364.54800000000006,98.42043282452249L366.07971428571426,104.19203950983704L367.6114285714286,108.79602303209026L369.1431428571429,112.81619497281287L370.67485714285715,109.67173016322458L372.20657142857146,99.5085968604507L373.7382857142857,103.01793110704354L375.27,89.3089663728147L376.8017142857143,94.4817555040336L378.3334285714286,107.37724138838044L379.86514285714287,118.97952486934173L381.39685714285713,107.5988545727012L382.92857142857144,98.47215906518902L384.46028571428576,97.34517167062484L385.992,100.21803833253466L387.52371428571433,87.90901998556029L389.0554285714286,97.21814266959832L390.58714285714285,101.87270401161732L392.11885714285717,83.58180204515206L393.6505714285715,86.46363280141449L395.1822857142857,89.6227283591416L396.714,96.35681667679303L398.2457142857143,96.28750047642684L399.7774285714286,104.84375351538516L401.3091428571429,98.81278871612696L402.84085714285715,100.95184685528571L404.37257142857146,103.739556104461L405.9042857142857,110.28796150899821L407.43600000000004,99.81671253333752L408.96771428571435,98.01744840469907L410.49942857142855,93.68145598118795L412.03114285714287,94.94982012862431L413.5628571428572,95.5840022023425L415.09457142857144,92.46473288000966L416.6262857142857,102.93236971717658L418.158,99.57527699661863L419.6897142857143,99.61491081593559L421.2214285714286,85.8892760476648L422.7531428571429,97.9264611214082L424.28485714285716,97.07232269873442L425.8165714285714,100.08161384658942L427.34828571428574,87.84080774258767L428.88000000000005,93.74767618892007L430.4117142857143,93.2647500528944L431.94342857142857,93.02328698488161L433.4751428571429,110.0843674879963L435.00685714285714,113.46036720076587L436.53857142857146,109.99381627720109L438.0702857142858,103.10600027663088L439.602,97.94391209674983L441.1337142857143,98.79922836600115L442.6654285714286,95.79052614143495L445.7288571428571,99.44071556793966L447.26057142857144,82.36580782331328L448.79228571428575,82.4192650901415L450.324,85.88236432390919L451.8557142857143,92.76845447958085L453.3874285714286,89.33876859787125L454.91914285714284,87.62392565701641L456.45085714285716,85.04832400699303L457.9825714285715,87.19689378233493L459.51428571428573,91.70753902919779L461.046,97.39922201182114L462.5777142857143,91.65415236399133L464.1094285714286,81.90889682169266L465.6411428571429,99.37263186761403L467.1728571428572,84.04995639390806L468.70457142857146,79.82497901624697L470.2362857142857,88.02158164615379L471.76800000000003,88.68352260191534L473.29971428571434,87.29630265903845L474.83142857142855,74.57542118926669L476.36314285714286,81.9604423734718L477.8948571428572,92.5256736839581L479.42657142857144,87.49919802046391L480.95828571428575,79.83141964992895L482.49,86.30662178339884L484.02171428571427,84.38967207018428L485.5534285714286,83.43119721357695L487.0851428571429,98.41560188396025L488.6168571428572,104.18962403955588L490.1485714285714,89.89481283907088L491.68028571428573,94.77467873716171L493.21200000000005,80.03278940792427L494.7437142857143,79.534575702851L496.27542857142856,81.00364902991033L497.8071428571429,85.1745562937936L499.33885714285714,92.41455046452306L500.87057142857145,90.88000701109995L502.40228571428577,95.26727582317625L503.93399999999997,90.58817926966891L505.4657142857143,91.68500159326882L506.9974285714286,81.92432143633143L508.5291428571429,89.071252856196L510.0608571428572,85.77198760658284L511.59257142857143,77.24963426339247L513.1242857142857,71.27026717103965L514.656,90.6169566830956L516.1877142857143,93.41757047957815L517.7194285714286,89.66332659786984L519.2511428571429,82.63166411822789L520.7828571428572,89.42492419714425L522.3145714285714,85.94882327705699L523.8462857142857,85.92895299660928L525.378,84.20083767678948L526.9097142857144,83.3367800168796L528.4414285714287,84.62293136652056L529.9731428571429,80.11146650255323L531.5048571428572,81.29209442976143L533.0365714285715,81.88240839336555L534.5682857142857,71.86847405643023L537.6317142857143,73.73423784750806L539.1634285714287,79.82166028183484L540.695142857143,81.14719131940225L542.2268571428572,83.52813701778193L543.7585714285714,74.40951854823439L545.2902857142857,71.56839973421826L546.822,82.17511182554347L548.3537142857143,75.45119637287279L549.8854285714286,84.11651014487073L551.4171428571428,90.16734721046572L552.9488571428572,93.19276574326317L554.4805714285715,84.39638369092452L556.0122857142858,81.71637284435113L557.5440000000001,80.37636742106447L559.0757142857143,74.55182417063328L560.6074285714286,83.66682404375105L562.1391428571428,81.3515930207644L563.6708571428571,87.0667084688166L565.2025714285714,88.20608601324672L566.7342857142858,81.90304382591628L568.2660000000001,78.75152273225109L569.7977142857144,92.63939404294372L571.3294285714286,96.14696933909812L572.8611428571428,77.28257434970058L574.3928571428571,76.44128799414325L575.9245714285714,88.0479163146979L577.4562857142857,85.26031933583378L578.988,85.58470102599767L580.5197142857144,84.02871169148365L582.0514285714286,79.81435666503475L583.5831428571429,93.17081100933555L585.1148571428572,92.97631746310216L586.6465714285715,87.72451991003592L588.1782857142857,78.22590041511904L589.71,78.63113120644839L591.2417142857142,71.96101564256763L592.7734285714286,75.49868882017269L594.3051428571429,77.26752540897523L595.8368571428572,83.30649448332603L597.3685714285715,81.1714282405519L598.9002857142858,88.69480625830626L600.4320000000001,90.73831508758752L601.9637142857142,93.47824968182405L603.4954285714285,91.41185661975047L605.0271428571428,80.06956876997629L606.5588571428572,89.8620567026144L608.0905714285715,81.01284899100422L609.6222857142858,83.46096585358292L611.154,79.5304837460844L612.6857142857143,91.31069437026439L614.2174285714286,97.20079968235441L615.7491428571429,103.58222293875303L617.2808571428571,101.61838378700281L618.8125714285715,90.32737289239027L620.3442857142858,89.83641822503357L621.876,89.59094089135525L623.4077142857143,89.46820222451603L624.9394285714286,101.43410438942982L626.4711428571429,100.54432451234116L629.5345714285716,96.66307421460499L631.0662857142856,87.84971810619139L632.598,81.72485987238863L634.1297142857143,76.94425057589132L635.6614285714286,86.58121742597596L637.1931428571429,79.37242935268497L638.7248571428572,77.48621549563548L640.2565714285715,71.38855778716116L641.7882857142857,76.93064007206542L643.32,86.57441217406301L644.8517142857143,82.8053870859204L646.3834285714286,79.20269436225314L647.9151428571429,77.40134800041952L649.4468571428572,78.21885499909867L650.9785714285714,70.03669735929678L652.5102857142857,67.66379871899179L654.042,66.47734939883931L655.5737142857143,81.34776683744997L657.1054285714287,75.03752387882604L658.637142857143,65.00967143996861L660.1688571428572,75.45937707806509L661.7005714285714,73.81150917872958L663.2322857142857,74.70575540865771L664.764,66.5619673844804L666.2957142857143,76.23552505032099L667.8274285714286,79.35412370364536L669.359142857143,74.04070231192372L670.8908571428572,81.6930829348003L672.4225714285715,83.80108282548098L673.9542857142857,79.70054223203341L675.486,89.67754343364298L677.0177142857143,77.48422175616493L678.5494285714286,76.5421116973754L680.0811428571428,79.50741702717258L681.6128571428571,80.9900696920711L683.1445714285715,81.7313960245204L684.6762857142858,78.66569883155312L686.2080000000001,80.56921059426142L687.7397142857144,79.80278629601958L689.2714285714286,84.57412492684824L690.8031428571428,88.67797442185851L692.3348571428571,97.60261988774738L693.8665714285714,84.8831305835707L695.3982857142857,78.52338593148232L696.9300000000001,73.62533342584223L698.4617142857144,83.2035786713555L699.9934285714286,86.27452111451619L701.5251428571429,84.37362173574296L703.0568571428571,76.55045132797252L704.5885714285714,79.51158684247108L706.1202857142857,75.83761406093254L707.652,70.56425706980971L709.1837142857144,71.36394917460187L710.7154285714286,80.35470636613935L712.2471428571429,83.13189454115049L713.7788571428572,84.52048862865603L715.3105714285715,80.06024513362098L716.8422857142858,81.2664837452953L718.374,64.68779101401135L721.4374285714285,68.42571614670265L722.9691428571429,68.57649853345238L724.5008571428572,75.52461044521102L726.0325714285715,73.8441258623025L727.5642857142858,69.56751297049468L729.0960000000001,76.02011766373215L730.6277142857143,72.37369929196714L732.1594285714285,79.14139100406436L733.6911428571428,80.80705668051702L735.2228571428572,76.48534897995553L736.7545714285715,79.47903566846261L738.2862857142858,74.10315829433237L739.818,69.69702918650957L741.3497142857143,86.393967090477L742.8814285714286,75.84243358458188L744.4131428571429,75.72121761158388L745.9448571428572,82.5333405846304L747.4765714285714,87.65758225074956L749.0082857142858,83.34697212426369L750.54,79.47348688142479L752.0717142857143,80.97310461919723L753.6034285714286,81.72291348808345L755.1351428571429,80.37963774293061L756.6668571428572,83.1443602295461L758.1985714285715,77.65400075447005L759.7302857142857,90.37245287445722L761.262,79.54986689732966L762.7937142857143,79.2931144475537L764.3254285714286,82.60109858185766L765.8571428571429,82.53691046941368L767.3888571428572,87.65936719314121L768.9205714285715,79.91150423626758L770.4522857142857,82.91029347621455L771.984,74.10059677745072L773.5157142857144,83.44121034715972L775.0474285714287,82.95696635206473L776.5791428571429,74.12393321537577L778.1108571428572,74.86196742698085L779.6425714285714,76.9491647123793L781.1742857142857,77.99276335507854L782.706,81.95092303562005L784.2377142857143,87.36637347624436L785.7694285714286,83.20136773701107L787.301142857143,79.4006846877985L788.8328571428573,77.50034316319217L790.3645714285714,85.14108354003045L791.8962857142857,80.37054258930819L793.428,83.13981265273488L794.9597142857143,82.8062675048523L796.4914285714286,77.48495439212314L798.023142857143,76.54247801535449L799.5548571428571,76.07123982697019L801.0865714285715,67.24470959363664L802.6182857142858,80.01326675525266L804.1500000000001,86.39754533606069L805.6817142857143,80.99877348732329L807.2134285714286,78.29938756295459L808.7451428571429,88.97696609910358L810.2768571428571,78.85212350965286L813.3402857142858,72.07151179416985L814.8720000000001,70.39939635718598L816.4037142857144,72.99969899788593L817.9354285714287,69.14529953828638L819.4671428571428,74.09083076803206L820.9988571428571,79.99995674209684L822.5305714285714,64.05452751241208L824.0622857142857,71.54544475509493L825.594,75.2909033764364L827.1257142857144,87.47272400584446L828.6574285714287,86.69090336100304L830.1891428571429,74.27272154024898L831.7208571428572,76.65454176901336L833.2525714285714,65.81818038506226L834.7842857142857,63.83636005227856L836.316,68.00000066583627L837.8477142857143,70.08182097261515L839.3794285714285,69.40455094640865L840.9111428571429,72.50227629249723L842.4428571428572,70.61477860634966L843.9745714285715,66.2346591629223L845.5062857142858,72.63551058035004L847.0380000000001,86.14502760780128L848.5697142857143,72.28160348405218L850.1014285714285,72.22262238172307L851.6331428571428,80.78404296969997L853.1648571428572,81.62838266333482L854.6965714285715,85.48692311050583L856.2282857142858,80.54346237454585L857.7600000000001,81.50809236575779L859.2917142857143,76.83586682257587L860.8234285714286,79.65429458977279L862.3551428571428,72.47259733422982L863.8868571428571,72.31811930681191L865.4185714285715,68.80450969274935L866.9502857142858,73.92043584526357L868.4820000000001,76.47839892152068L870.0137142857143,70.88464950010373L871.5454285714286,78.39686610813267L873.0771428571429,73.56207351416738L874.6088571428572,71.14467721718476L876.1405714285715,69.93597906869343L877.6722857142857,71.04981017404369L879.204,71.60672572671884L880.7357142857143,70.16700332346046L882.2674285714286,72.88350248102317L883.7991428571429,77.67811241899645L885.3308571428572,80.07541738798307L886.8625714285715,81.27406987247639L888.3942857142858,83.59157629431898L889.926,74.4412381865029L891.4577142857142,73.30243973294843L892.9894285714286,69.29666990581764L894.5211428571429,75.88469613139364L896.0528571428572,70.58779810504024L897.5845714285715,76.53026023100497L899.1162857142857,77.78331111439135L900.648,78.40983655608457L902.1797142857143,64.9776475990019L905.243142857143,65.13427383884436L906.7748571428572,66.93077737952324L908.3065714285715,66.11083872910503L909.8382857142857,63.98268922429999L911.37,68.07316525184699L912.9017142857143,66.68203266526692L914.4334285714286,79.7319282910678L915.965142857143,69.07505382568544L917.4968571428573,68.90116737294377L919.0285714285715,73.96876468536078L920.5602857142857,78.22074352116526L922.092,71.75582179992605L923.6237142857143,70.24155136006408L925.1554285714286,74.63895667892095L926.6871428571429,73.40129897915745L928.2188571428572,77.9370106680636L929.7505714285714,75.05032597372877L931.2822857142858,80.47970434494519L932.8140000000001,72.88530221181601L934.3457142857144,69.0881011452514L935.8774285714286,74.06223157151462L937.4091428571429,79.98565714383807L938.9408571428571,76.07464921161603L940.4725714285714,67.24641428595955L942.0042857142857,69.70502778267675L943.5360000000001,70.9343345310354L945.0677142857144,74.98534826440657L946.5994285714287,75.29267495149621L948.1311428571429,70.29178751509154L949.6628571428571,66.07316361729325L951.1945714285714,69.11840244834362L952.7262857142857,68.92284168427288L954.258,67.10687088147984L955.7897142857144,71.35343626003291L957.3214285714287,78.63125948809721L958.8531428571429,73.67927020414963L960.3848571428572,76.3578161009637L961.9165714285715,79.41526922896671L963.4482857142858,77.5076354337763L964.98,61.09017643749416L966.5117142857143,68.34508903804004L968.0434285714285,75.40890569750484L969.5751428571429,70.34990288809581L971.1068571428572,69.538591904149L972.6385714285715,67.41474599141792L974.1702857142858,74.94373417419382L975.7020000000001,71.83550754719798L977.2337142857144,71.99957441329596L978.7654285714285,75.51796820553689L980.2971428571428,77.27716510165732L981.8288571428571,76.4385833701216L983.3605714285715,72.58293214516183L984.8922857142858,65.50055575273244L986.4240000000001,70.55027869565916L987.9557142857143,86.82059184505178L989.4874285714286,74.33756578227339L991.0191428571429,74.96878371042962L992.5508571428571,78.72075303369967L994.0825714285714,70.28764637659731" style="fill: none;" fill="none"></path></g></g></g></g><g opacity="0.2"><g><g><g><path stroke="rgb(0, 119, 187)" stroke-width="2px" d="M78.11742857142858,329.89090888608587L79.64914285714286,340.20000020482325L81.18085714285715,353.94545444304293L82.71257142857142,312.70909172838384L84.24428571428571,312.70909172838384L85.77600000000001,319.5818175673485L87.3077142857143,323.0181830471212L88.83942857142857,323.0181830471212L90.37114285714286,292.09090909090907L91.90285714285714,326.4545434063131L93.43457142857143,312.70909172838384L94.96628571428572,285.21817813136363L96.498,278.34545741297984L98.02971428571429,274.90908681262624L99.56142857142858,257.72727477550507L101.09314285714287,298.96363492987376L102.62485714285714,288.65454873171717L104.15657142857143,247.4181834567677L105.68828571428573,233.67273177883843L107.22000000000001,285.21817813136363L108.75171428571429,257.72727477550507L110.28342857142857,261.16363513469696L111.81514285714286,257.72727477550507L113.34685714285715,216.4909095005556L114.87857142857143,223.36364046010104L116.41028571428572,247.4181834567677L117.94200000000001,233.67273177883843L119.4737142857143,233.67273177883843L121.00542857142857,223.36364046010104L122.53714285714285,219.9272698597475L124.06885714285714,206.18181818181816L125.60057142857144,223.36364046010104L127.13228571428573,216.4909095005556L128.664,171.81817362525248L130.1957142857143,219.9272698597475L131.7274285714286,209.61817854101005L133.25914285714288,202.74545782262626L134.79085714285716,158.0727321884849L136.32257142857142,185.56363554434344L137.8542857142857,188.99999590353534L139.38600000000002,192.43635626272726L140.91771428571428,185.56363554434344L142.4494285714286,171.81817362525248L143.98114285714286,168.3818132660606L145.51285714285714,161.5090925476768L147.04457142857143,168.3818132660606L148.57628571428572,164.9454529068687L150.10800000000003,175.25455446676776L151.6397142857143,171.81817362525248L153.17142857142858,147.76363062858582L154.70314285714286,147.76363062858582L156.23485714285715,178.69091482595965L157.7665714285714,168.3818132660606L159.29828571428573,175.25455446676776L160.83,188.99999590353534L162.3617142857143,144.32727026939392L163.8934285714286,164.9454529068687L165.42514285714284,171.81817362525248L166.95685714285716,144.32727026939392L170.0202857142857,144.32727026939392L171.55200000000002,151.1999909877777L173.08371428571428,154.636371829293L174.6154285714286,161.5090925476768L176.14714285714285,140.89090991020203L177.67885714285714,134.01818919181824L179.21057142857146,134.01818919181824L180.7422857142857,161.5090925476768L182.27400000000003,161.5090925476768L183.8057142857143,154.636371829293L185.33742857142857,154.636371829293L186.86914285714286,127.14544799111108L188.40085714285715,134.01818919181824L189.93257142857144,130.58180835030296L191.46428571428572,151.1999909877777L192.996,134.01818919181824L194.5277142857143,127.14544799111108L196.05942857142858,120.2727272727273L197.59114285714284,137.45454955101013L199.12285714285716,137.45454955101013L200.65457142857144,144.32727026939392L202.18628571428573,127.14544799111108L203.71800000000002,154.636371829293L205.24971428571428,140.89090991020203L206.7814285714286,109.96364619515161L208.31314285714285,92.78182391686877L209.84485714285714,137.45454955101013L211.37657142857145,113.4000065543435L212.9082857142857,130.58180835030296L214.44000000000003,123.70908763191919L215.97171428571428,140.89090991020203L217.50342857142857,134.01818919181824L219.0351428571429,127.14544799111108L220.56685714285715,116.8363669135354L222.09857142857146,137.45454955101013L223.63028571428572,127.14544799111108L225.162,113.4000065543435L226.6937142857143,130.58180835030296L228.22542857142858,134.01818919181824L229.75714285714287,127.14544799111108L231.28885714285715,106.52726535363635L232.82057142857144,123.70908763191919L234.35228571428573,123.70908763191919L235.88400000000001,116.8363669135354L237.41571428571427,109.96364619515161L238.9474285714286,103.09090499444446L240.47914285714288,120.2727272727273L242.01085714285713,127.14544799111108L243.54257142857145,106.52726535363635L245.0742857142857,140.89090991020203L246.60600000000002,113.4000065543435L248.13771428571428,137.45454955101013L249.66942857142857,113.4000065543435L251.20114285714288,134.01818919181824L252.73285714285714,120.2727272727273L254.26457142857146,113.4000065543435L255.79628571428572,127.14544799111108L257.328,116.8363669135354L258.8597142857143,130.58180835030296L261.92314285714286,109.96364619515161L263.4548571428572,103.09090499444446L264.98657142857144,106.52726535363635L266.51828571428575,116.8363669135354L268.05,123.70908763191919L269.5817142857143,116.8363669135354L271.1134285714286,106.52726535363635L272.64514285714284,103.09090499444446L274.17685714285716,106.52726535363635L275.7085714285714,127.14544799111108L277.24028571428573,116.8363669135354L278.77200000000005,99.65454463525256L280.3037142857143,106.52726535363635L281.83542857142857,109.96364619515161L283.3671428571429,113.4000065543435L284.8988571428572,123.70908763191919L286.4305714285714,96.21818427606067L287.9622857142857,123.70908763191919L289.494,96.21818427606067L291.0257142857143,103.09090499444446L292.5574285714286,99.65454463525256L294.08914285714286,109.96364619515161L295.6208571428571,109.96364619515161L297.15257142857143,106.52726535363635L298.68428571428575,85.90908271616156L300.21600000000007,106.52726535363635L301.74771428571427,103.09090499444446L303.2794285714286,109.96364619515161L304.8111428571429,109.96364619515161L306.34285714285716,116.8363669135354L307.87457142857147,120.2727272727273L309.40628571428573,106.52726535363635L310.938,106.52726535363635L312.4697142857143,99.65454463525256L314.0014285714286,113.4000065543435L315.5331428571428,96.21818427606067L317.06485714285714,109.96364619515161L318.59657142857145,103.09090499444446L320.12828571428577,109.96364619515161L321.66,99.65454463525256L323.1917142857143,109.96364619515161L324.7234285714286,109.96364619515161L326.25514285714286,92.78182391686877L327.7868571428572,103.09090499444446L329.3185714285715,99.65454463525256L330.8502857142857,130.58180835030296L332.382,106.52726535363635L333.9137142857143,113.4000065543435L335.4454285714286,89.34546355767688L336.97714285714284,103.09090499444446L338.50885714285715,82.47272235696967L340.0405714285714,85.90908271616156L341.5722857142857,109.96364619515161L343.10400000000004,120.2727272727273L344.6357142857143,89.34546355767688L346.16742857142856,103.09090499444446L347.6991428571429,120.2727272727273L349.2308571428572,116.8363669135354L350.76257142857145,85.90908271616156L353.826,92.78182391686877L355.3577142857143,103.09090499444446L356.8894285714286,96.21818427606067L358.4211428571429,96.21818427606067L359.9528571428571,96.21818427606067L361.4845714285714,106.52726535363635L363.01628571428574,92.78182391686877L364.54800000000006,99.65454463525256L366.07971428571426,109.96364619515161L367.6114285714286,113.4000065543435L369.1431428571429,116.8363669135354L370.67485714285715,106.52726535363635L372.20657142857146,89.34546355767688L373.7382857142857,106.52726535363635L375.27,75.60000163858588L376.8017142857143,99.65454463525256L378.3334285714286,120.2727272727273L379.86514285714287,130.58180835030296L381.39685714285713,96.21818427606067L382.92857142857144,89.34546355767688L384.46028571428576,96.21818427606067L385.992,103.09090499444446L387.52371428571433,75.60000163858588L389.0554285714286,106.52726535363635L390.58714285714285,106.52726535363635L392.11885714285717,65.29090007868683L393.6505714285715,89.34546355767688L395.1822857142857,92.78182391686877L396.714,103.09090499444446L398.2457142857143,96.21818427606067L399.7774285714286,113.4000065543435L401.3091428571429,92.78182391686877L402.84085714285715,103.09090499444446L404.37257142857146,106.52726535363635L405.9042857142857,116.8363669135354L407.43600000000004,89.34546355767688L408.96771428571435,96.21818427606067L410.49942857142855,89.34546355767688L412.03114285714287,96.21818427606067L413.5628571428572,96.21818427606067L415.09457142857144,89.34546355767688L416.6262857142857,113.4000065543435L418.158,96.21818427606067L419.6897142857143,99.65454463525256L421.2214285714286,72.16364127939399L422.7531428571429,109.96364619515161L424.28485714285716,96.21818427606067L425.8165714285714,103.09090499444446L427.34828571428574,75.60000163858588L428.88000000000005,99.65454463525256L430.4117142857143,92.78182391686877L431.94342857142857,92.78182391686877L433.4751428571429,127.14544799111108L435.00685714285714,116.8363669135354L436.53857142857146,106.52726535363635L438.0702857142858,96.21818427606067L439.602,92.78182391686877L441.1337142857143,99.65454463525256L442.6654285714286,92.78182391686877L445.7288571428571,103.09090499444446L447.26057142857144,65.29090007868683L448.79228571428575,82.47272235696967L450.324,89.34546355767688L451.8557142857143,99.65454463525256L453.3874285714286,85.90908271616156L454.91914285714284,85.90908271616156L456.45085714285716,82.47272235696967L457.9825714285715,89.34546355767688L459.51428571428573,96.21818427606067L461.046,103.09090499444446L462.5777142857143,85.90908271616156L464.1094285714286,72.16364127939399L465.6411428571429,116.8363669135354L467.1728571428572,68.72728092020209L468.70457142857146,75.60000163858588L470.2362857142857,96.21818427606067L471.76800000000003,89.34546355767688L473.29971428571434,85.90908271616156L474.83142857142855,61.85453971949494L476.36314285714286,89.34546355767688L477.8948571428572,103.09090499444446L479.42657142857144,82.47272235696967L480.95828571428575,72.16364127939399L482.49,92.78182391686877L484.02171428571427,82.47272235696967L485.5534285714286,82.47272235696967L487.0851428571429,113.4000065543435L488.6168571428572,109.96364619515161L490.1485714285714,75.60000163858588L491.68028571428573,99.65454463525256L493.21200000000005,65.29090007868683L494.7437142857143,79.03636199777777L496.27542857142856,82.47272235696967L497.8071428571429,89.34546355767688L499.33885714285714,99.65454463525256L500.87057142857145,89.34546355767688L502.40228571428577,99.65454463525256L503.93399999999997,85.90908271616156L505.4657142857143,92.78182391686877L506.9974285714286,72.16364127939399L508.5291428571429,96.21818427606067L510.0608571428572,82.47272235696967L511.59257142857143,68.72728092020209L513.1242857142857,65.29090007868683L514.656,109.96364619515161L516.1877142857143,96.21818427606067L517.7194285714286,85.90908271616156L519.2511428571429,75.60000163858588L520.7828571428572,96.21818427606067L522.3145714285714,82.47272235696967L523.8462857142857,85.90908271616156L525.378,82.47272235696967L526.9097142857144,82.47272235696967L528.4414285714287,85.90908271616156L529.9731428571429,75.60000163858588L531.5048571428572,82.47272235696967L533.0365714285715,82.47272235696967L534.5682857142857,61.85453971949494L537.6317142857143,75.60000163858588L539.1634285714287,85.90908271616156L540.695142857143,82.47272235696967L542.2268571428572,85.90908271616156L543.7585714285714,65.29090007868683L545.2902857142857,68.72728092020209L546.822,92.78182391686877L548.3537142857143,68.72728092020209L549.8854285714286,92.78182391686877L551.4171428571428,96.21818427606067L552.9488571428572,96.21818427606067L554.4805714285715,75.60000163858588L556.0122857142858,79.03636199777777L557.5440000000001,79.03636199777777L559.0757142857143,68.72728092020209L560.6074285714286,92.78182391686877L562.1391428571428,79.03636199777777L563.6708571428571,92.78182391686877L565.2025714285714,89.34546355767688L566.7342857142858,75.60000163858588L568.2660000000001,75.60000163858588L569.7977142857144,106.52726535363635L571.3294285714286,99.65454463525256L572.8611428571428,58.41817936030304L574.3928571428571,75.60000163858588L575.9245714285714,99.65454463525256L577.4562857142857,82.47272235696967L578.988,85.90908271616156L580.5197142857144,82.47272235696967L582.0514285714286,75.60000163858588L583.5831428571429,106.52726535363635L585.1148571428572,92.78182391686877L586.6465714285715,82.47272235696967L588.1782857142857,68.72728092020209L589.71,79.03636199777777L591.2417142857142,65.29090007868683L592.7734285714286,79.03636199777777L594.3051428571429,79.03636199777777L595.8368571428572,89.34546355767688L597.3685714285715,79.03636199777777L598.9002857142858,96.21818427606067L600.4320000000001,92.78182391686877L601.9637142857142,96.21818427606067L603.4954285714285,89.34546355767688L605.0271428571428,68.72728092020209L606.5588571428572,99.65454463525256L608.0905714285715,72.16364127939399L609.6222857142858,85.90908271616156L611.154,75.60000163858588L612.6857142857143,103.09090499444446L614.2174285714286,103.09090499444446L615.7491428571429,109.96364619515161L617.2808571428571,99.65454463525256L618.8125714285715,79.03636199777777L620.3442857142858,89.34546355767688L621.876,89.34546355767688L623.4077142857143,89.34546355767688L624.9394285714286,113.4000065543435L626.4711428571429,99.65454463525256L629.5345714285716,92.78182391686877L631.0662857142856,79.03636199777777L632.598,75.60000163858588L634.1297142857143,72.16364127939399L635.6614285714286,96.21818427606067L637.1931428571429,72.16364127939399L638.7248571428572,75.60000163858588L640.2565714285715,65.29090007868683L641.7882857142857,82.47272235696967L643.32,96.21818427606067L644.8517142857143,79.03636199777777L646.3834285714286,75.60000163858588L647.9151428571429,75.60000163858588L649.4468571428572,79.03636199777777L650.9785714285714,61.85453971949494L652.5102857142857,65.29090007868683L654.042,65.29090007868683L655.5737142857143,96.21818427606067L657.1054285714287,68.72728092020209L658.637142857143,54.98181900111115L660.1688571428572,85.90908271616156L661.7005714285714,72.16364127939399L663.2322857142857,75.60000163858588L664.764,58.41817936030304L666.2957142857143,85.90908271616156L667.8274285714286,82.47272235696967L669.359142857143,68.72728092020209L670.8908571428572,89.34546355767688L672.4225714285715,85.90908271616156L673.9542857142857,75.60000163858588L675.486,99.65454463525256L677.0177142857143,65.29090007868683L678.5494285714286,75.60000163858588L680.0811428571428,82.47272235696967L681.6128571428571,82.47272235696967L683.1445714285715,82.47272235696967L684.6762857142858,75.60000163858588L686.2080000000001,82.47272235696967L687.7397142857144,79.03636199777777L689.2714285714286,89.34546355767688L690.8031428571428,92.78182391686877L692.3348571428571,106.52726535363635L693.8665714285714,72.16364127939399L695.3982857142857,72.16364127939399L696.9300000000001,68.72728092020209L698.4617142857144,92.78182391686877L699.9934285714286,89.34546355767688L701.5251428571429,82.47272235696967L703.0568571428571,68.72728092020209L704.5885714285714,82.47272235696967L706.1202857142857,72.16364127939399L707.652,65.29090007868683L709.1837142857144,72.16364127939399L710.7154285714286,89.34546355767688L712.2471428571429,85.90908271616156L713.7788571428572,85.90908271616156L715.3105714285715,75.60000163858588L716.8422857142858,82.47272235696967L718.374,48.10909828272736L721.4374285714285,72.16364127939399L722.9691428571429,68.72728092020209L724.5008571428572,82.47272235696967L726.0325714285715,72.16364127939399L727.5642857142858,65.29090007868683L729.0960000000001,82.47272235696967L730.6277142857143,68.72728092020209L732.1594285714285,85.90908271616156L733.6911428571428,82.47272235696967L735.2228571428572,72.16364127939399L736.7545714285715,82.47272235696967L738.2862857142858,68.72728092020209L739.818,65.29090007868683L741.3497142857143,103.09090499444446L742.8814285714286,65.29090007868683L744.4131428571429,75.60000163858588L745.9448571428572,89.34546355767688L747.4765714285714,92.78182391686877L749.0082857142858,79.03636199777777L750.54,75.60000163858588L752.0717142857143,82.47272235696967L753.6034285714286,82.47272235696967L755.1351428571429,79.03636199777777L756.6668571428572,85.90908271616156L758.1985714285715,72.16364127939399L759.7302857142857,103.09090499444446L761.262,68.72728092020209L762.7937142857143,79.03636199777777L764.3254285714286,85.90908271616156L765.8571428571429,82.47272235696967L767.3888571428572,92.78182391686877L768.9205714285715,72.16364127939399L770.4522857142857,85.90908271616156L771.984,65.29090007868683L773.5157142857144,92.78182391686877L775.0474285714287,82.47272235696967L776.5791428571429,65.29090007868683L778.1108571428572,75.60000163858588L779.6425714285714,79.03636199777777L781.1742857142857,79.03636199777777L782.706,85.90908271616156L784.2377142857143,92.78182391686877L785.7694285714286,79.03636199777777L787.301142857143,75.60000163858588L788.8328571428573,75.60000163858588L790.3645714285714,92.78182391686877L791.8962857142857,75.60000163858588L793.428,85.90908271616156L794.9597142857143,82.47272235696967L796.4914285714286,72.16364127939399L798.023142857143,75.60000163858588L799.5548571428571,75.60000163858588L801.0865714285715,58.41817936030304L802.6182857142858,92.78182391686877L804.1500000000001,92.78182391686877L805.6817142857143,75.60000163858588L807.2134285714286,75.60000163858588L808.7451428571429,99.65454463525256L810.2768571428571,68.72728092020209L813.3402857142858,65.29090007868683L814.8720000000001,68.72728092020209L816.4037142857144,75.60000163858588L817.9354285714287,65.29090007868683L819.4671428571428,79.03636199777777L820.9988571428571,85.90908271616156L822.5305714285714,48.10909828272736L824.0622857142857,79.03636199777777L825.594,79.03636199777777L827.1257142857144,99.65454463525256L828.6574285714287,85.90908271616156L830.1891428571429,61.85453971949494L831.7208571428572,79.03636199777777L833.2525714285714,54.98181900111115L834.7842857142857,61.85453971949494L836.316,72.16364127939399L837.8477142857143,72.16364127939399L839.3794285714285,68.72728092020209L840.9111428571429,75.60000163858588L842.4428571428572,68.72728092020209L843.9745714285715,61.85453971949494L845.5062857142858,79.03636199777777L847.0380000000001,99.65454463525256L848.5697142857143,58.41817936030304L850.1014285714285,72.16364127939399L851.6331428571428,89.34546355767688L853.1648571428572,82.47272235696967L854.6965714285715,89.34546355767688L856.2282857142858,75.60000163858588L857.7600000000001,82.47272235696967L859.2917142857143,72.16364127939399L860.8234285714286,82.47272235696967L862.3551428571428,65.29090007868683L863.8868571428571,72.16364127939399L865.4185714285715,65.29090007868683L866.9502857142858,79.03636199777777L868.4820000000001,79.03636199777777L870.0137142857143,65.29090007868683L871.5454285714286,85.90908271616156L873.0771428571429,68.72728092020209L874.6088571428572,68.72728092020209L876.1405714285715,68.72728092020209L877.6722857142857,72.16364127939399L879.204,72.16364127939399L880.7357142857143,68.72728092020209L882.2674285714286,75.60000163858588L883.7991428571429,82.47272235696967L885.3308571428572,82.47272235696967L886.8625714285715,82.47272235696967L888.3942857142858,85.90908271616156L889.926,65.29090007868683L891.4577142857142,72.16364127939399L892.9894285714286,65.29090007868683L894.5211428571429,82.47272235696967L896.0528571428572,65.29090007868683L897.5845714285715,82.47272235696967L899.1162857142857,79.03636199777777L900.648,79.03636199777777L902.1797142857143,51.545458641919254L905.243142857143,65.29090007868683L906.7748571428572,68.72728092020209L908.3065714285715,65.29090007868683L909.8382857142857,61.85453971949494L911.37,72.16364127939399L912.9017142857143,65.29090007868683L914.4334285714286,92.78182391686877L915.965142857143,58.41817936030304L917.4968571428573,68.72728092020209L919.0285714285715,79.03636199777777L920.5602857142857,82.47272235696967L922.092,65.29090007868683L923.6237142857143,68.72728092020209L925.1554285714286,79.03636199777777L926.6871428571429,72.16364127939399L928.2188571428572,82.47272235696967L929.7505714285714,72.16364127939399L931.2822857142858,85.90908271616156L932.8140000000001,65.29090007868683L934.3457142857144,65.29090007868683L935.8774285714286,79.03636199777777L937.4091428571429,85.90908271616156L938.9408571428571,72.16364127939399L940.4725714285714,58.41817936030304L942.0042857142857,72.16364127939399L943.5360000000001,72.16364127939399L945.0677142857144,79.03636199777777L946.5994285714287,75.60000163858588L948.1311428571429,65.29090007868683L949.6628571428571,61.85453971949494L951.1945714285714,72.16364127939399L952.7262857142857,68.72728092020209L954.258,65.29090007868683L955.7897142857144,75.60000163858588L957.3214285714287,85.90908271616156L958.8531428571429,68.72728092020209L960.3848571428572,79.03636199777777L961.9165714285715,82.47272235696967L963.4482857142858,75.60000163858588L964.98,44.67271744121206L966.5117142857143,75.60000163858588L968.0434285714285,82.47272235696967L969.5751428571429,65.29090007868683L971.1068571428572,68.72728092020209L972.6385714285715,65.29090007868683L974.1702857142858,82.47272235696967L975.7020000000001,68.72728092020209L977.2337142857144,72.16364127939399L978.7654285714285,79.03636199777777L980.2971428571428,79.03636199777777L981.8288571428571,75.60000163858588L983.3605714285715,68.72728092020209L984.8922857142858,58.41817936030304L986.4240000000001,75.60000163858588L987.9557142857143,103.09090499444446L989.4874285714286,61.85453971949494L991.0191428571429,75.60000163858588L992.5508571428571,82.47272235696967L994.0825714285714,61.85453971949494" style="fill: none;" fill="none"></path></g></g></g></g></g></g><g transform="translate(40, 378)" clip-path="url(#clip_1)"><clipPath id="clip_1"><rect width="1072" height="22"></rect></clipPath><g><g><line x1="0" y1="0" x2="0" y2="5" style="visibility: inherit;" fill="rgb(0, 0, 0)" stroke="rgb(204, 204, 204)" stroke-width="1px"></line><line x1="76.58571428571429" y1="0" x2="76.58571428571429" y2="5" style="visibility: inherit;" fill="rgb(0, 0, 0)" stroke="rgb(204, 204, 204)" stroke-width="1px"></line><line x1="153.17142857142858" y1="0" x2="153.17142857142858" y2="5" style="visibility: inherit;" fill="rgb(0, 0, 0)" stroke="rgb(204, 204, 204)" stroke-width="1px"></line><line x1="229.75714285714287" y1="0" x2="229.75714285714287" y2="5" style="visibility: inherit;" fill="rgb(0, 0, 0)" stroke="rgb(204, 204, 204)" stroke-width="1px"></line><line x1="306.34285714285716" y1="0" x2="306.34285714285716" y2="5" style="visibility: inherit;" fill="rgb(0, 0, 0)" stroke="rgb(204, 204, 204)" stroke-width="1px"></line><line x1="382.92857142857144" y1="0" x2="382.92857142857144" y2="5" style="visibility: inherit;" fill="rgb(0, 0, 0)" stroke="rgb(204, 204, 204)" stroke-width="1px"></line><line x1="459.51428571428573" y1="0" x2="459.51428571428573" y2="5" style="visibility: inherit;" fill="rgb(0, 0, 0)" stroke="rgb(204, 204, 204)" stroke-width="1px"></line><line x1="536.1" y1="0" x2="536.1" y2="5" style="visibility: inherit;" fill="rgb(0, 0, 0)" stroke="rgb(204, 204, 204)" stroke-width="1px"></line><line x1="612.6857142857143" y1="0" x2="612.6857142857143" y2="5" style="visibility: inherit;" fill="rgb(0, 0, 0)" stroke="rgb(204, 204, 204)" stroke-width="1px"></line><line x1="689.2714285714286" y1="0" x2="689.2714285714286" y2="5" style="visibility: inherit;" fill="rgb(0, 0, 0)" stroke="rgb(204, 204, 204)" stroke-width="1px"></line><line x1="765.8571428571429" y1="0" x2="765.8571428571429" y2="5" style="visibility: inherit;" fill="rgb(0, 0, 0)" stroke="rgb(204, 204, 204)" stroke-width="1px"></line><line x1="842.4428571428572" y1="0" x2="842.4428571428572" y2="5" style="visibility: inherit;" fill="rgb(0, 0, 0)" stroke="rgb(204, 204, 204)" stroke-width="1px"></line><line x1="919.0285714285715" y1="0" x2="919.0285714285715" y2="5" style="visibility: inherit;" fill="rgb(0, 0, 0)" stroke="rgb(204, 204, 204)" stroke-width="1px"></line><line x1="995.6142857142858" y1="0" x2="995.6142857142858" y2="5" style="visibility: inherit;" fill="rgb(0, 0, 0)" stroke="rgb(204, 204, 204)" stroke-width="1px"></line><line x1="1072.2" y1="0" x2="1072.2" y2="5" style="visibility: inherit;" fill="rgb(0, 0, 0)" stroke="rgb(204, 204, 204)" stroke-width="1px"></line></g><g transform="translate(0, 8)"><text x="0" y="0" dx="0em" dy="0.95em" style="text-anchor: middle; visibility: hidden; font-family: Roboto, sans-serif; font-size: 12px; font-weight: 200;" fill="rgb(50, 49, 63)" stroke="none" stroke-width="1px">-500</text><text x="76.58571428571429" y="0" dx="0em" dy="0.95em" style="text-anchor: middle; visibility: inherit; font-family: Roboto, sans-serif; font-size: 12px; font-weight: 200;" fill="rgb(50, 49, 63)" stroke="none" stroke-width="1px">0</text><text x="153.17142857142858" y="0" dx="0em" dy="0.95em" style="text-anchor: middle; visibility: inherit; font-family: Roboto, sans-serif; font-size: 12px; font-weight: 200;" fill="rgb(50, 49, 63)" stroke="none" stroke-width="1px">500</text><text x="229.75714285714287" y="0" dx="0em" dy="0.95em" style="text-anchor: middle; visibility: inherit; font-family: Roboto, sans-serif; font-size: 12px; font-weight: 200;" fill="rgb(50, 49, 63)" stroke="none" stroke-width="1px">1k</text><text x="306.34285714285716" y="0" dx="0em" dy="0.95em" style="text-anchor: middle; visibility: inherit; font-family: Roboto, sans-serif; font-size: 12px; font-weight: 200;" fill="rgb(50, 49, 63)" stroke="none" stroke-width="1px">1.5k</text><text x="382.92857142857144" y="0" dx="0em" dy="0.95em" style="text-anchor: middle; visibility: inherit; font-family: Roboto, sans-serif; font-size: 12px; font-weight: 200;" fill="rgb(50, 49, 63)" stroke="none" stroke-width="1px">2k</text><text x="459.51428571428573" y="0" dx="0em" dy="0.95em" style="text-anchor: middle; visibility: inherit; font-family: Roboto, sans-serif; font-size: 12px; font-weight: 200;" fill="rgb(50, 49, 63)" stroke="none" stroke-width="1px">2.5k</text><text x="536.1" y="0" dx="0em" dy="0.95em" style="text-anchor: middle; visibility: inherit; font-family: Roboto, sans-serif; font-size: 12px; font-weight: 200;" fill="rgb(50, 49, 63)" stroke="none" stroke-width="1px">3k</text><text x="612.6857142857143" y="0" dx="0em" dy="0.95em" style="text-anchor: middle; visibility: inherit; font-family: Roboto, sans-serif; font-size: 12px; font-weight: 200;" fill="rgb(50, 49, 63)" stroke="none" stroke-width="1px">3.5k</text><text x="689.2714285714286" y="0" dx="0em" dy="0.95em" style="text-anchor: middle; visibility: inherit; font-family: Roboto, sans-serif; font-size: 12px; font-weight: 200;" fill="rgb(50, 49, 63)" stroke="none" stroke-width="1px">4k</text><text x="765.8571428571429" y="0" dx="0em" dy="0.95em" style="text-anchor: middle; visibility: inherit; font-family: Roboto, sans-serif; font-size: 12px; font-weight: 200;" fill="rgb(50, 49, 63)" stroke="none" stroke-width="1px">4.5k</text><text x="842.4428571428572" y="0" dx="0em" dy="0.95em" style="text-anchor: middle; visibility: inherit; font-family: Roboto, sans-serif; font-size: 12px; font-weight: 200;" fill="rgb(50, 49, 63)" stroke="none" stroke-width="1px">5k</text><text x="919.0285714285715" y="0" dx="0em" dy="0.95em" style="text-anchor: middle; visibility: inherit; font-family: Roboto, sans-serif; font-size: 12px; font-weight: 200;" fill="rgb(50, 49, 63)" stroke="none" stroke-width="1px">5.5k</text><text x="995.6142857142858" y="0" dx="0em" dy="0.95em" style="text-anchor: middle; visibility: inherit; font-family: Roboto, sans-serif; font-size: 12px; font-weight: 200;" fill="rgb(50, 49, 63)" stroke="none" stroke-width="1px">6k</text><text x="1072.2" y="0" dx="0em" dy="0.95em" style="text-anchor: middle; visibility: hidden; font-family: Roboto, sans-serif; font-size: 12px; font-weight: 200;" fill="rgb(50, 49, 63)" stroke="none" stroke-width="1px">6.5k</text></g><line x1="0" y1="0" x2="1072.2" y2="0" fill="rgb(0, 0, 0)" stroke="rgb(204, 204, 204)" stroke-width="1px"></line></g></g></g></g></svg>