<svg viewBox="0 0 1112.2000732421875 400" xmlns="http://www.w3.org/2000/svg"><g><g><g><g><g><line x1="50" y1="378" x2="45" y2="378" style="visibility: inherit;" fill="rgb(0, 0, 0)" stroke="rgb(204, 204, 204)" stroke-width="1px"></line><line x1="50" y1="351" x2="45" y2="351" style="visibility: inherit;" fill="rgb(0, 0, 0)" stroke="rgb(204, 204, 204)" stroke-width="1px"></line><line x1="50" y1="324" x2="45" y2="324" style="visibility: inherit;" fill="rgb(0, 0, 0)" stroke="rgb(204, 204, 204)" stroke-width="1px"></line><line x1="50" y1="297" x2="45" y2="297" style="visibility: inherit;" fill="rgb(0, 0, 0)" stroke="rgb(204, 204, 204)" stroke-width="1px"></line><line x1="50" y1="270" x2="45" y2="270" style="visibility: inherit;" fill="rgb(0, 0, 0)" stroke="rgb(204, 204, 204)" stroke-width="1px"></line><line x1="50" y1="243.00000000000003" x2="45" y2="243.00000000000003" style="visibility: inherit;" fill="rgb(0, 0, 0)" stroke="rgb(204, 204, 204)" stroke-width="1px"></line><line x1="50" y1="216.00000000000003" x2="45" y2="216.00000000000003" style="visibility: inherit;" fill="rgb(0, 0, 0)" stroke="rgb(204, 204, 204)" stroke-width="1px"></line><line x1="50" y1="189" x2="45" y2="189" style="visibility: inherit;" fill="rgb(0, 0, 0)" stroke="rgb(204, 204, 204)" stroke-width="1px"></line><line x1="50" y1="162.00000000000006" x2="45" y2="162.00000000000006" style="visibility: inherit;" fill="rgb(0, 0, 0)" stroke="rgb(204, 204, 204)" stroke-width="1px"></line><line x1="50" y1="135.00000000000003" x2="45" y2="135.00000000000003" style="visibility: inherit;" fill="rgb(0, 0, 0)" stroke="rgb(204, 204, 204)" stroke-width="1px"></line><line x1="50" y1="108.00000000000004" x2="45" y2="108.00000000000004" style="visibility: inherit;" fill="rgb(0, 0, 0)" stroke="rgb(204, 204, 204)" stroke-width="1px"></line><line x1="50" y1="81" x2="45" y2="81" style="visibility: inherit;" fill="rgb(0, 0, 0)" stroke="rgb(204, 204, 204)" stroke-width="1px"></line><line x1="50" y1="53.99999999999998" x2="45" y2="53.99999999999998" style="visibility: inherit;" fill="rgb(0, 0, 0)" stroke="rgb(204, 204, 204)" stroke-width="1px"></line><line x1="50" y1="27.00000000000003" x2="45" y2="27.00000000000003" style="visibility: inherit;" fill="rgb(0, 0, 0)" stroke="rgb(204, 204, 204)" stroke-width="1px"></line><line x1="50" y1="0" x2="45" y2="0" style="visibility: inherit;" fill="rgb(0, 0, 0)" stroke="rgb(204, 204, 204)" stroke-width="1px"></line></g><g transform="translate(40, 0)"><text x="0" y="378" dx="0em" dy="0.3em" style="text-anchor: end; visibility: hidden; font-family: Roboto, sans-serif; font-size: 12px; font-weight: 200;" fill="rgb(50, 49, 63)" stroke="none" stroke-width="1px">-0.2</text><text x="0" y="351" dx="0em" dy="0.3em" style="text-anchor: end; visibility: inherit; font-family: Roboto, sans-serif; font-size: 12px; font-weight: 200;" fill="rgb(50, 49, 63)" stroke="none" stroke-width="1px">0</text><text x="0" y="324" dx="0em" dy="0.3em" style="text-anchor: end; visibility: inherit; font-family: Roboto, sans-serif; font-size: 12px; font-weight: 200;" fill="rgb(50, 49, 63)" stroke="none" stroke-width="1px">0.2</text><text x="0" y="297" dx="0em" dy="0.3em" style="text-anchor: end; visibility: inherit; font-family: Roboto, sans-serif; font-size: 12px; font-weight: 200;" fill="rgb(50, 49, 63)" stroke="none" stroke-width="1px">0.4</text><text x="0" y="270" dx="0em" dy="0.3em" style="text-anchor: end; visibility: inherit; font-family: Roboto, sans-serif; font-size: 12px; font-weight: 200;" fill="rgb(50, 49, 63)" stroke="none" stroke-width="1px">0.6</text><text x="0" y="243.00000000000003" dx="0em" dy="0.3em" style="text-anchor: end; visibility: inherit; font-family: Roboto, sans-serif; font-size: 12px; font-weight: 200;" fill="rgb(50, 49, 63)" stroke="none" stroke-width="1px">0.8</text><text x="0" y="216.00000000000003" dx="0em" dy="0.3em" style="text-anchor: end; visibility: inherit; font-family: Roboto, sans-serif; font-size: 12px; font-weight: 200;" fill="rgb(50, 49, 63)" stroke="none" stroke-width="1px">1</text><text x="0" y="189" dx="0em" dy="0.3em" style="text-anchor: end; visibility: inherit; font-family: Roboto, sans-serif; font-size: 12px; font-weight: 200;" fill="rgb(50, 49, 63)" stroke="none" stroke-width="1px">1.2</text><text x="0" y="162.00000000000006" dx="0em" dy="0.3em" style="text-anchor: end; visibility: inherit; font-family: Roboto, sans-serif; font-size: 12px; font-weight: 200;" fill="rgb(50, 49, 63)" stroke="none" stroke-width="1px">1.4</text><text x="0" y="135.00000000000003" dx="0em" dy="0.3em" style="text-anchor: end; visibility: inherit; font-family: Roboto, sans-serif; font-size: 12px; font-weight: 200;" fill="rgb(50, 49, 63)" stroke="none" stroke-width="1px">1.6</text><text x="0" y="108.00000000000004" dx="0em" dy="0.3em" style="text-anchor: end; visibility: inherit; font-family: Roboto, sans-serif; font-size: 12px; font-weight: 200;" fill="rgb(50, 49, 63)" stroke="none" stroke-width="1px">1.8</text><text x="0" y="81" dx="0em" dy="0.3em" style="text-anchor: end; visibility: inherit; font-family: Roboto, sans-serif; font-size: 12px; font-weight: 200;" fill="rgb(50, 49, 63)" stroke="none" stroke-width="1px">2</text><text x="0" y="53.99999999999998" dx="0em" dy="0.3em" style="text-anchor: end; visibility: inherit; font-family: Roboto, sans-serif; font-size: 12px; font-weight: 200;" fill="rgb(50, 49, 63)" stroke="none" stroke-width="1px">2.2</text><text x="0" y="27.00000000000003" dx="0em" dy="0.3em" style="text-anchor: end; visibility: inherit; font-family: Roboto, sans-serif; font-size: 12px; font-weight: 200;" fill="rgb(50, 49, 63)" stroke="none" stroke-width="1px">2.4</text><text x="0" y="0" dx="0em" dy="0.3em" style="text-anchor: end; visibility: hidden; font-family: Roboto, sans-serif; font-size: 12px; font-weight: 200;" fill="rgb(50, 49, 63)" stroke="none" stroke-width="1px">2.6</text></g><line x1="50" y1="0" x2="50" y2="378" fill="rgb(0, 0, 0)" stroke="rgb(204, 204, 204)" stroke-width="1px"></line></g></g><g transform="translate(50, 0)" clip-path="url(#clip_0)"><clipPath id="clip_0"><rect width="1062" height="378"></rect></clipPath><g><g><g><line x1="0" y1="0" x2="0" y2="378" fill="rgb(0, 0, 0)" stroke="rgb(60, 60, 60)" stroke-width="1px" opacity="0.25"></line><line x1="75.87142857142857" y1="0" x2="75.87142857142857" y2="378" fill="rgb(0, 0, 0)" stroke="rgb(60, 60, 60)" stroke-width="1px" opacity="0.25"></line><line x1="151.74285714285713" y1="0" x2="151.74285714285713" y2="378" fill="rgb(0, 0, 0)" stroke="rgb(60, 60, 60)" stroke-width="1px" opacity="0.25"></line><line x1="227.6142857142857" y1="0" x2="227.6142857142857" y2="378" fill="rgb(0, 0, 0)" stroke="rgb(60, 60, 60)" stroke-width="1px" opacity="0.25"></line><line x1="303.48571428571427" y1="0" x2="303.48571428571427" y2="378" fill="rgb(0, 0, 0)" stroke="rgb(60, 60, 60)" stroke-width="1px" opacity="0.25"></line><line x1="379.3571428571429" y1="0" x2="379.3571428571429" y2="378" fill="rgb(0, 0, 0)" stroke="rgb(60, 60, 60)" stroke-width="1px" opacity="0.25"></line><line x1="455.2285714285714" y1="0" x2="455.2285714285714" y2="378" fill="rgb(0, 0, 0)" stroke="rgb(60, 60, 60)" stroke-width="1px" opacity="0.25"></line><line x1="531.1" y1="0" x2="531.1" y2="378" fill="rgb(0, 0, 0)" stroke="rgb(60, 60, 60)" stroke-width="1px" opacity="0.25"></line><line x1="606.9714285714285" y1="0" x2="606.9714285714285" y2="378" fill="rgb(0, 0, 0)" stroke="rgb(60, 60, 60)" stroke-width="1px" opacity="0.25"></line><line x1="682.8428571428573" y1="0" x2="682.8428571428573" y2="378" fill="rgb(0, 0, 0)" stroke="rgb(60, 60, 60)" stroke-width="1px" opacity="0.25"></line><line x1="758.7142857142858" y1="0" x2="758.7142857142858" y2="378" fill="rgb(0, 0, 0)" stroke="rgb(60, 60, 60)" stroke-width="1px" opacity="0.25"></line><line x1="834.5857142857143" y1="0" x2="834.5857142857143" y2="378" fill="rgb(0, 0, 0)" stroke="rgb(60, 60, 60)" stroke-width="1px" opacity="0.25"></line><line x1="910.4571428571428" y1="0" x2="910.4571428571428" y2="378" fill="rgb(0, 0, 0)" stroke="rgb(60, 60, 60)" stroke-width="1px" opacity="0.25"></line><line x1="986.3285714285715" y1="0" x2="986.3285714285715" y2="378" fill="rgb(0, 0, 0)" stroke="rgb(60, 60, 60)" stroke-width="1px" opacity="0.25"></line><line x1="1062.2" y1="0" x2="1062.2" y2="378" fill="rgb(0, 0, 0)" stroke="rgb(60, 60, 60)" stroke-width="1px" opacity="0.25"></line></g><g><line x1="0" y1="378" x2="1062.2" y2="378" fill="rgb(0, 0, 0)" stroke="rgb(60, 60, 60)" stroke-width="1px" opacity="0.25"></line><line x1="0" y1="351" x2="1062.2" y2="351" fill="rgb(0, 0, 0)" stroke="rgb(60, 60, 60)" stroke-width="1px" opacity="0.25"></line><line x1="0" y1="324" x2="1062.2" y2="324" fill="rgb(0, 0, 0)" stroke="rgb(60, 60, 60)" stroke-width="1px" opacity="0.25"></line><line x1="0" y1="297" x2="1062.2" y2="297" fill="rgb(0, 0, 0)" stroke="rgb(60, 60, 60)" stroke-width="1px" opacity="0.25"></line><line x1="0" y1="270" x2="1062.2" y2="270" fill="rgb(0, 0, 0)" stroke="rgb(60, 60, 60)" stroke-width="1px" opacity="0.25"></line><line x1="0" y1="243.00000000000003" x2="1062.2" y2="243.00000000000003" fill="rgb(0, 0, 0)" stroke="rgb(60, 60, 60)" stroke-width="1px" opacity="0.25"></line><line x1="0" y1="216.00000000000003" x2="1062.2" y2="216.00000000000003" fill="rgb(0, 0, 0)" stroke="rgb(60, 60, 60)" stroke-width="1px" opacity="0.25"></line><line x1="0" y1="189" x2="1062.2" y2="189" fill="rgb(0, 0, 0)" stroke="rgb(60, 60, 60)" stroke-width="1px" opacity="0.25"></line><line x1="0" y1="162.00000000000006" x2="1062.2" y2="162.00000000000006" fill="rgb(0, 0, 0)" stroke="rgb(60, 60, 60)" stroke-width="1px" opacity="0.25"></line><line x1="0" y1="135.00000000000003" x2="1062.2" y2="135.00000000000003" fill="rgb(0, 0, 0)" stroke="rgb(60, 60, 60)" stroke-width="1px" opacity="0.25"></line><line x1="0" y1="108.00000000000004" x2="1062.2" y2="108.00000000000004" fill="rgb(0, 0, 0)" stroke="rgb(60, 60, 60)" stroke-width="1px" opacity="0.25"></line><line x1="0" y1="81" x2="1062.2" y2="81" fill="rgb(0, 0, 0)" stroke="rgb(60, 60, 60)" stroke-width="1px" opacity="0.25"></line><line x1="0" y1="53.99999999999998" x2="1062.2" y2="53.99999999999998" fill="rgb(0, 0, 0)" stroke="rgb(60, 60, 60)" stroke-width="1px" opacity="0.25"></line><line x1="0" y1="27.00000000000003" x2="1062.2" y2="27.00000000000003" fill="rgb(0, 0, 0)" stroke="rgb(60, 60, 60)" stroke-width="1px" opacity="0.25"></line><line x1="0" y1="0" x2="1062.2" y2="0" fill="rgb(0, 0, 0)" stroke="rgb(60, 60, 60)" stroke-width="1px" opacity="0.25"></line></g></g></g><g><g><line x1="0" y1="351" x2="1062.2" y2="351" fill="rgb(0, 0, 0)" stroke="rgb(153, 153, 153)" stroke-width="1.5px"></line></g></g><g><g><line x1="75.87142857142857" y1="0" x2="75.87142857142857" y2="378" fill="rgb(0, 0, 0)" stroke="rgb(153, 153, 153)" stroke-width="1.5px"></line></g></g><g><g><g><g><g><path stroke="rgb(0, 119, 187)" stroke-width="2px" d="M77.38885714285715,34.3066463470459L78.90628571428572,36.58139562606814L80.4237142857143,39.050211157117616L81.94114285714285,41.67198801040648L83.45857142857143,44.03624360792098L84.976,44.64279576710292L86.49342857142858,49.58828189804802L88.01085714285713,50.05538034439086L89.52828571428572,55.007175351308994L91.0457142857143,51.81759543013361L92.56314285714286,53.139863347098746L94.08057142857143,62.32236220286443L95.598,70.60097031255096L97.11542857142858,73.65938390416774L98.63285714285715,89.17513842343614L100.15028571428573,86.30894713610253L101.66771428571428,85.24970125162686L103.18514285714286,87.61976186042341L104.70257142857143,103.9949954931688L106.22000000000001,94.21094522530767L107.73742857142857,100.27876021546707L109.25485714285715,100.62890556896507L110.77228571428572,104.49342954254828L112.2897142857143,118.84033390015132L113.80714285714285,128.09753199255942L115.32457142857143,132.02806178544L116.842,125.42300894809993L118.35942857142858,119.88738262058055L119.87685714285715,125.99211842661119L121.39428571428572,137.3372918813042L122.9117142857143,148.48636469012175L124.42914285714286,150.8047610366064L125.94657142857145,145.19580440871775L127.464,153.05540826541667L128.98142857142858,151.25273676023843L130.49885714285716,162.18971136876942L132.01628571428571,172.1957560364587L133.5337142857143,172.31252847036677L135.05114285714285,159.2511628762691L136.56857142857143,164.2365069337636L138.086,156.69652366379307L139.60342857142857,151.8512371169487L141.12085714285715,170.37959667975713L142.63828571428573,180.2332723584529L144.15571428571428,196.3355394227686L145.67314285714286,194.8722043446393L147.19057142857142,201.40474202293618L148.70800000000003,189.84886635372268L150.22542857142858,190.4600952318769L151.74285714285713,202.04864987986596L153.26028571428574,210.10406158992308L154.7777142857143,194.4284424117638L156.29514285714285,193.5535320903576L157.81257142857143,189.76751331814708L159.33,191.2481971598098L160.8474285714286,202.68553195478668L162.36485714285715,204.82882546425932L163.8822857142857,193.91145658016742L165.3997142857143,205.40529736638337L168.43457142857142,215.16005761802333L169.952,201.56506559938265L171.46942857142858,207.4585890655223L172.98685714285716,209.62556021831946L174.50428571428571,216.79384481620056L176.02171428571427,216.95102923965086L177.53914285714288,225.09133189844903L179.05657142857143,217.88583728635223L180.574,211.61453877371505L182.0914285714286,208.3013648315368L183.60885714285715,211.30822470407176L185.12628571428573,214.20301301588862L186.64371428571428,223.6313938563578L188.16114285714286,227.00798541632852L189.67857142857144,223.81496790214163L191.196,229.9113081850796L192.71342857142858,229.66416326950934L194.23085714285716,237.25441338514756L195.74828571428571,235.61125774132944L197.2657142857143,233.16350487345326L198.78314285714285,224.04217781361874L200.30057142857146,237.2593297448602L201.818,222.25804505183535L203.33542857142857,225.66076742328323L204.85285714285715,242.7459960814174L206.37028571428573,258.77445996979156L207.88771428571428,240.63826445330818L209.40514285714286,239.2027867316685L210.92257142857144,237.70263811347294L212.44000000000003,241.86260355709697L213.95742857142858,223.5637911617692L215.47485714285713,231.03263721167718L216.99228571428574,239.77481018155655L218.5097142857143,244.470763140171L220.02714285714288,230.78264876864813L221.54457142857143,235.0383865369482L223.062,238.22511509722094L224.5794285714286,243.5665379050653L226.09685714285715,243.03713389651378L227.6142857142857,250.5305833340506L229.1317142857143,249.64235431556008L230.64914285714286,245.6502083569969L232.16657142857144,241.27611166388814L233.684,244.08852121308954L235.20142857142858,248.22176410295324L236.71885714285716,252.24011505413932L238.2362857142857,241.08677491927585L239.7537142857143,246.27892594230394L241.27114285714288,253.83085870093217L242.78857142857143,246.308777329058L244.306,256.4720867855999L245.8234285714286,243.8588867775427L247.34085714285715,245.8043120201343L248.85828571428573,237.5349625198004L250.37571428571428,235.38308932622058L251.8931428571429,241.12112502376132L253.41057142857144,234.44522984882144L254.928,246.32046468088996L256.4454285714286,243.3793533495564L259.4802857142857,249.671246024544L260.9977142857143,264.006988839594L262.51514285714285,261.71049798343955L264.03257142857143,257.64354378389504L265.55,255.37247795068814L267.0674285714286,256.5371860275845L268.5848571428571,262.1516350810816L270.1022857142857,265.3916112336064L271.61971428571434,273.42201314134127L273.13714285714286,260.1970420666671L274.65457142857144,257.196264961766L276.172,259.63622116019667L277.6894285714286,248.3056175657627L279.20685714285713,248.51766469818938L280.7242857142857,263.60633079579765L282.2417142857143,251.85068403865546L283.7591428571429,258.1262527961813L285.27657142857146,252.80786900020053L286.79400000000004,258.5737249468586L288.31142857142856,262.5603685187708L289.82885714285715,268.03965409633565L291.3462857142857,260.215636621103L292.86371428571425,258.1020812144802L294.38114285714283,265.3456447298788L295.8985714285715,268.40901068724514L297.41600000000005,257.5906379415458L298.9334285714286,258.61423904666634L300.45085714285716,264.3971596706377L301.96828571428574,257.42719288411075L303.48571428571427,253.96156967551678L305.00314285714285,254.02624580696806L306.5205714285715,256.63747553743707L308.038,244.32268148023783L309.5554285714286,259.4890311924562L311.0728571428572,247.15487292249725L312.5902857142857,258.7834124110129L314.1077142857143,262.84396002401843L315.62514285714286,255.1104726677633L317.14257142857144,264.2987134995807L318.66,270.02311142994705L320.1774285714286,262.29406629360585L321.6948571428572,261.54505287784775L323.2122857142857,263.17260732838736L324.7297142857143,265.34354476426654L326.2471428571429,275.5658216987779L327.7645714285714,259.18058913522617L329.28200000000004,265.1903581002039L330.7994285714286,261.55996575845694L332.31685714285715,273.636239200301L333.8342857142857,270.80097605261557L335.3517142857143,272.0961119009721L336.86914285714283,281.4007119274968L338.3865714285714,269.16755534891456L339.904,268.9728359067647L341.42142857142863,272.6351017397746L342.93885714285716,274.65816682786266L344.45628571428574,266.7927207659211L345.9737142857143,261.91319941036534L347.49114285714285,276.54940525468504L350.526,281.43725783018425L352.04342857142854,273.6730178017823L353.5608571428572,280.51592511035045L355.07828571428576,276.6388265197329L356.5957142857143,283.92849914753697L358.11314285714286,274.6898084805621L359.63057142857144,280.5219232552356L361.148,281.2641823347959L362.66542857142855,267.24847781939076L364.1828571428572,264.4826504304149L365.70028571428577,243.38818402658592L367.2177142857143,259.3094976622397L368.7351428571429,268.7824254969028L370.25257142857146,266.19810836212173L371.77,272.41153773017896L373.28742857142856,272.87988812897686L374.80485714285714,262.4438657222891L376.3222857142857,250.30469712906603L377.8397142857143,261.7602481111563L379.3571428571429,275.95277350468814L380.87457142857147,276.98005684874147L382.392,269.3288182450418L383.9094285714286,279.5742048985305L385.42685714285716,271.0921902838619L386.94428571428574,266.80371994690455L388.4617142857143,285.3342348382689L389.9791428571429,283.2636012457717L391.49657142857143,282.84773391599003L393.014,277.75629022774376L394.5314285714286,281.98819205193354L396.0488571428571,261.9048165829412L397.5662857142857,269.0266849175807L399.08371428571434,262.22379680353976L400.6011428571429,267.0498639438479L402.11857142857144,254.4166906522676L403.636,250.92087325687032L405.1534285714286,260.20679326472094L406.67085714285713,263.10841087310223L408.1882857142857,270.6388447175856L409.7057142857143,272.6452339237151L411.2231428571429,277.95012718167L412.74057142857146,252.10087767107336L414.25800000000004,265.3809468292348L415.77542857142856,269.0732806396063L417.29285714285714,285.67789897678176L418.8102857142857,273.0839988160028L420.3277142857143,272.8512162053533L421.8451428571429,267.51736376106476L423.36257142857147,278.38865620106327L424.88000000000005,278.30653914913466L426.3974285714286,280.65496273390914L427.91485714285716,279.4808750527723L429.43228571428574,258.9939673134498L430.94971428571426,250.29321680410763L432.46714285714285,251.77613519601056L433.9845714285715,265.14305799688907L435.502,266.5868173812132L437.0194285714286,264.1206837879767L438.5368571428572,277.8837114715154L441.5717142857143,279.4254373383311L443.08914285714286,294.30902999996084L444.6065714285715,289.6372971850581L446.124,288.91244195490816L447.6414285714286,282.27989747419826L449.1588571428572,284.5995492006087L450.6762857142857,286.6804040652883L452.1937142857143,283.27072286518273L453.7111428571429,287.4316581334266L455.2285714285714,280.44373198576733L456.74600000000004,277.51361618552585L458.2634285714286,283.45367804722974L459.7808571428572,284.2812321660767L461.2982857142857,278.4645300446873L462.8157142857143,288.9959592341843L464.3331428571429,291.6800503343077L465.8505714285714,283.26206232158995L467.368,278.8639283232324L468.88542857142863,283.5863908704337L470.40285714285716,298.84268999975006L471.92028571428574,295.5568030073299L473.4377142857143,277.3860895730085L474.95514285714285,283.8142415482316L476.4725714285714,289.4545103708165L477.99,288.31839386121715L479.5074285714286,285.25355775900823L481.0248571428572,281.1446499613332L482.54228571428575,274.8110199167037L484.05971428571434,271.61444444426417L485.57714285714286,278.53491154794153L487.09457142857144,271.2001523548576L488.612,283.83844573171007L490.12942857142855,288.42818920746976L491.6468571428572,281.35152255960077L493.16428571428577,276.56091278527066L494.6817142857143,277.20372056828876L496.1991428571429,285.4061981880016L497.71657142857146,273.72644635256864L499.234,277.29143593816326L500.75142857142856,278.4463742877462L502.2688571428572,291.6220752698888L503.7862857142858,279.42358428749986L505.3037142857143,286.77515097217537L506.8211428571429,291.05530239024154L508.33857142857147,289.1163859411001L509.856,272.47090330938096L511.3734285714286,278.39052489508987L512.8908571428572,278.41959117407504L514.4082857142857,284.8707439976677L515.9257142857143,278.726721260833L517.4431428571429,283.19849717810115L518.9605714285714,285.9716121564029L520.4780000000001,285.9157433514654L521.9954285714286,286.41008935892876L523.5128571428572,283.5040648208275L525.0302857142857,287.6322292797871L526.5477142857143,285.375465905324L528.0651428571429,284.82137601358465L529.5825714285714,298.0745212077238L532.6174285714286,290.540880930381L534.1348571428572,292.2556343585039L535.6522857142858,293.1372153267157L537.1697142857142,290.94326049610436L538.6871428571428,296.39695766828686L540.2045714285714,293.5232653183849L541.722,286.5953928015188L543.2394285714287,299.045818019984L544.7568571428573,291.1395844464887L546.2742857142857,284.69874025610034L547.7917142857143,271.0092580677417L549.3091428571429,283.16350867158906L550.8265714285715,290.4225185305215L552.344,296.56095976086146L553.8614285714286,302.1861150138164L555.3788571428572,299.9970319803846L556.8962857142857,290.20644429009616L558.4137142857143,281.98235739609333L559.9311428571428,285.3134479887323L561.4485714285714,288.71169963812014L562.966,285.75183041560246L564.4834285714286,280.19247315162215L566.0008571428571,276.24320520874755L567.5182857142858,293.83374976573833L569.0357142857143,294.5462636324686L570.5531428571429,284.7685662792585L572.0705714285715,287.0623722665738L573.5880000000001,284.5064729746794L575.1054285714287,285.39031003398776L576.6228571428571,291.2525129838938L578.1402857142857,265.35530975084276L579.6577142857143,266.875106824541L581.1751428571429,268.9248836999654L582.6925714285715,291.9058248433232L584.21,278.61380461021065L585.7274285714285,290.4887481488973L587.2448571428571,293.94883041869554L588.7622857142857,292.8256361747332L590.2797142857144,296.3950204682622L591.797142857143,300.3193731075661L593.3145714285715,296.1136227133938L594.8320000000001,284.62346389308914L596.3494285714286,274.63804940588943L597.8668571428572,283.37778829638L599.3842857142857,289.7578902498078L600.9017142857143,284.45413495377665L602.4191428571429,294.5073644135195L603.9365714285715,284.16775591243294L605.454,296.08429229790465L606.9714285714285,285.23743739989646L608.4888571428571,272.73683248593034L610.0062857142857,268.0112250379405L611.5237142857143,272.28952791947535L613.041142857143,284.8371020836552L614.5585714285716,288.35597954605623L616.076,288.72637330698274L617.5934285714286,288.03226898216855L619.1108571428572,275.703235944627L620.6282857142858,279.80018056458147L623.6631428571429,273.73150519046146L625.1805714285714,287.99247904376665L626.698,292.8935594347938L628.2154285714286,297.0457761778347L629.7328571428571,291.0357445425745L631.2502857142857,293.2886422697184L632.7677142857143,296.8718229295551L634.2851428571429,297.77802478083663L635.8025714285715,294.40613740090873L637.32,283.9836327702023L638.8374285714286,286.1095786377896L640.3548571428572,295.2099913798327L641.8722857142858,298.9129885058877L643.3897142857144,300.47325348463045L644.9071428571428,309.4111610780477L646.4245714285714,309.63686490706203L647.942,306.8937234612882L649.4594285714286,293.78558795315917L650.9768571428572,303.11309971741287L652.4942857142858,311.7219880935125L654.0117142857143,302.07379422170783L655.5291428571428,295.83527325383255L657.0465714285714,296.7687809705309L658.5640000000001,309.13503274766464L660.0814285714287,302.0731842093063L661.5988571428572,285.3228466298378L663.1162857142858,293.48658229838793L664.6337142857143,289.29804638987275L666.1511428571429,291.6912495690857L667.6685714285715,297.1941202977436L669.186,280.2398890604147L670.7034285714286,292.1313091094081L672.2208571428572,289.7320915547403L673.7382857142857,294.236082900931L675.2557142857142,277.51753371425946L676.7731428571428,287.6581728581016L678.2905714285714,290.93473430590944L679.808,289.26240534641903L681.3254285714287,291.0581336521037L682.8428571428573,295.83012686187664L684.3602857142857,287.2476675709816L685.8777142857143,269.62700308366277L687.3951428571429,282.2323724230312L688.9125714285715,293.2433900336515L690.4300000000001,296.9582346429473L691.9474285714286,286.5191957826438L693.4648571428571,290.953442135206L694.9822857142857,294.7169640852765L696.4997142857143,299.5912415183463L698.0171428571429,292.4289573479135L699.5345714285714,303.1661222303132L701.052,303.94796230019233L702.5694285714286,293.78077625543426L704.0868571428571,285.48029261485016L705.6042857142858,289.40387946196034L707.1217142857143,296.3933845004819L708.6391428571429,301.9312802325379L710.1565714285715,294.6564785128182L711.6740000000001,311.1296102943691L714.7088571428571,303.4505775393383L716.2262857142857,304.32062523669686L717.7437142857143,295.59309970888836L719.2611428571429,302.2704760112034L720.7785714285715,307.2873465705746L722.296,302.0028388047632L723.8134285714285,300.8408806544749L725.3308571428571,299.2658092042907L726.8482857142857,292.42887760505596L728.3657142857144,296.3941516792055L729.883142857143,293.40257308956365L731.4005714285715,298.7984382265626L732.918,305.3952512767821L734.4354285714286,295.4310522092834L735.9528571428572,301.68951331145837L737.4702857142858,302.55526991967L738.9877142857143,296.40887592377084L740.5051428571429,292.6122690495939L742.0225714285715,295.88207075283384L743.54,296.8347926452033L745.0574285714285,296.3707925684389L746.5748571428571,294.6843848082987L748.0922857142857,289.3143155204042L749.6097142857143,291.4830224030606L751.127142857143,293.9585350659188L752.6445714285715,287.25674685372394L754.162,297.12195889420053L755.6794285714286,288.1834029767252L757.1968571428572,287.9738725827802L758.7142857142858,294.528512021237L760.2317142857144,282.1578659218219L761.7491428571429,293.03475770859256L763.2665714285714,292.0363787288881L764.784,308.32803057260395L766.3014285714286,295.6442923477644L767.8188571428572,294.0511562790153L769.3362857142857,296.3285627199052L770.8537142857143,294.8046229696691L772.3711428571428,294.1506448644608L773.8885714285715,297.4381544122204L775.4060000000001,296.2977520887606L776.9234285714286,291.4211228670951L778.4408571428572,297.0049272866188L779.9582857142858,299.2935793594091L781.4757142857144,295.9111164309367L782.9931428571429,290.31636560448925L784.5105714285714,294.3333547586646L786.028,292.5320852485521L787.5454285714286,297.8951139642409L789.0628571428572,298.97592688568494L790.5802857142858,298.1382740337057L792.0977142857142,301.0738892802796L793.6151428571428,307.66147199020793L795.1325714285714,293.83509267740453L796.6500000000001,292.55868596520526L798.1674285714287,294.20603448493534L799.6848571428573,301.7274877446058L801.2022857142858,283.0541095444144L802.7197142857143,294.29632712943265L805.7545714285715,297.6725557225094L807.272,302.60080331947137L808.7894285714286,302.4174198527422L810.3068571428572,305.5052461782737L811.8242857142857,298.6891242195985L813.3417142857143,297.7015530283164L814.8591428571428,310.5637491029953L816.3765714285714,305.59554566355826L817.894,306.863602228027L819.4114285714286,286.93165073149476L820.9288571428573,278.9551914500846L822.4462857142858,290.7144583695955L823.9637142857143,303.1472648945365L825.4811428571429,308.3632571680801L826.9985714285715,304.78329652465663L828.5160000000001,303.92507739324014L830.0334285714287,289.73348162302693L831.5508571428571,290.1088119930492L833.0682857142857,291.306542107784L834.5857142857143,295.73902748988235L836.1031428571429,298.4767237999348L837.6205714285715,298.5174500096991L839.138,291.78800663596166L840.6554285714286,301.2480876457978L842.1728571428571,297.358160824194L843.6902857142858,287.203606054492L845.2077142857144,277.5241770075297L846.7251428571429,276.7942571305502L848.2425714285715,288.7728472184771L849.7600000000001,288.45190491436097L851.2774285714286,284.03698490141915L852.7948571428572,286.57136399089836L854.3122857142857,299.99591869383823L855.8297142857143,303.006624893694L857.3471428571429,296.6265228769922L858.8645714285715,296.256098497994L860.3820000000001,297.620841691438L861.8994285714285,295.6468708264548L863.4168571428571,293.5768335336307L864.9342857142857,300.76682760684986L866.4517142857144,304.80610507413394L867.969142857143,302.35555481754074L869.4865714285716,300.9098483763254L871.004,292.94514346828646L872.5214285714286,301.888709638072L874.0388571428572,301.20903806564854L875.5562857142858,299.276438840616L877.0737142857143,297.1608133357705L878.5911428571429,296.4247087559075L880.1085714285715,294.3793330351994L881.626,304.07097048364506L883.1434285714286,303.0508524070304L884.6608571428571,304.2186760400793L886.1782857142857,297.4436456757318L887.6957142857143,304.2585837045079L889.213142857143,305.59081151081944L890.7305714285715,298.15378690756273L892.248,298.65972564119556L893.7654285714286,309.5416526446663L896.8002857142858,302.77317623545343L898.3177142857144,302.62865491832105L899.835142857143,304.7589210377376L901.3525714285714,308.0284255646785L902.87,305.2973877888481L904.3874285714286,305.6057805618425L905.9048571428572,297.45815515025356L907.4222857142857,306.35566416136373L908.9397142857143,302.8969520020085L910.4571428571428,304.5286961787739L911.9745714285714,294.5870184895296L913.4920000000001,302.1181315480123L915.0094285714287,305.45935523502277L916.5268571428572,308.1543731093022L918.0442857142858,307.625501155834L919.5617142857144,306.0707503110074L921.0791428571429,302.08422110229253L922.5965714285715,292.55932565405726L924.114,299.65752572752416L925.6314285714286,308.08343294728485L927.1488571428572,306.24391083652125L928.6662857142858,302.40987067786034L930.1837142857142,304.7574603377142L931.7011428571428,312.64037287078094L933.2185714285714,306.83138413648703L934.736,292.0685734819417L936.2534285714287,296.57751404101873L937.7708571428573,296.90321385291827L939.2882857142857,301.4085869760693L940.8057142857143,305.82593288875523L942.3231428571429,296.2914126508281L943.8405714285715,301.02009780669437L945.3580000000001,301.9998069776308L946.8754285714286,299.1942197716838L948.3928571428572,289.4815396386686L949.9102857142857,293.134117410496L951.4277142857143,299.343679644622L952.9451428571429,288.9528610596844L954.4625714285714,291.0357969199512L955.98,309.31478149170147L957.4974285714286,303.7563349926197L959.0148571428572,296.10589093087737L960.5322857142858,303.9338605707815L962.0497142857143,308.3639097812738L963.5671428571429,309.8826899231953L965.0845714285715,300.44496572025037L966.6020000000001,300.9263831973444L968.1194285714287,300.9119917303508L969.6368571428571,305.4985791668388L971.1542857142857,306.42299477383955L972.6717142857143,295.4238364603394L974.1891428571429,301.1241140766081L975.7065714285715,310.3116264767019L977.224,304.6793900642081L978.7414285714285,297.5327944414459L980.2588571428571,307.04684467398334L981.7762857142858,301.6108090047201L983.2937142857144,298.0486557366531L984.811142857143,308.5544094608267" style="fill: none;" fill="none"></path></g></g></g></g><g opacity="0.2"><g><g><g><path stroke="rgb(0, 119, 187)" stroke-width="2px" d="M77.38885714285715,34.3066463470459L78.90628571428572,37.71877026557922L80.4237142857143,40.90182280540468L81.94114285714285,43.966042757034295L83.45857142857143,46.25273323059084L84.976,45.23039317131044L86.49342857142858,54.456494808197014L88.01085714285713,50.5188295841217L89.52828571428572,59.93962740898131L91.0457142857143,48.63424515724181L92.56314285714286,54.46083998680117L94.08057142857143,71.50037741661075L95.598,78.87755727767947L97.11542857142858,76.71742415428163L98.63285714285715,104.689945936203L100.15028571428573,83.44284331798553L101.66771428571428,84.19047152996065L103.18514285714286,89.98980438709259L104.70257142857143,120.37016665935519L106.22000000000001,84.42691361904146L107.73742857142857,106.34656941890718L109.25485714285715,100.9790507555008L110.77228571428572,108.35795259475712L112.2897142857143,133.18723654747012L113.80714285714285,137.35472953319552L115.32457142857143,135.95859146118167L116.842,118.81795620918278L118.35942857142858,114.35175633430485L119.87685714285715,132.09685420989993L121.39428571428572,148.68246531486517L122.9117142857143,159.63543748855594L124.42914285714286,153.12315738201144L125.94657142857145,139.58684778213504L127.464,160.9150121212006L128.98142857142858,149.45006525516513L130.49885714285716,173.12668597698215L132.01628571428571,182.2018007040024L133.5337142857143,172.42930090427402L135.05114285714285,146.189797282219L136.56857142857143,169.2218509912491L138.086,149.15654039382937L139.60342857142857,147.00595057010653L141.12085714285715,188.90795624256134L142.63828571428573,190.08694803714755L144.15571428571428,212.43780648708346L145.67314285714286,193.40886926651L147.19057142857142,207.9372797012329L148.70800000000003,178.2929906845093L150.22542857142858,191.07132411003113L151.74285714285713,213.63720452785495L153.26028571428574,218.15947329998016L154.7777142857143,178.75282323360446L156.29514285714285,192.67862176895144L157.81257142857143,185.9814945459366L159.33,192.7288810014725L160.8474285714286,214.12286674976352L162.36485714285715,206.97211897373202L163.8822857142857,182.99408769607547L165.3997142857143,216.89913815259936L168.43457142857142,224.91481786966327L169.952,187.9700735807419L171.46942857142858,213.35211253166202L172.98685714285716,211.79253137111667L174.50428571428571,223.9621294140816L176.02171428571427,217.10821366310125L177.53914285714288,233.2316345572472L179.05657142857143,210.68034267425537L180.574,205.3432402610779L182.0914285714286,204.98819088935855L183.60885714285715,214.31508457660675L185.12628571428573,217.0978013277054L186.64371428571428,233.05977469682693L188.16114285714286,230.38457697629931L189.67857142857144,220.6219503879547L191.196,236.00764846801758L192.71342857142858,229.41701835393908L194.23085714285716,244.84466350078583L195.74828571428571,233.96810209751132L197.2657142857143,230.7157520055771L198.78314285714285,214.92085075378418L200.30057142857146,250.47648167610168L201.818,207.25676035881045L203.33542857142857,229.0634897947312L204.85285714285715,259.83122473955154L206.37028571428573,274.80292385816574L207.88771428571428,222.5020689368248L209.40514285714286,237.76730901002884L210.92257142857144,236.20248949527743L212.44000000000003,246.022569000721L213.95742857142858,205.26497876644137L215.47485714285713,238.5014832615853L216.99228571428574,248.51698315143588L218.5097142857143,249.16671609878546L220.02714285714288,217.09453439712527L221.54457142857143,239.29412430524826L223.062,241.41184365749362L224.5794285714286,248.9079607129097L226.09685714285715,242.50772988796237L227.6142857142857,258.0240327715874L229.1317142857143,248.7541252970696L230.64914285714286,241.6580623984337L232.16657142857144,236.90201497077945L233.684,246.900930762291L235.20142857142858,252.35500699281695L236.71885714285716,256.2584660053253L238.2362857142857,229.93343478441238L239.7537142857143,251.47107696533206L241.27114285714288,261.3827914595604L242.78857142857143,238.78669595718387L244.306,266.6353962421417L245.8234285714286,231.24568676948553L247.34085714285715,247.74973726272586L248.85828571428573,229.26561301946643L250.37571428571428,233.23121613264087L251.8931428571429,246.85916072130206L253.41057142857144,227.7693346738816L254.928,258.1956995129585L256.4454285714286,240.43824201822284L259.4802857142857,255.96313869953158L260.9977142857143,278.342731654644L262.51514285714285,259.41400712728506L264.03257142857143,253.57658958435061L265.55,253.10141211748123L267.0674285714286,257.70189410448074L268.5848571428571,267.7660841345787L270.1022857142857,268.6315873861313L271.61971428571434,281.4524150490761L273.13714285714286,246.972070991993L274.65457142857144,254.19548785686493L276.172,262.0761773586273L277.6894285714286,236.97501397132876L279.20685714285713,248.72971183061603L280.7242857142857,278.6949968934059L282.2417142857143,240.09503728151324L283.7591428571429,264.4018215537072L285.27657142857146,247.48948520421987L286.79400000000004,264.3395808935166L288.31142857142856,266.54701209068304L289.82885714285715,273.5189396739006L291.3462857142857,252.39161914587024L292.86371428571425,255.9885258078575L294.38114285714283,272.5892082452774L295.8985714285715,271.47237664461136L297.41600000000005,246.77226519584656L298.9334285714286,259.6378401517868L300.45085714285716,270.18008029460907L301.96828571428574,250.45722609758377L303.48571428571427,250.49594646692276L305.00314285714285,254.09092193841934L306.5205714285715,259.2487052679062L308.038,232.0078874230385L309.5554285714286,274.65538090467453L311.0728571428572,234.82071465253833L312.5902857142857,270.4119518995285L314.1077142857143,266.9045076370239L315.62514285714286,247.37698531150818L317.14257142857144,273.48695433139807L318.66,275.7475093603134L320.1774285714286,254.5650211572647L321.6948571428572,260.79603946208954L323.2122857142857,264.8001617789269L324.7297142857143,267.5144822001457L326.2471428571429,285.78809863328934L327.7645714285714,242.7953565716744L329.28200000000004,271.20012706518173L330.7994285714286,257.9295734167099L332.31685714285715,285.7125126421452L333.8342857142857,267.9657129049301L335.3517142857143,273.3912477493286L336.86914285714283,290.7053119540215L338.3865714285714,256.93439877033234L339.904,268.77811646461487L341.42142857142863,276.2973675727844L342.93885714285716,276.6812319159508L344.45628571428574,258.9272747039795L345.9737142857143,257.0336780548096L347.49114285714285,291.18561109900475L350.526,286.3251104056835L352.04342857142854,265.90877777338034L353.5608571428572,287.35883241891867L355.07828571428576,272.7617279291153L356.5957142857143,291.21817177534103L358.11314285714286,265.4511178135872L359.63057142857144,286.35403802990913L361.148,282.00644141435623L362.66542857142855,253.23277330398562L364.1828571428572,261.7168230414391L365.70028571428577,222.29371762275696L367.2177142857143,275.2308112978935L368.7351428571429,278.25535333156586L370.25257142857146,263.6137912273407L371.77,278.6249670982361L373.28742857142856,273.3482385277748L374.80485714285714,252.00784331560138L376.3222857142857,238.16552853584292L377.8397142857143,273.2157990932465L379.3571428571429,290.1452988982201L380.87457142857147,278.0073401927948L382.392,261.67757964134216L383.9094285714286,289.8195915520192L385.42685714285716,262.61017566919327L386.94428571428574,262.51524960994726L388.4617142857143,303.86474972963333L389.9791428571429,281.1929676532746L391.49657142857143,282.4318665862084L393.014,272.6648465394974L394.5314285714286,286.2200938761234L396.0488571428571,241.82144111394885L397.5662857142857,276.14855325222015L399.08371428571434,255.42090868949893L400.6011428571429,271.87593108415604L402.11857142857144,241.78351736068726L403.636,247.42505586147308L405.1534285714286,269.49271327257156L406.67085714285713,266.01002848148346L408.1882857142857,278.16927856206894L409.7057142857143,274.65162312984467L411.2231428571429,283.25502043962484L412.74057142857146,226.2516281604767L414.25800000000004,278.66101598739624L415.77542857142856,272.7656144499779L417.29285714285714,302.2825173139572L418.8102857142857,260.49009865522385L420.3277142857143,272.6184335947037L421.8451428571429,262.1835113167763L423.36257142857147,289.25994864106184L424.88000000000005,278.2244220972061L426.3974285714286,283.0033863186836L427.91485714285716,278.30678737163544L429.43228571428574,238.50705957412725L430.94971428571426,241.59246629476547L432.46714285714285,253.25905358791357L433.9845714285715,278.50998079776764L435.502,268.03057676553726L437.0194285714286,261.6545501947403L438.5368571428572,291.6467391550541L441.5717142857143,280.9671632051468L443.08914285714286,309.1926226615906L444.6065714285715,284.96556437015533L446.124,288.18758672475815L447.6414285714286,275.64735299348837L449.1588571428572,286.9192009270191L450.6762857142857,288.7612589299679L452.1937142857143,279.8610416650772L453.7111428571429,291.5925934016705L455.2285714285714,273.4558058381081L456.74600000000004,274.5835003852844L458.2634285714286,289.39373990893364L459.7808571428572,285.10878628492355L461.2982857142857,272.6478279232979L462.8157142857143,299.52738842368126L464.3331428571429,294.3641414344311L465.8505714285714,274.8440743088722L467.368,274.46579432487493L468.88542857142863,288.30885341763496L470.40285714285716,314.09898912906647L471.92028571428574,292.27091601490974L473.4377142857143,259.21537613868713L474.95514285714285,290.2423935234547L476.4725714285714,295.09477919340134L477.99,287.18227735161787L479.5074285714286,282.1887216567993L481.0248571428572,277.0357421636582L482.54228571428575,268.4773898720741L484.05971428571434,268.41786897182465L485.57714285714286,285.45537865161896L487.09457142857144,263.86539316177374L488.612,296.4767391085625L490.12942857142855,293.0179326832295L491.6468571428572,274.2748559117317L493.16428571428577,271.77030301094055L494.6817142857143,277.8465283513069L496.1991428571429,293.60867580771446L497.71657142857146,262.0466945171356L499.234,280.85642552375793L500.75142857142856,279.6013126373291L502.2688571428572,304.7977762520313L503.7862857142858,267.225093305111L505.3037142857143,294.1267176568509L506.8211428571429,295.3354538083077L508.33857142857147,287.1774694919586L509.856,255.82542067766192L511.3734285714286,284.3101464807987L512.8908571428572,278.44865745306015L514.4082857142857,291.32189682126045L515.9257142857143,272.58269852399826L517.4431428571429,287.67027309536934L518.9605714285714,288.7447271347046L520.4780000000001,285.8598745465279L521.9954285714286,286.9044353663922L523.5128571428572,280.5980402827263L525.0302857142857,291.76039373874664L526.5477142857143,283.1187025308609L528.0651428571429,284.26728612184525L529.5825714285714,311.3276664018631L532.6174285714286,283.0072406530381L534.1348571428572,293.9703877866268L535.6522857142858,294.01879629492765L537.1697142857142,288.74930566549307L538.6871428571428,301.85065484046936L540.2045714285714,290.64957296848297L541.722,279.6675202846527L543.2394285714287,311.4962432384491L544.7568571428573,283.23335087299347L546.2742857142857,278.257896065712L547.7917142857143,257.3197758793831L549.3091428571429,295.3177592754364L550.8265714285715,297.6815283894539L552.344,302.6994009912014L553.8614285714286,307.8112702667714L555.3788571428572,297.8079489469528L556.8962857142857,280.41585659980774L558.4137142857143,273.75827050209045L559.9311428571428,288.64453858137136L561.4485714285714,292.10995128750807L562.966,282.7919611930848L564.4834285714286,274.6331158876419L566.0008571428571,272.29393726587296L567.5182857142858,311.4242943227291L569.0357142857143,295.2587774991989L570.5531428571429,274.99086892604834L572.0705714285715,289.3561782538891L573.5880000000001,281.95057368278503L575.1054285714287,286.27414709329605L576.6228571428571,297.11471593379974L578.1402857142857,239.45810651779178L579.6577142857143,268.39490389823914L581.1751428571429,270.97466057538986L582.6925714285715,314.886765986681L584.21,265.3217843770981L585.7274285714285,302.363691687584L587.2448571428571,297.4089126884938L588.7622857142857,291.7024419307709L590.2797142857144,299.96440476179123L591.797142857143,304.2437257468701L593.3145714285715,291.9078723192215L594.8320000000001,273.1333050727844L596.3494285714286,264.6526349186897L597.8668571428572,292.11752718687063L599.3842857142857,296.1379922032357L600.9017142857143,279.15037965774536L602.4191428571429,304.5605938732624L603.9365714285715,273.82814741134644L605.454,308.0008286833763L606.9714285714285,274.3905825018883L608.4888571428571,260.2362275719643L610.0062857142857,263.28561758995056L611.5237142857143,276.56783080101013L613.041142857143,297.38467624783516L614.5585714285716,291.8748570084572L616.076,289.09676706790924L617.5934285714286,287.33816465735435L619.1108571428572,263.3742029070855L620.6282857142858,283.89712518453604L623.6631428571429,267.6628298163414L625.1805714285714,302.25345289707184L626.698,297.7946398258209L628.2154285714286,301.19799292087555L629.7328571428571,285.0257129073143L631.2502857142857,295.5415399968624L632.7677142857143,300.4550035893917L634.2851428571429,298.6842266321183L635.8025714285715,291.03425002098083L637.32,273.56112813949585L638.8374285714286,288.2355245053769L640.3548571428572,304.31040412187576L641.8722857142858,302.61598563194275L643.3897142857144,302.0335184633732L644.9071428571428,318.3490686714649L646.4245714285714,309.86256873607635L647.942,304.1505820155144L649.4594285714286,280.6774524450302L650.9768571428572,312.44061148166656L652.4942857142858,320.3308764696121L654.0117142857143,292.4256003499031L655.5291428571428,289.5967522859574L657.0465714285714,297.7022886872292L658.5640000000001,321.5012845247984L660.0814285714287,295.01133567094803L661.5988571428572,268.57250905036926L663.1162857142858,301.6503179669381L664.6337142857143,285.10951048135763L666.1511428571429,294.08445274829865L667.6685714285715,302.6969910264015L669.186,263.28565782308584L670.7034285714286,304.02272915840155L672.2208571428572,287.3328740000725L673.7382857142857,298.74007424712187L675.2557142857142,260.79898452758795L676.7731428571428,297.7988120019436L678.2905714285714,294.2112957537174L679.808,287.59007638692856L681.3254285714287,292.85386195778847L682.8428571428573,300.60212007164955L684.3602857142857,278.6652082800866L685.8777142857143,252.006338596344L687.3951428571429,294.8377417623997L688.9125714285715,304.25440764427185L690.4300000000001,300.67307925224304L691.9474285714286,276.0801569223404L693.4648571428571,295.3876884877682L694.9822857142857,298.480486035347L696.4997142857143,304.465518951416L698.0171428571429,285.26667317748075L699.5345714285714,313.90328711271286L701.052,304.7298023700714L702.5694285714286,283.6135902106762L704.0868571428571,277.17980897426605L705.6042857142858,293.3274663090706L707.1217142857143,303.38288953900343L708.6391428571429,307.4691759645939L710.1565714285715,287.38167679309845L711.6740000000001,327.6027420759201L714.7088571428571,295.7715447843075L716.2262857142857,305.1906729340553L717.7437142857143,286.86557418107986L719.2611428571429,308.9478523135186L720.7785714285715,312.30421712994576L722.296,296.7183310389519L723.8134285714285,299.6789225041867L725.3308571428571,297.6907377541065L726.8482857142857,285.5919460058213L728.3657142857144,300.359425753355L729.883142857143,290.4109944999218L731.4005714285715,304.19430336356163L732.918,311.9920643270016L734.4354285714286,285.46685314178467L735.9528571428572,307.9479744136334L737.4702857142858,303.4210265278816L738.9877142857143,290.2624819278717L740.5051428571429,288.81566217541695L742.0225714285715,299.15187245607376L743.54,297.78751453757286L745.0574285714285,295.9067924916744L746.5748571428571,292.99797704815865L748.0922857142857,283.9442462325096L749.6097142857143,293.651729285717L751.127142857143,296.43404772877693L752.6445714285715,280.55495864152914L754.162,306.9871709346771L755.6794285714286,279.2448470592499L757.1968571428572,287.7643421888352L758.7142857142858,301.0831514596939L760.2317142857144,269.78721982240677L761.7491428571429,303.91164949536324L763.2665714285714,291.03799974918365L764.784,324.61968241631985L766.3014285714286,282.9605541229248L767.8188571428572,292.45802021026617L769.3362857142857,298.6059691607952L770.8537142857143,293.28068321943283L772.3711428571428,293.49666675925255L773.8885714285715,300.72566395998007L775.4060000000001,295.1573497653008L776.9234285714286,286.54449364542967L778.4408571428572,302.5887317061424L779.9582857142858,301.5822314321995L781.4757142857144,292.52865350246435L782.9931428571429,284.72161477804184L784.5105714285714,298.3503439128399L786.028,290.73081573843956L787.5454285714286,303.25814267992973L789.0628571428572,300.0567398071289L790.5802857142858,297.30062118172646L792.0977142857142,304.00950452685356L793.6151428571428,314.2490547001362L795.1325714285714,280.00871336460114L796.6500000000001,291.282279253006L798.1674285714287,295.8533830046654L799.6848571428573,309.2489410042763L801.2022857142858,264.380731344223L802.7197142857143,305.53854471445084L805.7545714285715,301.0487843155861L807.272,307.52905091643333L808.7894285714286,302.23403638601303L810.3068571428572,308.59307250380516L811.8242857142857,291.8730022609234L813.3417142857143,296.7139818370342L814.8591428571428,323.4259451776743L816.3765714285714,300.6273422241211L817.894,308.1316587924957L819.4114285714286,266.99969923496246L820.9288571428573,270.97873216867447L822.4462857142858,302.4737252891064L823.9637142857143,315.58007141947746L825.4811428571429,313.5792494416237L826.9985714285715,301.2033358812332L828.5160000000001,303.06685826182365L830.0334285714287,275.5418858528137L831.5508571428571,290.48414236307144L833.0682857142857,292.5042722225189L834.5857142857143,300.17151287198067L836.1031428571429,301.21442010998726L837.6205714285715,298.55817621946335L839.138,285.05856326222425L840.6554285714286,310.7081686556339L842.1728571428571,293.46823400259024L843.6902857142858,277.04905128479004L845.2077142857144,267.8447479605675L846.7251428571429,276.0643372535706L848.2425714285715,300.7514373064041L849.7600000000001,288.13096261024475L851.2774285714286,279.6220648884773L852.7948571428572,289.1057430803776L854.3122857142857,313.4204733967781L855.8297142857143,306.0173310935498L857.3471428571429,290.2464208602906L858.8645714285715,295.88567411899567L860.3820000000001,298.985584884882L861.8994285714285,293.67289996147156L863.4168571428571,291.5067962408066L864.9342857142857,307.95682168006897L866.4517142857144,308.8453825414181L867.969142857143,299.9050045609474L869.4865714285716,299.4641419351101L871.004,284.9804385602475L872.5214285714286,310.8322758078575L874.0388571428572,300.52936649322515L875.5562857142858,297.3438396155834L877.0737142857143,295.045187830925L878.5911428571429,295.68860417604446L880.1085714285715,292.3339573144913L881.626,313.76260793209076L883.1434285714286,302.0307343304157L884.6608571428571,305.3864996731281L886.1782857142857,290.66861531138426L887.6957142857143,311.073521733284L889.213142857143,306.92303931713104L890.7305714285715,290.71676230430603L892.248,299.16566437482834L893.7654285714286,320.4235796481371L896.8002857142858,296.00469982624054L898.3177142857144,302.48413360118866L899.835142857143,306.8891871571541L901.3525714285714,311.2979300916195L902.87,302.56635001301765L904.3874285714286,305.91417333483696L905.9048571428572,289.3105297386647L907.4222857142857,315.2531731724739L908.9397142857143,299.43823984265333L910.4571428571428,306.1604403555393L911.9745714285714,284.64534080028534L913.4920000000001,309.6492446064949L915.0094285714287,308.8005789220333L916.5268571428572,310.84939098358154L918.0442857142858,307.09662920236593L919.5617142857144,304.5159994661808L921.0791428571429,298.0976918935776L922.5965714285715,283.034430205822L924.114,306.75572580099106L925.6314285714286,316.5093401670456L927.1488571428572,304.4043887257576L928.6662857142858,298.57583051919937L930.1837142857142,307.1050499975682L931.7011428571428,320.5232854038477L933.2185714285714,301.02239540219307L934.736,277.3057628273964L936.2534285714287,301.08645460009575L937.7708571428573,297.2289136648178L939.2882857142857,305.9139600992203L940.8057142857143,310.2432788014412L942.3231428571429,286.7568924129009L943.8405714285715,305.74878296256065L945.3580000000001,302.9795161485672L946.8754285714286,296.38863256573677L948.3928571428572,279.7688595056534L949.9102857142857,296.78669518232346L951.4277142857143,305.55324187874794L952.9451428571429,278.5620424747467L954.4625714285714,293.1187327802181L955.98,327.59376606345177L957.4974285714286,298.1978884935379L959.0148571428572,288.4554468691349L960.5322857142858,311.76183021068573L962.0497142857143,312.793958991766L963.5671428571429,311.4014700651169L965.0845714285715,291.0072415173054L966.6020000000001,301.4078006744385L968.1194285714287,300.8976002633572L969.6368571428571,310.08516660332685L971.1542857142857,307.3474103808403L972.6717142857143,284.4246781468392L974.1891428571429,306.8243916928768L975.7065714285715,319.49913887679577L977.224,299.0471536517143L978.7414285714285,290.3861988186836L980.2588571428571,316.56089490652084L981.7762857142858,296.1747733354569L983.2937142857144,294.486502468586L984.811142857143,319.0601631850004" style="fill: none;" fill="none"></path></g></g></g></g></g></g><g transform="translate(50, 378)" clip-path="url(#clip_1)"><clipPath id="clip_1"><rect width="1062" height="22"></rect></clipPath><g><g><line x1="0" y1="0" x2="0" y2="5" style="visibility: inherit;" fill="rgb(0, 0, 0)" stroke="rgb(204, 204, 204)" stroke-width="1px"></line><line x1="75.87142857142857" y1="0" x2="75.87142857142857" y2="5" style="visibility: inherit;" fill="rgb(0, 0, 0)" stroke="rgb(204, 204, 204)" stroke-width="1px"></line><line x1="151.74285714285713" y1="0" x2="151.74285714285713" y2="5" style="visibility: inherit;" fill="rgb(0, 0, 0)" stroke="rgb(204, 204, 204)" stroke-width="1px"></line><line x1="227.6142857142857" y1="0" x2="227.6142857142857" y2="5" style="visibility: inherit;" fill="rgb(0, 0, 0)" stroke="rgb(204, 204, 204)" stroke-width="1px"></line><line x1="303.48571428571427" y1="0" x2="303.48571428571427" y2="5" style="visibility: inherit;" fill="rgb(0, 0, 0)" stroke="rgb(204, 204, 204)" stroke-width="1px"></line><line x1="379.3571428571429" y1="0" x2="379.3571428571429" y2="5" style="visibility: inherit;" fill="rgb(0, 0, 0)" stroke="rgb(204, 204, 204)" stroke-width="1px"></line><line x1="455.2285714285714" y1="0" x2="455.2285714285714" y2="5" style="visibility: inherit;" fill="rgb(0, 0, 0)" stroke="rgb(204, 204, 204)" stroke-width="1px"></line><line x1="531.1" y1="0" x2="531.1" y2="5" style="visibility: inherit;" fill="rgb(0, 0, 0)" stroke="rgb(204, 204, 204)" stroke-width="1px"></line><line x1="606.9714285714285" y1="0" x2="606.9714285714285" y2="5" style="visibility: inherit;" fill="rgb(0, 0, 0)" stroke="rgb(204, 204, 204)" stroke-width="1px"></line><line x1="682.8428571428573" y1="0" x2="682.8428571428573" y2="5" style="visibility: inherit;" fill="rgb(0, 0, 0)" stroke="rgb(204, 204, 204)" stroke-width="1px"></line><line x1="758.7142857142858" y1="0" x2="758.7142857142858" y2="5" style="visibility: inherit;" fill="rgb(0, 0, 0)" stroke="rgb(204, 204, 204)" stroke-width="1px"></line><line x1="834.5857142857143" y1="0" x2="834.5857142857143" y2="5" style="visibility: inherit;" fill="rgb(0, 0, 0)" stroke="rgb(204, 204, 204)" stroke-width="1px"></line><line x1="910.4571428571428" y1="0" x2="910.4571428571428" y2="5" style="visibility: inherit;" fill="rgb(0, 0, 0)" stroke="rgb(204, 204, 204)" stroke-width="1px"></line><line x1="986.3285714285715" y1="0" x2="986.3285714285715" y2="5" style="visibility: inherit;" fill="rgb(0, 0, 0)" stroke="rgb(204, 204, 204)" stroke-width="1px"></line><line x1="1062.2" y1="0" x2="1062.2" y2="5" style="visibility: inherit;" fill="rgb(0, 0, 0)" stroke="rgb(204, 204, 204)" stroke-width="1px"></line></g><g transform="translate(0, 8)"><text x="0" y="0" dx="0em" dy="0.95em" style="text-anchor: middle; visibility: hidden; font-family: Roboto, sans-serif; font-size: 12px; font-weight: 200;" fill="rgb(50, 49, 63)" stroke="none" stroke-width="1px">-500</text><text x="75.87142857142857" y="0" dx="0em" dy="0.95em" style="text-anchor: middle; visibility: inherit; font-family: Roboto, sans-serif; font-size: 12px; font-weight: 200;" fill="rgb(50, 49, 63)" stroke="none" stroke-width="1px">0</text><text x="151.74285714285713" y="0" dx="0em" dy="0.95em" style="text-anchor: middle; visibility: inherit; font-family: Roboto, sans-serif; font-size: 12px; font-weight: 200;" fill="rgb(50, 49, 63)" stroke="none" stroke-width="1px">500</text><text x="227.6142857142857" y="0" dx="0em" dy="0.95em" style="text-anchor: middle; visibility: inherit; font-family: Roboto, sans-serif; font-size: 12px; font-weight: 200;" fill="rgb(50, 49, 63)" stroke="none" stroke-width="1px">1k</text><text x="303.48571428571427" y="0" dx="0em" dy="0.95em" style="text-anchor: middle; visibility: inherit; font-family: Roboto, sans-serif; font-size: 12px; font-weight: 200;" fill="rgb(50, 49, 63)" stroke="none" stroke-width="1px">1.5k</text><text x="379.3571428571429" y="0" dx="0em" dy="0.95em" style="text-anchor: middle; visibility: inherit; font-family: Roboto, sans-serif; font-size: 12px; font-weight: 200;" fill="rgb(50, 49, 63)" stroke="none" stroke-width="1px">2k</text><text x="455.2285714285714" y="0" dx="0em" dy="0.95em" style="text-anchor: middle; visibility: inherit; font-family: Roboto, sans-serif; font-size: 12px; font-weight: 200;" fill="rgb(50, 49, 63)" stroke="none" stroke-width="1px">2.5k</text><text x="531.1" y="0" dx="0em" dy="0.95em" style="text-anchor: middle; visibility: inherit; font-family: Roboto, sans-serif; font-size: 12px; font-weight: 200;" fill="rgb(50, 49, 63)" stroke="none" stroke-width="1px">3k</text><text x="606.9714285714285" y="0" dx="0em" dy="0.95em" style="text-anchor: middle; visibility: inherit; font-family: Roboto, sans-serif; font-size: 12px; font-weight: 200;" fill="rgb(50, 49, 63)" stroke="none" stroke-width="1px">3.5k</text><text x="682.8428571428573" y="0" dx="0em" dy="0.95em" style="text-anchor: middle; visibility: inherit; font-family: Roboto, sans-serif; font-size: 12px; font-weight: 200;" fill="rgb(50, 49, 63)" stroke="none" stroke-width="1px">4k</text><text x="758.7142857142858" y="0" dx="0em" dy="0.95em" style="text-anchor: middle; visibility: inherit; font-family: Roboto, sans-serif; font-size: 12px; font-weight: 200;" fill="rgb(50, 49, 63)" stroke="none" stroke-width="1px">4.5k</text><text x="834.5857142857143" y="0" dx="0em" dy="0.95em" style="text-anchor: middle; visibility: inherit; font-family: Roboto, sans-serif; font-size: 12px; font-weight: 200;" fill="rgb(50, 49, 63)" stroke="none" stroke-width="1px">5k</text><text x="910.4571428571428" y="0" dx="0em" dy="0.95em" style="text-anchor: middle; visibility: inherit; font-family: Roboto, sans-serif; font-size: 12px; font-weight: 200;" fill="rgb(50, 49, 63)" stroke="none" stroke-width="1px">5.5k</text><text x="986.3285714285715" y="0" dx="0em" dy="0.95em" style="text-anchor: middle; visibility: inherit; font-family: Roboto, sans-serif; font-size: 12px; font-weight: 200;" fill="rgb(50, 49, 63)" stroke="none" stroke-width="1px">6k</text><text x="1062.2" y="0" dx="0em" dy="0.95em" style="text-anchor: middle; visibility: hidden; font-family: Roboto, sans-serif; font-size: 12px; font-weight: 200;" fill="rgb(50, 49, 63)" stroke="none" stroke-width="1px">6.5k</text></g><line x1="0" y1="0" x2="1062.2" y2="0" fill="rgb(0, 0, 0)" stroke="rgb(204, 204, 204)" stroke-width="1px"></line></g></g></g></g></svg>