<svg viewBox="0 0 1112.2000732421875 400" xmlns="http://www.w3.org/2000/svg"><g><g><g><g><g><line x1="51.5625" y1="378" x2="46.5625" y2="378" style="visibility: inherit;" fill="rgb(0, 0, 0)" stroke="rgb(204, 204, 204)" stroke-width="1px"></line><line x1="51.5625" y1="351" x2="46.5625" y2="351" style="visibility: inherit;" fill="rgb(0, 0, 0)" stroke="rgb(204, 204, 204)" stroke-width="1px"></line><line x1="51.5625" y1="324" x2="46.5625" y2="324" style="visibility: inherit;" fill="rgb(0, 0, 0)" stroke="rgb(204, 204, 204)" stroke-width="1px"></line><line x1="51.5625" y1="297" x2="46.5625" y2="297" style="visibility: inherit;" fill="rgb(0, 0, 0)" stroke="rgb(204, 204, 204)" stroke-width="1px"></line><line x1="51.5625" y1="270" x2="46.5625" y2="270" style="visibility: inherit;" fill="rgb(0, 0, 0)" stroke="rgb(204, 204, 204)" stroke-width="1px"></line><line x1="51.5625" y1="243.00000000000003" x2="46.5625" y2="243.00000000000003" style="visibility: inherit;" fill="rgb(0, 0, 0)" stroke="rgb(204, 204, 204)" stroke-width="1px"></line><line x1="51.5625" y1="216.00000000000003" x2="46.5625" y2="216.00000000000003" style="visibility: inherit;" fill="rgb(0, 0, 0)" stroke="rgb(204, 204, 204)" stroke-width="1px"></line><line x1="51.5625" y1="189" x2="46.5625" y2="189" style="visibility: inherit;" fill="rgb(0, 0, 0)" stroke="rgb(204, 204, 204)" stroke-width="1px"></line><line x1="51.5625" y1="162.00000000000006" x2="46.5625" y2="162.00000000000006" style="visibility: inherit;" fill="rgb(0, 0, 0)" stroke="rgb(204, 204, 204)" stroke-width="1px"></line><line x1="51.5625" y1="135.00000000000003" x2="46.5625" y2="135.00000000000003" style="visibility: inherit;" fill="rgb(0, 0, 0)" stroke="rgb(204, 204, 204)" stroke-width="1px"></line><line x1="51.5625" y1="108.00000000000004" x2="46.5625" y2="108.00000000000004" style="visibility: inherit;" fill="rgb(0, 0, 0)" stroke="rgb(204, 204, 204)" stroke-width="1px"></line><line x1="51.5625" y1="81" x2="46.5625" y2="81" style="visibility: inherit;" fill="rgb(0, 0, 0)" stroke="rgb(204, 204, 204)" stroke-width="1px"></line><line x1="51.5625" y1="53.99999999999998" x2="46.5625" y2="53.99999999999998" style="visibility: inherit;" fill="rgb(0, 0, 0)" stroke="rgb(204, 204, 204)" stroke-width="1px"></line><line x1="51.5625" y1="27.00000000000003" x2="46.5625" y2="27.00000000000003" style="visibility: inherit;" fill="rgb(0, 0, 0)" stroke="rgb(204, 204, 204)" stroke-width="1px"></line><line x1="51.5625" y1="0" x2="46.5625" y2="0" style="visibility: inherit;" fill="rgb(0, 0, 0)" stroke="rgb(204, 204, 204)" stroke-width="1px"></line></g><g transform="translate(41.5625, 0)"><text x="0" y="378" dx="0em" dy="0.3em" style="text-anchor: end; visibility: hidden; font-family: Roboto, sans-serif; font-size: 12px; font-weight: 200;" fill="rgb(50, 49, 63)" stroke="none" stroke-width="1px">-0.2</text><text x="0" y="351" dx="0em" dy="0.3em" style="text-anchor: end; visibility: inherit; font-family: Roboto, sans-serif; font-size: 12px; font-weight: 200;" fill="rgb(50, 49, 63)" stroke="none" stroke-width="1px">0</text><text x="0" y="324" dx="0em" dy="0.3em" style="text-anchor: end; visibility: inherit; font-family: Roboto, sans-serif; font-size: 12px; font-weight: 200;" fill="rgb(50, 49, 63)" stroke="none" stroke-width="1px">0.2</text><text x="0" y="297" dx="0em" dy="0.3em" style="text-anchor: end; visibility: inherit; font-family: Roboto, sans-serif; font-size: 12px; font-weight: 200;" fill="rgb(50, 49, 63)" stroke="none" stroke-width="1px">0.4</text><text x="0" y="270" dx="0em" dy="0.3em" style="text-anchor: end; visibility: inherit; font-family: Roboto, sans-serif; font-size: 12px; font-weight: 200;" fill="rgb(50, 49, 63)" stroke="none" stroke-width="1px">0.6</text><text x="0" y="243.00000000000003" dx="0em" dy="0.3em" style="text-anchor: end; visibility: inherit; font-family: Roboto, sans-serif; font-size: 12px; font-weight: 200;" fill="rgb(50, 49, 63)" stroke="none" stroke-width="1px">0.8</text><text x="0" y="216.00000000000003" dx="0em" dy="0.3em" style="text-anchor: end; visibility: inherit; font-family: Roboto, sans-serif; font-size: 12px; font-weight: 200;" fill="rgb(50, 49, 63)" stroke="none" stroke-width="1px">1</text><text x="0" y="189" dx="0em" dy="0.3em" style="text-anchor: end; visibility: inherit; font-family: Roboto, sans-serif; font-size: 12px; font-weight: 200;" fill="rgb(50, 49, 63)" stroke="none" stroke-width="1px">1.2</text><text x="0" y="162.00000000000006" dx="0em" dy="0.3em" style="text-anchor: end; visibility: inherit; font-family: Roboto, sans-serif; font-size: 12px; font-weight: 200;" fill="rgb(50, 49, 63)" stroke="none" stroke-width="1px">1.4</text><text x="0" y="135.00000000000003" dx="0em" dy="0.3em" style="text-anchor: end; visibility: inherit; font-family: Roboto, sans-serif; font-size: 12px; font-weight: 200;" fill="rgb(50, 49, 63)" stroke="none" stroke-width="1px">1.6</text><text x="0" y="108.00000000000004" dx="0em" dy="0.3em" style="text-anchor: end; visibility: inherit; font-family: Roboto, sans-serif; font-size: 12px; font-weight: 200;" fill="rgb(50, 49, 63)" stroke="none" stroke-width="1px">1.8</text><text x="0" y="81" dx="0em" dy="0.3em" style="text-anchor: end; visibility: inherit; font-family: Roboto, sans-serif; font-size: 12px; font-weight: 200;" fill="rgb(50, 49, 63)" stroke="none" stroke-width="1px">2</text><text x="0" y="53.99999999999998" dx="0em" dy="0.3em" style="text-anchor: end; visibility: inherit; font-family: Roboto, sans-serif; font-size: 12px; font-weight: 200;" fill="rgb(50, 49, 63)" stroke="none" stroke-width="1px">2.2</text><text x="0" y="27.00000000000003" dx="0em" dy="0.3em" style="text-anchor: end; visibility: inherit; font-family: Roboto, sans-serif; font-size: 12px; font-weight: 200;" fill="rgb(50, 49, 63)" stroke="none" stroke-width="1px">2.4</text><text x="0" y="0" dx="0em" dy="0.3em" style="text-anchor: end; visibility: hidden; font-family: Roboto, sans-serif; font-size: 12px; font-weight: 200;" fill="rgb(50, 49, 63)" stroke="none" stroke-width="1px">2.6</text></g><line x1="51.5625" y1="0" x2="51.5625" y2="378" fill="rgb(0, 0, 0)" stroke="rgb(204, 204, 204)" stroke-width="1px"></line></g></g><g transform="translate(51, 0)" clip-path="url(#clip_0)"><clipPath id="clip_0"><rect width="1060" height="378"></rect></clipPath><g><g><g><line x1="0" y1="0" x2="0" y2="378" fill="rgb(0, 0, 0)" stroke="rgb(60, 60, 60)" stroke-width="1px" opacity="0.25"></line><line x1="75.75982142857143" y1="0" x2="75.75982142857143" y2="378" fill="rgb(0, 0, 0)" stroke="rgb(60, 60, 60)" stroke-width="1px" opacity="0.25"></line><line x1="151.51964285714286" y1="0" x2="151.51964285714286" y2="378" fill="rgb(0, 0, 0)" stroke="rgb(60, 60, 60)" stroke-width="1px" opacity="0.25"></line><line x1="227.27946428571428" y1="0" x2="227.27946428571428" y2="378" fill="rgb(0, 0, 0)" stroke="rgb(60, 60, 60)" stroke-width="1px" opacity="0.25"></line><line x1="303.0392857142857" y1="0" x2="303.0392857142857" y2="378" fill="rgb(0, 0, 0)" stroke="rgb(60, 60, 60)" stroke-width="1px" opacity="0.25"></line><line x1="378.79910714285717" y1="0" x2="378.79910714285717" y2="378" fill="rgb(0, 0, 0)" stroke="rgb(60, 60, 60)" stroke-width="1px" opacity="0.25"></line><line x1="454.55892857142857" y1="0" x2="454.55892857142857" y2="378" fill="rgb(0, 0, 0)" stroke="rgb(60, 60, 60)" stroke-width="1px" opacity="0.25"></line><line x1="530.31875" y1="0" x2="530.31875" y2="378" fill="rgb(0, 0, 0)" stroke="rgb(60, 60, 60)" stroke-width="1px" opacity="0.25"></line><line x1="606.0785714285714" y1="0" x2="606.0785714285714" y2="378" fill="rgb(0, 0, 0)" stroke="rgb(60, 60, 60)" stroke-width="1px" opacity="0.25"></line><line x1="681.8383928571429" y1="0" x2="681.8383928571429" y2="378" fill="rgb(0, 0, 0)" stroke="rgb(60, 60, 60)" stroke-width="1px" opacity="0.25"></line><line x1="757.5982142857143" y1="0" x2="757.5982142857143" y2="378" fill="rgb(0, 0, 0)" stroke="rgb(60, 60, 60)" stroke-width="1px" opacity="0.25"></line><line x1="833.3580357142857" y1="0" x2="833.3580357142857" y2="378" fill="rgb(0, 0, 0)" stroke="rgb(60, 60, 60)" stroke-width="1px" opacity="0.25"></line><line x1="909.1178571428571" y1="0" x2="909.1178571428571" y2="378" fill="rgb(0, 0, 0)" stroke="rgb(60, 60, 60)" stroke-width="1px" opacity="0.25"></line><line x1="984.8776785714286" y1="0" x2="984.8776785714286" y2="378" fill="rgb(0, 0, 0)" stroke="rgb(60, 60, 60)" stroke-width="1px" opacity="0.25"></line><line x1="1060.6375" y1="0" x2="1060.6375" y2="378" fill="rgb(0, 0, 0)" stroke="rgb(60, 60, 60)" stroke-width="1px" opacity="0.25"></line></g><g><line x1="0" y1="378" x2="1060.6375" y2="378" fill="rgb(0, 0, 0)" stroke="rgb(60, 60, 60)" stroke-width="1px" opacity="0.25"></line><line x1="0" y1="351" x2="1060.6375" y2="351" fill="rgb(0, 0, 0)" stroke="rgb(60, 60, 60)" stroke-width="1px" opacity="0.25"></line><line x1="0" y1="324" x2="1060.6375" y2="324" fill="rgb(0, 0, 0)" stroke="rgb(60, 60, 60)" stroke-width="1px" opacity="0.25"></line><line x1="0" y1="297" x2="1060.6375" y2="297" fill="rgb(0, 0, 0)" stroke="rgb(60, 60, 60)" stroke-width="1px" opacity="0.25"></line><line x1="0" y1="270" x2="1060.6375" y2="270" fill="rgb(0, 0, 0)" stroke="rgb(60, 60, 60)" stroke-width="1px" opacity="0.25"></line><line x1="0" y1="243.00000000000003" x2="1060.6375" y2="243.00000000000003" fill="rgb(0, 0, 0)" stroke="rgb(60, 60, 60)" stroke-width="1px" opacity="0.25"></line><line x1="0" y1="216.00000000000003" x2="1060.6375" y2="216.00000000000003" fill="rgb(0, 0, 0)" stroke="rgb(60, 60, 60)" stroke-width="1px" opacity="0.25"></line><line x1="0" y1="189" x2="1060.6375" y2="189" fill="rgb(0, 0, 0)" stroke="rgb(60, 60, 60)" stroke-width="1px" opacity="0.25"></line><line x1="0" y1="162.00000000000006" x2="1060.6375" y2="162.00000000000006" fill="rgb(0, 0, 0)" stroke="rgb(60, 60, 60)" stroke-width="1px" opacity="0.25"></line><line x1="0" y1="135.00000000000003" x2="1060.6375" y2="135.00000000000003" fill="rgb(0, 0, 0)" stroke="rgb(60, 60, 60)" stroke-width="1px" opacity="0.25"></line><line x1="0" y1="108.00000000000004" x2="1060.6375" y2="108.00000000000004" fill="rgb(0, 0, 0)" stroke="rgb(60, 60, 60)" stroke-width="1px" opacity="0.25"></line><line x1="0" y1="81" x2="1060.6375" y2="81" fill="rgb(0, 0, 0)" stroke="rgb(60, 60, 60)" stroke-width="1px" opacity="0.25"></line><line x1="0" y1="53.99999999999998" x2="1060.6375" y2="53.99999999999998" fill="rgb(0, 0, 0)" stroke="rgb(60, 60, 60)" stroke-width="1px" opacity="0.25"></line><line x1="0" y1="27.00000000000003" x2="1060.6375" y2="27.00000000000003" fill="rgb(0, 0, 0)" stroke="rgb(60, 60, 60)" stroke-width="1px" opacity="0.25"></line><line x1="0" y1="0" x2="1060.6375" y2="0" fill="rgb(0, 0, 0)" stroke="rgb(60, 60, 60)" stroke-width="1px" opacity="0.25"></line></g></g></g><g><g><line x1="0" y1="351" x2="1060.6375" y2="351" fill="rgb(0, 0, 0)" stroke="rgb(153, 153, 153)" stroke-width="1.5px"></line></g></g><g><g><line x1="75.75982142857143" y1="0" x2="75.75982142857143" y2="378" fill="rgb(0, 0, 0)" stroke="rgb(153, 153, 153)" stroke-width="1.5px"></line></g></g><g><g><g><g><g><path stroke="rgb(255, 112, 67)" stroke-width="2px" d="M77.27501785714286,40.15268182754518L78.79021428571428,40.15782503246028L80.30541071428573,40.16127833008935L81.82060714285714,40.16024379640219L83.33580357142857,40.18409109088921L84.851,40.16450533066812L86.36619642857144,40.17087231255786L87.88139285714286,40.16656470369954L89.39658928571428,40.16137309954264L90.91178571428571,40.16121365581292L92.42698214285716,40.16072160069013L93.94217857142857,40.15677055084272L95.457375,40.15894840141515L96.97257142857143,40.169294134035276L98.48776785714287,40.177411614005536L100.0029642857143,40.17443623886554L101.51816071428571,40.19239096547442L103.03335714285714,40.21163112625174L104.54855357142858,40.19414732687377L106.06375000000001,40.17124475847213L107.57894642857143,40.16832146810273L109.09414285714286,40.19237468259635L110.6093392857143,40.18830527624789L112.12453571428573,40.17933944998326L113.63973214285714,40.17441915699976L115.15492857142857,40.18900662665645L116.670125,40.191579476184685L118.18532142857144,40.17106754346228L119.70051785714286,40.17831734575258L121.21571428571428,40.193826042079785L122.73091071428571,40.19138472117527L124.24610714285716,40.18349063374532L125.76130357142858,40.17472071346764L127.2765,40.205452761376094L128.79169642857144,40.19696633601493L130.30689285714286,40.20872012268649L131.8220892857143,40.22540283878234L133.33728571428574,40.20268680181881L134.85248214285716,40.20634071042949L136.36767857142857,40.19008809095516L137.882875,40.20166451182763L139.39807142857143,40.21112606150559L140.91326785714287,40.25047992518476L142.42846428571428,40.25076137866287L143.9436607142857,40.2439520955971L145.45885714285717,40.23089275794145L146.97405357142858,40.21536391993739L148.48925000000003,40.23069962465019L150.00444642857144,40.299308900326444L151.51964285714286,40.29772931620281L153.0348392857143,40.29289200795898L154.5500357142857,40.313394039760595L156.06523214285713,40.29623253887855L157.58042857142857,40.30113568738874L159.095625,40.32322210817883L160.61082142857146,40.39250083332903L162.12601785714287,40.44513340616459L163.64121428571428,40.36667437933858L165.15641071428573,40.42972363910879L168.18680357142856,40.43404388982803L169.702,40.393559329235906L171.21719642857144,40.45904136533873L172.73239285714288,40.490025248339876L174.2475892857143,40.58335012299667L175.7627857142857,40.54197467621936L177.27798214285716,40.94702132437369L178.79317857142857,41.067579348935155L180.308375,41.59672114375188L181.82357142857143,43.04609211297704L183.33876785714287,45.43000330168561L184.8539642857143,47.55360484926386L186.36916071428573,50.24773048653488L187.88435714285714,58.19050848955355L189.39955357142858,70.0438047749787L190.91475,82.72732721607389L192.42994642857144,87.18097008927623L193.94514285714286,109.98588589150218L195.46033928571427,132.0171482516112L196.97553571428574,130.10616603783126L198.49073214285715,163.9867365569356L200.0059285714286,209.91260813722877L201.521125,219.58609945157693L203.03632142857143,235.39605382521847L204.55151785714287,253.99818667200032L206.06671428571428,267.076791206793L207.5819107142857,255.1379266680553L209.09710714285717,252.16247580320672L210.61230357142858,260.89190877319186L212.12750000000003,290.2642454527232L213.64269642857144,281.06794613150475L215.15789285714285,295.62541451349205L216.6730892857143,296.4213052694249L218.1882857142857,301.5882991771643L219.70348214285715,301.186826039975L221.2186785714286,299.786817940268L222.733875,302.11649081946473L224.24907142857145,302.78633344992267L225.76426785714287,300.74597861646606L227.27946428571428,309.7628877392809L228.79466071428573,313.6351194460922L230.30985714285714,308.1402835851523L231.82505357142858,315.6093030312755L233.34025,317.23995820855913L234.85544642857144,308.27193528271766L236.37064285714288,307.75580367057614L237.8858392857143,309.84597107076866L239.4010357142857,302.0290242717259L240.91623214285715,306.9017418722359L242.43142857142857,311.1232840030219L243.946625,312.1323059663844L245.46182142857143,317.6974564230691L246.97701785714287,314.89879929598277L248.4922142857143,310.71310889106996L250.00741071428573,313.3787441763368L251.52260714285717,317.987680909636L253.03780357142858,318.171284959432L254.553,318.4707419665213L256.06819642857147,312.8545195884842L259.0985892857143,321.7594307919235L260.6137857142857,326.26373480123874L262.1289821428571,328.8987095428323L263.6441785714286,323.43493359202085L265.159375,324.9922409489204L266.6745714285715,322.5821754751023L268.18976785714284,324.6179222102179L269.7049642857143,326.10495871784667L271.2201607142857,322.74044032122964L272.73535714285714,320.54322025351627L274.25055357142855,314.5153875634615L275.76575,324.96596117584113L277.28094642857144,325.4065163580581L278.79614285714285,327.8143106391528L280.3113392857143,329.9608576929128L281.82653571428574,320.7467511411137L283.34173214285715,327.7527807232366L284.85692857142857,331.20883854141806L286.37212500000004,330.76120751999673L287.8873214285714,323.2748124226965L289.40251785714287,325.68595454067196L290.91771428571434,321.116127211169L292.4329107142857,323.21879829886575L293.94810714285717,329.4264231153081L295.4633035714286,326.93431856116837L296.97850000000005,326.6485897768181L298.4936964285714,322.9226808471173L300.0088928571429,329.9719677229449L301.5240892857143,329.39868272775095L303.0392857142857,329.74724399685255L304.5544821428572,325.3267753810182L306.0696785714286,318.89439110536904L307.584875,320.6471293252299L309.1000714285714,320.44079256076L310.6152678571429,326.11331815920414L312.13046428571425,326.6975531736015L313.6456607142857,328.030092109816L315.16085714285714,333.2634144730631L316.6760535714286,331.73926157109037L318.19125,329.6481916871305L319.70644642857144,329.07572404678496L321.2216428571429,332.4297362978754L322.73683928571427,326.40545246304623L324.25203571428574,329.97087270735165L325.76723214285715,336.11753128731834L327.28242857142857,333.169548052689L328.79762500000004,328.19811851256446L330.31282142857145,330.3590356189936L331.82801785714287,334.99703977922286L333.3432142857143,328.59191431609463L334.85841071428575,330.2857541165772L336.3736071428571,332.0246957349933L337.8888035714286,329.52427891537576L339.404,327.805774166068L340.91919642857147,332.78217794798024L342.4343928571429,329.94727659820336L343.9495892857143,328.0096412062103L345.46478571428577,324.8841045939147L346.9799821428571,325.9623178768016L350.010375,326.54823335299665L351.5255714285714,331.63108628622643L353.04076785714284,329.14372485864993L354.5559642857143,331.19157871192533L356.0711607142857,333.66654460560665L357.58635714285714,334.02741238246483L359.1015535714286,335.2820165256769L360.61675,331.6102289512218L362.13194642857144,335.7508417328658L363.64714285714285,333.6181594311968L365.1623392857143,333.2723584912654L366.67753571428574,335.71377166623125L368.19273214285715,336.98390770145124L369.7079285714286,339.2153422976305L371.223125,333.68269948704176L372.73832142857145,336.8912212034445L374.25351785714287,340.2882986205787L375.7687142857143,339.8182469148L377.2839107142857,336.1217141594574L378.79910714285717,336.088683019781L380.31430357142864,335.77444113650773L381.8295,337.6398818066725L383.34469642857147,337.13138363536166L384.8598928571429,335.9130087668532L386.3750892857143,337.6627556257753L387.8902857142857,339.0733136367466L389.4054821428572,336.7696868341644L390.92067857142854,331.05805671528344L392.435875,333.41469090873085L393.9510714285715,326.78531331800554L395.46626785714284,332.1715608312159L396.9814642857143,334.80038721058315L398.4966607142857,330.8171942191009L400.0118571428572,333.0924758896917L401.52705357142855,338.4628893605968L403.04225,340.32629023947317L404.5574464285715,339.2760819182477L406.07264285714285,338.8463451740043L407.5878392857143,338.2925996150222L409.10303571428574,336.400417750859L410.61823214285715,334.3467915733582L412.13342857142857,334.8301623960454L413.64862500000004,333.744197605378L415.1638214285714,330.72452085593966L416.67901785714287,328.0411247758225L418.19421428571434,330.57469908525366L419.70941071428575,330.6787273089852L421.22460714285717,324.20110191730885L422.7398035714286,329.8647352280734L424.25500000000005,329.68893480376704L425.7701964285714,335.7984351729762L427.2853928571429,338.7697043570387L428.8005892857143,341.4786528287117L430.3157857142857,332.54473895590075L431.8309821428572,335.1433857892735L433.3461785714286,337.201095295763L434.861375,334.5491612290089L436.3765714285714,337.1821376750448L437.8917678571429,337.24054644537046L440.9221607142857,339.5688508850903L442.4373571428572,338.58161694993765L443.9525535714286,340.8112030714451L445.46775,340.36968341937796L446.98294642857144,344.15759775896936L448.4981428571429,336.5098589112238L450.01333928571427,334.3359173167876L451.52853571428574,331.8293095690489L453.04373214285715,332.7321989718367L454.55892857142857,336.2800595784561L456.07412500000004,337.8771759380356L457.58932142857145,340.55475469664924L459.1045178571429,341.35807048927126L460.6197142857143,339.09213749407735L462.13491071428575,341.6265862422698L463.65010714285717,341.3599995271273L465.1653035714286,341.33572801495995L466.6805,343.2994898203717L468.19569642857147,342.5813805132037L469.7108928571429,338.5716052956231L471.2260892857143,340.0516595975339L472.74128571428577,338.10643273001415L474.2564821428571,339.40913283880394L475.7716785714286,338.1699462521754L477.286875,337.3640564926617L478.8020714285714,340.33744640638236L480.3172678571429,340.50043843132624L481.8324642857143,335.03180875698916L483.3476607142858,337.69522543701277L484.86285714285714,341.4175049099715L486.3780535714286,342.12568254057885L487.89325,339.1411090636347L489.40844642857144,329.46862042025134L490.92364285714285,333.6226734670959L492.4388392857143,335.6592940991357L493.95403571428574,340.91593693535424L495.46923214285715,338.70289106877823L496.9844285714286,338.292280708642L498.499625,340.69522893530126L500.01482142857145,340.42493705090186L501.53001785714287,330.02678665331246L503.04521428571434,336.0921624473711L504.5604107142857,341.26364607073197L506.07560714285717,344.201776008372L507.59080357142864,342.42836169941387L509.106,338.1309695769531L510.62119642857147,334.88095829241564L512.1363928571429,335.80694123676324L513.6515892857143,339.5982848995044L515.1667857142858,338.2501180153885L516.6819821428571,338.15234325499864L518.1971785714286,341.77485945509557L519.7123750000001,332.3041108307347L521.2275714285714,336.3249804199062L522.7427678571429,339.72800281278467L524.2579642857143,332.64376901734835L525.7731607142857,339.14649005697396L527.2883571428572,338.16542021732886L528.8035535714286,332.4536694896057L531.8339464285715,336.48331652133993L533.349142857143,340.2662718530022L534.8643392857143,341.6987411120344L536.3795357142857,342.6016931218924L537.8947321428572,344.62579892649535L539.4099285714286,346.80194214629137L540.925125,344.84748482033757L542.4403214285715,342.15044201290095L543.9555178571429,344.7700847201672L545.4707142857143,346.9437426105187L546.9859107142858,345.58561016088976L548.5011071428571,344.87741061645124L550.0163035714286,345.97684220188603L551.5315,340.6850020655194L553.0466964285715,342.8994116837229L554.5618928571429,340.9565074998194L556.0770892857142,341.40884689005674L557.5922857142857,339.8298745171515L559.1074821428572,337.5800160264364L560.6226785714287,340.706453917489L562.137875,344.0181512582423L563.6530714285715,345.6645971536799L565.1682678571428,346.8141330449671L566.6834642857143,343.63318289538495L568.1986607142857,344.8422062175432L569.7138571428571,346.3337289096595L571.2290535714286,341.95270375165626L572.7442500000001,337.43499870641836L574.2594464285716,342.4168983827848L575.7746428571428,345.31285138251496L577.2898392857143,340.79520676670285L578.8050357142857,341.71102900437586L580.3202321428572,343.46218425441685L581.8354285714287,345.28413265416737L583.350625,344.8682357811459L584.8658214285714,345.84990946626937L586.3810178571429,342.17822276116715L587.8962142857143,342.8466942121768L589.4114107142857,346.0184813902598L590.9266071428572,346.05661397961114L592.4418035714286,338.30374207618445L593.9570000000001,343.33754935104133L595.4721964285715,344.8538337866032L596.9873928571428,346.2195471209287L598.5025892857143,346.8508384363317L600.0177857142858,341.3332260135142L601.5329821428572,345.10046879665026L603.0481785714286,343.7767926709574L604.563375,346.36159678794047L606.0785714285714,346.27677780114016L607.5937678571429,343.1585177878416L609.1089642857144,345.44379099666395L610.6241607142857,344.8594096433078L612.1393571428572,345.2214808767127L613.6545535714287,345.54570250109913L615.16975,346.34980405977007L616.6849464285714,346.3556907894718L618.2001428571429,342.3484310498659L619.7153392857143,341.11187417027696L622.7457321428573,342.38112425029254L624.2609285714285,344.6851265906237L625.776125,346.60720258674786L627.2913214285715,347.30993045165553L628.8065178571429,348.44705572993075L630.3217142857143,348.3274930372767L631.8369107142858,348.60537650051936L633.3521071428572,346.30508385893205L634.8673035714286,346.9986366364526L636.3825,346.81332463327135L637.8976964285714,346.69501656197804L639.4128928571429,347.5743495671215L640.9280892857143,348.98401299306164L642.4432857142858,346.9653840919336L643.9584821428571,345.7898279656887L645.4736785714285,344.4854221777634L646.988875,344.6362923670766L648.5040714285715,343.10979649840834L650.019267857143,343.4163532642455L651.5344642857143,346.3864484670398L653.0496607142858,348.05471729822324L654.5648571428571,348.3981312706493L656.0800535714286,349.0960265768092L657.5952500000001,345.45442576257705L659.1104464285714,347.3750879617003L660.6256428571429,347.0525324582666L662.1408392857144,347.43069229772334L663.6560357142857,346.590483023349L665.1712321428571,347.8368680970273L666.6864285714286,345.49285072092357L668.201625,344.8787419023741L669.7168214285715,347.053933422197L671.232017857143,347.37662468003913L672.7472142857142,344.4594973268263L674.2624107142857,345.7772950115669L675.7776071428572,345.78833744575013L677.2928035714286,346.78108262942715L678.808,345.6481412504457L680.3231964285715,347.32234390503135L681.8383928571429,346.6439729896301L683.3535892857143,341.56172739134695L684.8687857142858,338.66041479476183L686.3839821428571,343.0705983377126L687.8991785714286,345.1266534417687L689.4143750000001,345.44800510016876L690.9295714285715,346.88463985912307L692.4447678571428,347.8074055214102L693.9599642857142,342.3218544604436L695.4751607142857,344.16954459711854L696.9903571428572,345.4892596625551L698.5055535714287,347.7691263054701L700.02075,348.6506660887778L701.5359464285715,347.9011881410149L703.0511428571428,347.561294187447L704.5663392857143,344.9190723193844L706.0815357142857,345.3898649953429L707.5967321428571,344.3908491031655L709.1119285714286,345.15428119543924L710.6271250000001,346.28973971505303L713.6575178571428,345.7328324468338L715.1727142857143,344.74507323046276L716.6879107142857,343.0606816406761L718.2031071428572,343.1263044195209L719.7183035714287,345.2313894884281L721.2335,342.8084560844882L722.7486964285714,345.3415385873614L724.2638928571429,339.8855359912025L725.7790892857143,344.55274401326767L727.2942857142857,346.8839493166936L728.8094821428572,348.52219205813464L730.3246785714286,342.3232805112571L731.839875,342.52792320830855L733.3550714285715,342.32880691342694L734.8702678571428,345.01676199710903L736.3854642857143,346.657390083232L737.9006607142858,346.7122029586612L739.4158571428572,348.29160770258665L740.9310535714286,345.3369313509634L742.44625,345.6564229176558L743.9614464285714,347.74557822814154L745.4766428571429,344.6519300057943L746.9918392857144,343.2229680004894L748.5070357142857,345.5120848099306L750.0222321428572,346.37147585210334L751.5374285714286,347.83633312800265L753.052625,345.96539991021893L754.5678214285714,346.19862520961215L756.0830178571429,347.21628420535797L757.5982142857143,347.36402320876925L759.1134107142858,344.7643808785319L760.6286071428573,346.9289953598487L762.1438035714285,346.836349609493L763.659,347.4433163239711L765.1741964285715,345.77103791161903L766.6893928571429,346.9933609146033L768.2045892857143,348.1334703721345L769.7197857142858,343.7767017603589L771.2349821428571,344.2223264402758L772.7501785714286,345.4572673639347L774.2653750000001,341.5197565536877L775.7805714285714,344.78002131454264L777.2957678571429,346.9768794743082L778.8109642857144,348.2032136780877L780.3261607142858,347.57815085576954L781.8413571428571,347.9460320776035L783.3565535714285,346.6304685926976L784.87175,345.3872862353336L786.3869464285715,344.75158380811564L787.902142857143,345.4288009765001L789.4173392857143,347.2574955539866L790.9325357142857,348.516474975175L792.4477321428571,337.226501808634L793.9629285714286,341.1670115950018L795.4781250000001,342.28020516641885L796.9933214285714,345.6416265522201L798.5085178571429,347.50358852710593L800.0237142857144,347.2259363288222L801.5389107142857,347.753755356203L804.5693035714286,348.9784380404377L806.0845,348.46399078771867L807.5996964285715,348.8431076203881L809.114892857143,348.1132307340795L810.6300892857142,345.6979572202496L812.1452857142857,347.66632557256065L813.6604821428572,348.75859811273574L815.1756785714286,349.12859082906226L816.690875,349.35393940367504L818.2060714285715,349.1702200461122L819.721267857143,347.4180514405726L821.2364642857143,348.29979175658906L822.7516607142858,348.35526225367386L824.2668571428571,348.3494616626934L825.7820535714286,349.0887772097228L827.2972500000001,348.5556242798397L828.8124464285715,346.0449527661716L830.3276428571428,347.1477272320901L831.8428392857143,347.83713727774534L833.3580357142857,347.78596280393435L834.8732321428572,346.9108069013789L836.3884285714287,348.05552910498L837.903625,349.00600046666096L839.4188214285715,349.14036772800387L840.9340178571429,349.59453202179475L842.4492142857143,345.90120249283365L843.9644107142857,347.05396214430743L845.4796071428572,346.62928735638144L846.9948035714286,347.09391172391486L848.5100000000001,345.31195634060697L850.0251964285715,345.09033506069966L851.5403928571428,345.7834397306325L853.0555892857143,346.1922800287163L854.5707857142858,345.0011468299026L856.0859821428572,347.2890534190161L857.6011785714286,345.2564976823805L859.1163750000001,342.14416365405793L860.6315714285714,342.5874853456879L862.1467678571429,340.9324661700055L863.6619642857144,343.19203303882335L865.1771607142857,344.12995702849946L866.6923571428572,343.8911636755523L868.2075535714287,344.8148769907239L869.72275,345.25148971309164L871.2379464285714,345.46018683812326L872.7531428571428,345.7749989120316L874.2683392857143,346.50480124158264L875.7835357142858,344.8998773649835L877.2987321428573,346.1337379335799L878.8139285714286,346.5583699601819L880.329125,348.26540893768043L881.8443214285714,345.2886625338697L883.3595178571429,337.949063868545L884.8747142857144,341.5952315024881L886.3899107142857,345.2131736903167L887.9051071428572,346.5096220491215L889.4203035714286,344.57698701598963L890.9355,346.56923519317166L892.4506964285714,340.3455649297497L895.4810892857143,344.0170279437647L896.9962857142858,347.033493914458L898.5114821428573,345.56737466048753L900.0266785714285,347.73923733502767L901.541875,347.71261594031176L903.0570714285715,345.5475487035942L904.572267857143,347.3902372883342L906.0874642857143,347.2061123165641L907.6026607142858,348.319366268164L909.1178571428571,347.7064275743356L910.6330535714286,346.249018509963L912.1482500000001,344.49400781905445L913.6634464285714,346.784099687043L915.1786428571429,347.71434862839635L916.6938392857144,348.3059716472224L918.2090357142858,345.6341670034683L919.7242321428571,346.9053861767106L921.2394285714286,345.7442303428917L922.754625,347.5866689752626L924.2698214285715,347.0448941005111L925.785017857143,347.6531707155593L927.3002142857143,345.118100052074L928.8154107142857,346.30274885260803L930.3306071428572,343.79479853376534L931.8458035714286,345.78660089075333L933.361,347.8085348157035L934.8761964285715,348.9790222887165L936.3913928571429,349.55912357654864L937.9065892857143,349.8570845930562L939.4217857142858,344.4011251702358L940.9369821428571,346.68850646832544L942.4521785714286,343.7267874669161L943.9673750000001,346.11702922611454L945.4825714285715,346.1725784803551L946.997767857143,346.1114204165883L948.5129642857142,347.631742182764L950.0281607142857,343.457252017451L951.5433571428572,345.95591868403517L953.0585535714287,346.266166168973L954.57375,348.24984320547765L956.0889464285715,349.3561657709948L957.6041428571428,346.5148494896666L959.1193392857143,348.0887268160156L960.6345357142858,348.88243576725847L962.1497321428571,345.72190924199396L963.6649285714286,346.88558644232165L965.1801250000001,346.32537865974217L966.6953214285716,346.9246184406918L968.2105178571428,347.97082437813174L969.7257142857143,344.68141088915286L971.2409107142857,346.92288890695465L972.7561071428572,347.56641253577845L974.2713035714287,348.48066431938054L975.7865,346.30533516243554L977.3016964285714,345.84640738802324L978.8168928571429,346.512661635412L980.3320892857143,347.4237086514059L981.8472857142857,348.55953942544875L983.3624821428572,347.5484167791784" style="fill: none;" fill="none"></path></g></g></g></g><g opacity="0.2"><g><g><g><path stroke="rgb(255, 112, 67)" stroke-width="2px" d="M77.27501785714286,40.15268182754518L78.79021428571428,40.16066408157349L80.30541071428573,40.164236783981316L81.82060714285714,40.159183502197266L83.33580357142857,40.210746288299546L84.851,40.14160966873169L86.36619642857144,40.17849540710451L87.88139285714286,40.161339998245246L89.39658928571428,40.15503144264222L90.91178571428571,40.161018133163466L92.42698214285716,40.16011691093446L93.94217857142857,40.1519093513489L95.457375,40.16162967681883L96.97257142857143,40.18203592300414L98.48776785714287,40.187411069870016L100.0029642857143,40.170770645141594L101.51816071428571,40.21451210975648L103.03335714285714,40.235336780548096L104.54855357142858,40.172605276107795L106.06375000000001,40.143025875091574L107.57894642857143,40.16471958160401L109.09414285714286,40.222011566162095L110.6093392857143,40.18329119682312L112.12453571428573,40.168292284011834L113.63973214285714,40.16835665702822L115.15492857142857,40.206980466842666L116.670125,40.19474959373473L118.18532142857144,40.14579391479493L119.70051785714286,40.18725013732911L121.21571428571428,40.21293497085572L122.73091071428571,40.18837666511536L124.24610714285716,40.17376399040224L125.76130357142858,40.163914918899536L127.2765,40.24331903457641L128.79169642857144,40.18650984764101L130.30689285714286,40.223202466964736L131.8220892857143,40.245958328247085L133.33728571428574,40.17469739913939L134.85248214285716,40.21084284782412L136.36767857142857,40.17006254196169L137.882875,40.21592831611632L139.39807142857143,40.22278404235842L140.91326785714287,40.2989695072174L142.42846428571428,40.251108169555664L143.9436607142857,40.23556208610535L145.45885714285717,40.214801788330064L146.97405357142858,40.196230173110955L148.48925000000003,40.249595403671286L150.00444642857144,40.38384532928468L151.51964285714286,40.295783042907736L153.0348392857143,40.28693175315857L154.5500357142857,40.338655471801765L156.06523214285713,40.2750871181488L157.58042857142857,40.307177066802964L159.095625,40.35043573379515L160.61082142857146,40.477862119674676L162.12601785714287,40.509984254837036L163.64121428571428,40.27000164985655L165.15641071428573,40.507409334182746L168.18680357142856,40.43936705589295L169.702,40.34367656707762L171.21719642857144,40.539724588394165L172.73239285714288,40.52820181846617L174.2475892857143,40.69833970069885L175.7627857142857,40.49099421501162L177.27798214285716,41.44609665870665L178.79317857142857,41.21612405776979L180.308375,42.248699426651015L181.82357142857143,44.83192420005799L183.33876785714287,48.367322444915786L184.8539642857143,50.17018532752991L186.36916071428573,53.567278146743796L187.88435714285714,67.9771456718445L189.39955357142858,84.64875912666324L190.91475,98.35523879528044L192.42994642857144,92.66849434375764L193.94514285714286,138.08480000495913L195.46033928571427,159.16281080245975L196.97553571428574,127.75156295299534L198.49073214285715,205.73243951797485L200.0059285714286,266.4998427629471L201.521125,231.5052226781845L203.03632142857143,254.87617617845538L204.55151785714287,276.9186717867851L206.06671428571428,283.1915003657341L207.5819107142857,240.42754000425342L209.09710714285717,248.496295273304L210.61230357142858,271.64781725406647L212.12750000000003,326.4551602900028L213.64269642857144,269.7367916107178L215.15789285714285,313.56229519844055L216.6730892857143,297.40195637941366L218.1882857142857,307.9547738134861L219.70348214285715,300.69215378165245L221.2186785714286,298.06180796027184L222.733875,304.9869806170464L224.24907142857145,303.6116752624512L225.76426785714287,298.23196998238564L227.27946428571428,320.8730079084635L228.79466071428573,318.4062620848417L230.30985714285714,301.3698608279228L231.82505357142858,324.8122019916773L233.34025,319.2491583377123L234.85544642857144,297.22204989194876L236.37064285714288,307.11985579133034L237.8858392857143,312.42135590314865L239.4010357142857,292.3974291086197L240.91623214285715,312.9056260585785L242.43142857142857,316.3248269855976L243.946625,313.37556517124176L245.46182142857143,324.5545168071985L246.97701785714287,311.45045390725136L248.4922142857143,305.5557403564453L250.00741071428573,316.6631876528263L251.52260714285717,323.66654938459396L253.03780357142858,318.39751137793064L254.553,318.83971577882767L256.06819642857147,305.93453130126005L259.0985892857143,332.7315535247326L260.6137857142857,331.8136808127165L262.1289821428571,332.14537484943867L263.6441785714286,316.70278108119965L265.159375,326.9110660851002L266.6745714285715,319.61263051629066L268.18976785714284,327.12625300884247L269.7049642857143,327.93720012903214L271.2201607142857,318.5948730111122L272.73535714285714,317.8359312415123L274.25055357142855,307.08823657035833L275.76575,337.84256080538034L277.28094642857144,325.9493432790041L278.79614285714285,330.781057164073L280.3113392857143,332.6057103127241L281.82653571428574,309.3936555683613L283.34173214285715,336.38521002978086L284.85692857142857,335.4671954959631L286.37212500000004,330.2096621543169L287.8873214285714,314.05050417780876L289.40251785714287,328.65682607889175L290.91771428571434,315.4854471087456L292.4329107142857,325.80958946049213L293.94810714285717,337.0751036927104L295.4633035714286,323.8636897355318L296.97850000000005,326.2965310961008L298.4936964285714,318.3318287730217L300.0088928571429,338.65769619494677L301.5240892857143,328.69231371581554L303.0392857142857,330.17672127485275L304.5544821428572,319.88012655079365L306.0696785714286,310.9687747657299L307.584875,322.8067532032728L309.1000714285714,320.1865561902523L310.6152678571429,333.1026800572872L312.13046428571425,327.41741417348385L313.6456607142857,329.67197044193745L315.16085714285714,339.711615242064L316.6760535714286,329.8612874597311L318.19125,327.0716948658228L319.70644642857144,328.3703621327877L321.2216428571429,336.5623585358262L322.73683928571427,318.9826741665602L324.25203571428574,334.363979794085L325.76723214285715,343.6910927519202L327.28242857142857,329.53721156716347L328.79762500000004,322.0726071149111L330.31282142857145,333.021594196558L331.82801785714287,340.71172347664833L333.3432142857143,320.69988472759724L334.85841071428575,332.3728067278862L336.3736071428571,334.1673202291131L337.8888035714286,326.44340819120407L339.404,325.68833081424236L340.91919642857147,338.9138183221221L342.4343928571429,326.45427314937115L343.9495892857143,325.6221975982189L345.46478571428577,321.03299698233604L346.9799821428571,327.29083067178726L350.010375,327.27016492187977L351.5255714285714,337.8938872218132L353.04076785714284,326.0789402425289L354.5559642857143,333.7148272097111L356.0711607142857,336.7160561531782L357.58635714285714,334.4720530360937L359.1015535714286,336.82786805927753L360.61675,327.08606211841106L362.13194642857144,340.8526681959629L363.64714285714285,330.9903901666403L365.1623392857143,332.8462823331356L366.67753571428574,338.72194147109985L368.19273214285715,338.5488967448473L369.7079285714286,341.9647884964943L371.223125,326.865693166852L372.73832142857145,340.84457831829786L374.25351785714287,344.47398329526186L375.7687142857143,339.2390760630369L377.2839107142857,331.5670577287674L378.79910714285717,336.04798393696547L380.31430357142864,335.38725024461746L381.8295,339.9383712038398L383.34469642857147,336.50484124571085L384.8598928571429,334.411796875298L386.3750892857143,339.8186937198043L387.8902857142857,340.8113226145506L389.4054821428572,333.93128952383995L390.92067857142854,324.0205124616623L392.435875,336.31840089708567L393.9510714285715,318.6169730722904L395.46626785714284,338.80818723142147L396.9814642857143,338.0394768565893L398.4966607142857,325.90933142602444L400.0118571428572,335.8959479480982L401.52705357142855,345.08000595867634L403.04225,342.62226632237434L404.5574464285715,337.9820752367377L406.07264285714285,338.3168481141329L407.5878392857143,337.6103059798479L409.10303571428574,334.06897938251495L410.61823214285715,331.816430747509L412.13342857142857,335.4257443025708L413.64862500000004,332.4061338454485L415.1638214285714,327.00384771823883L416.67901785714287,324.734797462821L418.19421428571434,333.6964245736599L419.70941071428575,330.80690494179726L421.22460714285717,316.21974205970764L422.7398035714286,336.84314055740833L424.25500000000005,329.4723235666752L425.7701964285714,343.326212413609L427.2853928571429,342.4307324588299L428.8005892857143,344.8164643384516L430.3157857142857,321.5368807911873L431.8309821428572,338.3452899232507L433.3461785714286,339.7364873662591L434.861375,331.28159961104393L436.3765714285714,340.4263407960534L437.8917678571429,337.3125143945217L440.9221607142857,342.43765456974506L442.4373571428572,337.36520370841026L443.9525535714286,343.5583716854453L445.46775,339.82566813379526L446.98294642857144,348.82484935596585L448.4981428571429,327.08675211668015L450.01333928571427,331.65731070935726L451.52853571428574,328.7408107370138L453.04373214285715,333.8446877002716L454.55892857142857,340.6515306830406L456.07412500000004,339.8450514525175L457.58932142857145,343.8539142385125L459.1045178571429,342.34787030518055L460.6197142857143,336.3001843392849L462.13491071428575,344.74938916414976L463.65010714285717,341.03152661025524L465.1653035714286,341.305822044611L466.6805,345.71912490203977L468.19569642857147,341.6965672597289L469.7108928571429,333.6309894025326L471.2260892857143,341.8752979338169L472.74128571428577,335.70963533967733L474.2564821428571,341.0142454728484L475.7716785714286,336.64309135079384L477.286875,336.3710851818323L478.8020714285714,344.00108755007386L480.3172678571429,340.70126789063215L481.8324642857143,328.29367576539516L483.3476607142858,340.976935274899L484.86285714285714,346.0038849748671L486.3780535714286,342.99825854972005L487.89325,335.4636881724L489.40844642857144,317.550732627511L490.92364285714285,338.741060256958L492.4388392857143,338.1687016636133L493.95403571428574,347.3928718585521L495.46923214285715,335.976102411747L496.9844285714286,337.78635008633137L498.499625,343.6560044288635L500.01482142857145,340.09189883619547L501.53001785714287,317.21477991342545L503.04521428571434,343.5655719079077L504.5604107142857,347.63565267808735L506.07560714285717,347.8219718243927L507.59080357142864,340.24326192587614L509.106,332.8359685689211L510.62119642857147,330.87648010253906L512.1363928571429,336.9478845074773L513.6515892857143,344.2697619125247L515.1667857142858,336.58898381888866L516.6819821428571,338.03187078237534L518.1971785714286,346.2383169159293L519.7123750000001,320.63479556143284L521.2275714285714,341.2792661637068L522.7427678571429,343.92101254686713L524.2579642857143,323.91498094797134L525.7731607142857,347.1587713379413L527.2883571428572,336.9566020220518L528.8035535714286,325.41597662866116L531.8339464285715,341.4484173282981L533.349142857143,344.9274132438004L534.8643392857143,343.4637478776276L536.3795357142857,343.71425899118185L537.8947321428572,347.1197864357382L539.4099285714286,349.4832614706829L540.925125,342.43931418657303L542.4403214285715,338.82729998230934L543.9555178571429,347.99785877019167L545.4707142857143,349.6219996539876L546.9859107142858,343.9121969640255L548.5011071428571,344.00480760633945L550.0163035714286,347.33149897679687L551.5315,334.1646990403533L553.0466964285715,345.62788067758083L554.5618928571429,338.5625719875097L556.0770892857142,341.96619363874197L557.5922857142857,337.8843549862504L559.1074821428572,334.80786895751953L560.6226785714287,344.55867203325033L562.137875,348.0986354816705L563.6530714285715,347.6932537034154L565.1682678571428,348.23052548244596L566.6834642857143,339.71379788964987L568.1986607142857,346.3318956680596L569.7138571428571,348.17149794101715L571.2290535714286,336.5546548962593L572.7442500000001,331.86854070425034L574.2594464285716,348.5553104840219L575.7746428571428,348.88107918575406L577.2898392857143,335.22882322221994L578.8050357142857,342.83945283293724L580.3202321428572,345.6198576875031L581.8354285714287,347.5290333610028L583.350625,344.3557914197445L584.8658214285714,347.05947168543935L586.3810178571429,337.654180213809L587.8962142857143,343.6703465357423L589.4114107142857,349.9265763061121L590.9266071428572,346.10359877720475L592.4418035714286,328.7510963380337L593.9570000000001,349.53991902898997L595.4721964285715,346.7221128232777L596.9873928571428,347.9023010507226L598.5025892857143,347.62867952138186L600.0177857142858,334.5347392782569L601.5329821428572,349.74225008301437L603.0481785714286,342.1458345875144L604.563375,349.54644471779466L606.0785714285714,346.17226869240403L607.5937678571429,339.3163759857416L609.1089642857144,348.25957405753434L610.6241607142857,344.13936833292246L612.1393571428572,345.66760436072946L613.6545535714287,345.9451898597181L615.16975,347.34057205170393L616.6849464285714,346.36294408142567L618.2001428571429,337.4109145849943L619.7153392857143,339.5882594436407L622.7457321428573,343.9450216703117L624.2609285714285,347.5239866171032L625.776125,348.9754747962579L627.2913214285715,348.1757915709168L628.8065178571429,349.8481565192342L630.3217142857143,348.18017471954226L631.8369107142858,348.94776862487197L633.3521071428572,343.470794711262L634.8673035714286,347.853192737326L636.3825,346.5849937722087L637.8976964285714,346.54924411699176L639.4128928571429,348.6578134484589L640.9280892857143,350.7209197143093L642.4432857142858,344.47814491018653L643.9584821428571,344.34137488156557L645.4736785714285,342.87820790335536L646.988875,344.8221859931946L648.5040714285715,341.2289355173707L650.019267857143,343.7940749935806L651.5344642857143,350.0460300561972L653.0496607142858,350.1102628223598L654.5648571428571,348.8212663438171L656.0800535714286,349.9559332933277L657.5952500000001,340.96745333075523L659.1104464285714,349.74161817133427L660.6256428571429,346.6550979986787L662.1408392857144,347.8966392427683L663.6560357142857,345.5552251674235L665.1712321428571,349.3725925628096L666.6864285714286,342.6046864539385L668.201625,344.1220721080899L669.7168214285715,349.7340801162645L671.232017857143,347.7742264084518L672.7472142857142,340.865179695189L674.2624107142857,347.4010100159794L675.7776071428572,345.80194330215454L677.2928035714286,348.0042865164578L678.808,344.252195622772L680.3231964285715,349.38520074728876L681.8383928571429,345.80812311172485L683.3535892857143,335.2996747791767L684.8687857142858,335.0855832025409L686.3839821428571,348.50457448884845L687.8991785714286,347.66000705212355L689.4143750000001,345.8439562506974L690.9295714285715,348.6547791156918L692.4447678571428,348.94438464101404L693.9599642857142,335.5628719031811L695.4751607142857,346.4461628012359L696.9903571428572,347.1153371538967L698.5055535714287,350.578247704776L700.02075,349.7368490360677L701.5359464285715,346.9777242410928L703.0511428571428,347.14249628037214L704.5663392857143,341.66347751766443L706.0815357142857,345.96994882822037L707.5967321428571,343.15991880744696L709.1119285714286,346.0949385948479L710.6271250000001,347.6887868195772L713.6575178571428,345.04664313420653L715.1727142857143,343.5280127674341L716.6879107142857,340.9852705746889L718.2031071428572,343.20716105774045L719.7183035714287,347.82515501976013L721.2335,339.8230559974909L722.7486964285714,348.46265809983015L724.2638928571429,333.1629613637924L725.7790892857143,350.3034110404551L727.2942857142857,349.7563272798434L728.8094821428572,350.5407411502674L730.3246785714286,334.68533592671156L731.839875,342.78007224574685L733.3550714285715,342.08346719294786L734.8702678571428,348.3287066537887L736.3854642857143,348.6788782607764L737.9006607142858,346.77974025160074L739.4158571428572,350.237659976352L740.9310535714286,341.69634798914194L742.44625,346.05008216947317L743.9614464285714,350.31971602141857L745.4766428571429,340.84011344611645L746.9918392857144,341.46228267252445L748.5070357142857,348.33260373584926L750.0222321428572,347.430368386209L751.5374285714286,349.6412465572357L753.052625,343.66014290973544L754.5678214285714,346.4859920963645L756.0830178571429,348.47018546797335L757.5982142857143,347.54605876654387L759.1134107142858,341.5612501502037L760.6286071428573,349.59610963147134L762.1438035714285,346.7221968099475L763.659,348.1911860257387L765.1741964285715,343.7105520106852L766.6893928571429,348.4994374718517L768.2045892857143,349.5382480965927L769.7197857142858,338.40854043513536L771.2349821428571,344.7713997066021L772.7501785714286,346.9788910020143L774.2653750000001,336.66818073391914L775.7805714285714,348.79713325202465L777.2957678571429,349.68372256401926L778.8109642857144,349.71423260774463L780.3261607142858,346.80798416398466L781.8413571428571,348.39931429736316L783.3565535714285,345.0095064416528L784.87175,343.85550797358155L786.3869464285715,343.9683076031506L787.902142857143,346.26322927325964L789.4173392857143,349.5107085155323L790.9325357142857,350.06771747628227L792.4477321428571,323.31564201414585L793.9629285714286,346.0222825817764L795.4781250000001,343.6518186740577L796.9933214285714,349.7833779025823L798.5085178571429,349.79779167473316L800.0237142857144,346.88382915593684L801.5389107142857,348.4041038006544L804.5693035714286,350.4874220620841L806.0845,347.8301182799041L807.5996964285715,349.3102337177843L809.114892857143,347.2139181420207L810.6300892857142,342.7219952121377L812.1452857142857,350.09163657808676L813.6604821428572,350.10443392116576L815.1756785714286,349.5844747116789L816.690875,349.63160104025155L818.2060714285715,348.94385155197233L819.721267857143,345.25912940874696L821.2364642857143,349.3862217888236L822.7516607142858,348.4236098304391L824.2668571428571,348.3423145059496L825.7820535714286,349.99971958016977L827.2972500000001,347.89870370551944L828.8124464285715,342.95144679397345L830.3276428571428,348.5065029133111L831.8428392857143,348.68658894114196L833.3580357142857,347.7229085415602L834.8732321428572,345.8324898071587L836.3884285714287,349.4659903915599L837.903625,350.17711696587503L839.4188214285715,349.30592738930136L840.9340178571429,350.15412731235847L842.4492142857143,341.3504928946495L843.9644107142857,348.4743267148733L845.4796071428572,346.1060273498297L846.9948035714286,347.66639531962574L848.5100000000001,343.1163327433169L850.0251964285715,344.81726598367095L851.5403928571428,346.63744369894266L853.0555892857143,346.6960296817124L854.5707857142858,343.5335005670786L856.0859821428572,350.1080811806023L857.6011785714286,342.7520986497402L859.1163750000001,338.3093235120177L860.6315714285714,343.13372100144625L862.1467678571429,338.893246114254L863.6619642857144,345.9761422164738L865.1771607142857,345.28561337292194L866.6923571428572,343.5969361513853L868.2075535714287,345.95302375406027L869.72275,345.7894589602947L871.2379464285714,345.7173315100372L872.7531428571428,346.1628923602402L874.2683392857143,347.40402196906507L875.7835357142858,342.9223818741739L877.2987321428573,347.6540304198861L878.8139285714286,347.08157727867365L880.329125,350.36872482066974L881.8443214285714,341.6208857148886L883.3595178571429,328.90562979876995L884.8747142857144,346.0878309085965L886.3899107142857,349.67099531460553L887.9051071428572,348.10703163407743L889.4203035714286,342.19570456445217L890.9355,349.02396955434233L892.4506964285714,332.6771140694618L895.4810892857143,348.5407948717475L896.9962857142858,350.75021091406234L898.5114821428573,343.7609062939882L900.0266785714285,350.4152824161574L901.541875,347.6798145789653L903.0570714285715,342.87987657263875L904.572267857143,349.6606928659603L906.0874642857143,346.97924404777586L907.6026607142858,349.6910541728139L909.1178571428571,346.9511995408684L910.6330535714286,344.45328234136105L912.1482500000001,342.3315839320421L913.6634464285714,349.60582002438605L915.1786428571429,348.86054821684957L916.6938392857144,349.0349357239902L918.2090357142858,342.3421219959855L919.7242321428571,348.4717098008841L921.2394285714286,344.31352047622204L922.754625,349.85681657586247L924.2698214285715,346.3773500584066L925.785017857143,348.402654401958L927.3002142857143,341.9945308417082L928.8154107142857,347.762405410409L930.3306071428572,340.70464546233416L931.8458035714286,348.2407859377563L933.361,350.29984625894576L934.8761964285715,350.42123006796464L936.3913928571429,350.2738912347704L937.9065892857143,350.224215131253L939.4217857142858,337.67860373854637L940.9369821428571,349.50688699632883L942.4521785714286,340.0775265544653L943.9673750000001,349.06214853655547L945.4825714285715,346.2410230971873L946.997767857143,346.03606494516134L948.5129642857142,349.50499578751624L950.0281607142857,338.31368377804756L951.5433571428572,349.03463296964765L953.0585535714287,346.6484353914857L954.57375,350.6940166968852L956.0889464285715,350.71931321779266L957.6041428571428,343.0139419287443L959.1193392857143,350.0279685216956L960.6345357142858,349.8603985821828L962.1497321428571,341.8276890590787L963.6649285714286,348.3194029927254L965.1801250000001,345.63512264192104L966.6953214285716,347.6629674565047L968.2105178571428,349.2598995510489L969.7257142857143,340.6283835545182L971.2409107142857,349.6847100360319L972.7561071428572,348.35932557843626L974.2713035714287,349.60715312417597L975.7865,343.62501887977123L977.3016964285714,345.2809428088367L978.8168928571429,347.33358204737306L980.3320892857143,348.5462487246841L981.8472857142857,349.95904520060867L983.3624821428572,346.30256923288107" style="fill: none;" fill="none"></path></g></g></g></g></g></g><g transform="translate(51, 378)" clip-path="url(#clip_1)"><clipPath id="clip_1"><rect width="1060" height="22"></rect></clipPath><g><g><line x1="0" y1="0" x2="0" y2="5" style="visibility: inherit;" fill="rgb(0, 0, 0)" stroke="rgb(204, 204, 204)" stroke-width="1px"></line><line x1="75.75982142857143" y1="0" x2="75.75982142857143" y2="5" style="visibility: inherit;" fill="rgb(0, 0, 0)" stroke="rgb(204, 204, 204)" stroke-width="1px"></line><line x1="151.51964285714286" y1="0" x2="151.51964285714286" y2="5" style="visibility: inherit;" fill="rgb(0, 0, 0)" stroke="rgb(204, 204, 204)" stroke-width="1px"></line><line x1="227.27946428571428" y1="0" x2="227.27946428571428" y2="5" style="visibility: inherit;" fill="rgb(0, 0, 0)" stroke="rgb(204, 204, 204)" stroke-width="1px"></line><line x1="303.0392857142857" y1="0" x2="303.0392857142857" y2="5" style="visibility: inherit;" fill="rgb(0, 0, 0)" stroke="rgb(204, 204, 204)" stroke-width="1px"></line><line x1="378.79910714285717" y1="0" x2="378.79910714285717" y2="5" style="visibility: inherit;" fill="rgb(0, 0, 0)" stroke="rgb(204, 204, 204)" stroke-width="1px"></line><line x1="454.55892857142857" y1="0" x2="454.55892857142857" y2="5" style="visibility: inherit;" fill="rgb(0, 0, 0)" stroke="rgb(204, 204, 204)" stroke-width="1px"></line><line x1="530.31875" y1="0" x2="530.31875" y2="5" style="visibility: inherit;" fill="rgb(0, 0, 0)" stroke="rgb(204, 204, 204)" stroke-width="1px"></line><line x1="606.0785714285714" y1="0" x2="606.0785714285714" y2="5" style="visibility: inherit;" fill="rgb(0, 0, 0)" stroke="rgb(204, 204, 204)" stroke-width="1px"></line><line x1="681.8383928571429" y1="0" x2="681.8383928571429" y2="5" style="visibility: inherit;" fill="rgb(0, 0, 0)" stroke="rgb(204, 204, 204)" stroke-width="1px"></line><line x1="757.5982142857143" y1="0" x2="757.5982142857143" y2="5" style="visibility: inherit;" fill="rgb(0, 0, 0)" stroke="rgb(204, 204, 204)" stroke-width="1px"></line><line x1="833.3580357142857" y1="0" x2="833.3580357142857" y2="5" style="visibility: inherit;" fill="rgb(0, 0, 0)" stroke="rgb(204, 204, 204)" stroke-width="1px"></line><line x1="909.1178571428571" y1="0" x2="909.1178571428571" y2="5" style="visibility: inherit;" fill="rgb(0, 0, 0)" stroke="rgb(204, 204, 204)" stroke-width="1px"></line><line x1="984.8776785714286" y1="0" x2="984.8776785714286" y2="5" style="visibility: inherit;" fill="rgb(0, 0, 0)" stroke="rgb(204, 204, 204)" stroke-width="1px"></line><line x1="1060.6375" y1="0" x2="1060.6375" y2="5" style="visibility: inherit;" fill="rgb(0, 0, 0)" stroke="rgb(204, 204, 204)" stroke-width="1px"></line></g><g transform="translate(0, 8)"><text x="0" y="0" dx="0em" dy="0.95em" style="text-anchor: middle; visibility: hidden; font-family: Roboto, sans-serif; font-size: 12px; font-weight: 200;" fill="rgb(50, 49, 63)" stroke="none" stroke-width="1px">-500</text><text x="75.75982142857143" y="0" dx="0em" dy="0.95em" style="text-anchor: middle; visibility: inherit; font-family: Roboto, sans-serif; font-size: 12px; font-weight: 200;" fill="rgb(50, 49, 63)" stroke="none" stroke-width="1px">0</text><text x="151.51964285714286" y="0" dx="0em" dy="0.95em" style="text-anchor: middle; visibility: inherit; font-family: Roboto, sans-serif; font-size: 12px; font-weight: 200;" fill="rgb(50, 49, 63)" stroke="none" stroke-width="1px">500</text><text x="227.27946428571428" y="0" dx="0em" dy="0.95em" style="text-anchor: middle; visibility: inherit; font-family: Roboto, sans-serif; font-size: 12px; font-weight: 200;" fill="rgb(50, 49, 63)" stroke="none" stroke-width="1px">1k</text><text x="303.0392857142857" y="0" dx="0em" dy="0.95em" style="text-anchor: middle; visibility: inherit; font-family: Roboto, sans-serif; font-size: 12px; font-weight: 200;" fill="rgb(50, 49, 63)" stroke="none" stroke-width="1px">1.5k</text><text x="378.79910714285717" y="0" dx="0em" dy="0.95em" style="text-anchor: middle; visibility: inherit; font-family: Roboto, sans-serif; font-size: 12px; font-weight: 200;" fill="rgb(50, 49, 63)" stroke="none" stroke-width="1px">2k</text><text x="454.55892857142857" y="0" dx="0em" dy="0.95em" style="text-anchor: middle; visibility: inherit; font-family: Roboto, sans-serif; font-size: 12px; font-weight: 200;" fill="rgb(50, 49, 63)" stroke="none" stroke-width="1px">2.5k</text><text x="530.31875" y="0" dx="0em" dy="0.95em" style="text-anchor: middle; visibility: inherit; font-family: Roboto, sans-serif; font-size: 12px; font-weight: 200;" fill="rgb(50, 49, 63)" stroke="none" stroke-width="1px">3k</text><text x="606.0785714285714" y="0" dx="0em" dy="0.95em" style="text-anchor: middle; visibility: inherit; font-family: Roboto, sans-serif; font-size: 12px; font-weight: 200;" fill="rgb(50, 49, 63)" stroke="none" stroke-width="1px">3.5k</text><text x="681.8383928571429" y="0" dx="0em" dy="0.95em" style="text-anchor: middle; visibility: inherit; font-family: Roboto, sans-serif; font-size: 12px; font-weight: 200;" fill="rgb(50, 49, 63)" stroke="none" stroke-width="1px">4k</text><text x="757.5982142857143" y="0" dx="0em" dy="0.95em" style="text-anchor: middle; visibility: inherit; font-family: Roboto, sans-serif; font-size: 12px; font-weight: 200;" fill="rgb(50, 49, 63)" stroke="none" stroke-width="1px">4.5k</text><text x="833.3580357142857" y="0" dx="0em" dy="0.95em" style="text-anchor: middle; visibility: inherit; font-family: Roboto, sans-serif; font-size: 12px; font-weight: 200;" fill="rgb(50, 49, 63)" stroke="none" stroke-width="1px">5k</text><text x="909.1178571428571" y="0" dx="0em" dy="0.95em" style="text-anchor: middle; visibility: inherit; font-family: Roboto, sans-serif; font-size: 12px; font-weight: 200;" fill="rgb(50, 49, 63)" stroke="none" stroke-width="1px">5.5k</text><text x="984.8776785714286" y="0" dx="0em" dy="0.95em" style="text-anchor: middle; visibility: inherit; font-family: Roboto, sans-serif; font-size: 12px; font-weight: 200;" fill="rgb(50, 49, 63)" stroke="none" stroke-width="1px">6k</text><text x="1060.6375" y="0" dx="0em" dy="0.95em" style="text-anchor: middle; visibility: hidden; font-family: Roboto, sans-serif; font-size: 12px; font-weight: 200;" fill="rgb(50, 49, 63)" stroke="none" stroke-width="1px">6.5k</text></g><line x1="0" y1="0" x2="1060.6375" y2="0" fill="rgb(0, 0, 0)" stroke="rgb(204, 204, 204)" stroke-width="1px"></line></g></g></g></g></svg>