<svg viewBox="0 0 1112.2000732421875 400" xmlns="http://www.w3.org/2000/svg"><g><g><g><g><g><line x1="41.171875" y1="378" x2="36.171875" y2="378" style="visibility: inherit;" fill="rgb(0, 0, 0)" stroke="rgb(204, 204, 204)" stroke-width="1px"></line><line x1="41.171875" y1="343.6363636363636" x2="36.171875" y2="343.6363636363636" style="visibility: inherit;" fill="rgb(0, 0, 0)" stroke="rgb(204, 204, 204)" stroke-width="1px"></line><line x1="41.171875" y1="309.27272727272725" x2="36.171875" y2="309.27272727272725" style="visibility: inherit;" fill="rgb(0, 0, 0)" stroke="rgb(204, 204, 204)" stroke-width="1px"></line><line x1="41.171875" y1="274.90909090909093" x2="36.171875" y2="274.90909090909093" style="visibility: inherit;" fill="rgb(0, 0, 0)" stroke="rgb(204, 204, 204)" stroke-width="1px"></line><line x1="41.171875" y1="240.54545454545453" x2="36.171875" y2="240.54545454545453" style="visibility: inherit;" fill="rgb(0, 0, 0)" stroke="rgb(204, 204, 204)" stroke-width="1px"></line><line x1="41.171875" y1="206.18181818181816" x2="36.171875" y2="206.18181818181816" style="visibility: inherit;" fill="rgb(0, 0, 0)" stroke="rgb(204, 204, 204)" stroke-width="1px"></line><line x1="41.171875" y1="171.81818181818184" x2="36.171875" y2="171.81818181818184" style="visibility: inherit;" fill="rgb(0, 0, 0)" stroke="rgb(204, 204, 204)" stroke-width="1px"></line><line x1="41.171875" y1="137.4545454545455" x2="36.171875" y2="137.4545454545455" style="visibility: inherit;" fill="rgb(0, 0, 0)" stroke="rgb(204, 204, 204)" stroke-width="1px"></line><line x1="41.171875" y1="103.09090909090908" x2="36.171875" y2="103.09090909090908" style="visibility: inherit;" fill="rgb(0, 0, 0)" stroke="rgb(204, 204, 204)" stroke-width="1px"></line><line x1="41.171875" y1="68.72727272727275" x2="36.171875" y2="68.72727272727275" style="visibility: inherit;" fill="rgb(0, 0, 0)" stroke="rgb(204, 204, 204)" stroke-width="1px"></line><line x1="41.171875" y1="34.363636363636374" x2="36.171875" y2="34.363636363636374" style="visibility: inherit;" fill="rgb(0, 0, 0)" stroke="rgb(204, 204, 204)" stroke-width="1px"></line><line x1="41.171875" y1="0" x2="36.171875" y2="0" style="visibility: inherit;" fill="rgb(0, 0, 0)" stroke="rgb(204, 204, 204)" stroke-width="1px"></line></g><g transform="translate(31.171875, 0)"><text x="0" y="378" dx="0em" dy="0.3em" style="text-anchor: end; visibility: hidden; font-family: Roboto, sans-serif; font-size: 12px; font-weight: 200;" fill="rgb(50, 49, 63)" stroke="none" stroke-width="1px">0</text><text x="0" y="343.6363636363636" dx="0em" dy="0.3em" style="text-anchor: end; visibility: inherit; font-family: Roboto, sans-serif; font-size: 12px; font-weight: 200;" fill="rgb(50, 49, 63)" stroke="none" stroke-width="1px">0.1</text><text x="0" y="309.27272727272725" dx="0em" dy="0.3em" style="text-anchor: end; visibility: inherit; font-family: Roboto, sans-serif; font-size: 12px; font-weight: 200;" fill="rgb(50, 49, 63)" stroke="none" stroke-width="1px">0.2</text><text x="0" y="274.90909090909093" dx="0em" dy="0.3em" style="text-anchor: end; visibility: inherit; font-family: Roboto, sans-serif; font-size: 12px; font-weight: 200;" fill="rgb(50, 49, 63)" stroke="none" stroke-width="1px">0.3</text><text x="0" y="240.54545454545453" dx="0em" dy="0.3em" style="text-anchor: end; visibility: inherit; font-family: Roboto, sans-serif; font-size: 12px; font-weight: 200;" fill="rgb(50, 49, 63)" stroke="none" stroke-width="1px">0.4</text><text x="0" y="206.18181818181816" dx="0em" dy="0.3em" style="text-anchor: end; visibility: inherit; font-family: Roboto, sans-serif; font-size: 12px; font-weight: 200;" fill="rgb(50, 49, 63)" stroke="none" stroke-width="1px">0.5</text><text x="0" y="171.81818181818184" dx="0em" dy="0.3em" style="text-anchor: end; visibility: inherit; font-family: Roboto, sans-serif; font-size: 12px; font-weight: 200;" fill="rgb(50, 49, 63)" stroke="none" stroke-width="1px">0.6</text><text x="0" y="137.4545454545455" dx="0em" dy="0.3em" style="text-anchor: end; visibility: inherit; font-family: Roboto, sans-serif; font-size: 12px; font-weight: 200;" fill="rgb(50, 49, 63)" stroke="none" stroke-width="1px">0.7</text><text x="0" y="103.09090909090908" dx="0em" dy="0.3em" style="text-anchor: end; visibility: inherit; font-family: Roboto, sans-serif; font-size: 12px; font-weight: 200;" fill="rgb(50, 49, 63)" stroke="none" stroke-width="1px">0.8</text><text x="0" y="68.72727272727275" dx="0em" dy="0.3em" style="text-anchor: end; visibility: inherit; font-family: Roboto, sans-serif; font-size: 12px; font-weight: 200;" fill="rgb(50, 49, 63)" stroke="none" stroke-width="1px">0.9</text><text x="0" y="34.363636363636374" dx="0em" dy="0.3em" style="text-anchor: end; visibility: inherit; font-family: Roboto, sans-serif; font-size: 12px; font-weight: 200;" fill="rgb(50, 49, 63)" stroke="none" stroke-width="1px">1</text><text x="0" y="0" dx="0em" dy="0.3em" style="text-anchor: end; visibility: hidden; font-family: Roboto, sans-serif; font-size: 12px; font-weight: 200;" fill="rgb(50, 49, 63)" stroke="none" stroke-width="1px">1.1</text></g><line x1="41.171875" y1="0" x2="41.171875" y2="378" fill="rgb(0, 0, 0)" stroke="rgb(204, 204, 204)" stroke-width="1px"></line></g></g><g transform="translate(41, 0)" clip-path="url(#clip_0)"><clipPath id="clip_0"><rect width="1071" height="378"></rect></clipPath><g><g><g><line x1="0" y1="0" x2="0" y2="378" fill="rgb(0, 0, 0)" stroke="rgb(60, 60, 60)" stroke-width="1px" opacity="0.25"></line><line x1="76.50200892857143" y1="0" x2="76.50200892857143" y2="378" fill="rgb(0, 0, 0)" stroke="rgb(60, 60, 60)" stroke-width="1px" opacity="0.25"></line><line x1="153.00401785714286" y1="0" x2="153.00401785714286" y2="378" fill="rgb(0, 0, 0)" stroke="rgb(60, 60, 60)" stroke-width="1px" opacity="0.25"></line><line x1="229.50602678571428" y1="0" x2="229.50602678571428" y2="378" fill="rgb(0, 0, 0)" stroke="rgb(60, 60, 60)" stroke-width="1px" opacity="0.25"></line><line x1="306.0080357142857" y1="0" x2="306.0080357142857" y2="378" fill="rgb(0, 0, 0)" stroke="rgb(60, 60, 60)" stroke-width="1px" opacity="0.25"></line><line x1="382.51004464285717" y1="0" x2="382.51004464285717" y2="378" fill="rgb(0, 0, 0)" stroke="rgb(60, 60, 60)" stroke-width="1px" opacity="0.25"></line><line x1="459.01205357142857" y1="0" x2="459.01205357142857" y2="378" fill="rgb(0, 0, 0)" stroke="rgb(60, 60, 60)" stroke-width="1px" opacity="0.25"></line><line x1="535.5140625" y1="0" x2="535.5140625" y2="378" fill="rgb(0, 0, 0)" stroke="rgb(60, 60, 60)" stroke-width="1px" opacity="0.25"></line><line x1="612.0160714285714" y1="0" x2="612.0160714285714" y2="378" fill="rgb(0, 0, 0)" stroke="rgb(60, 60, 60)" stroke-width="1px" opacity="0.25"></line><line x1="688.5180803571429" y1="0" x2="688.5180803571429" y2="378" fill="rgb(0, 0, 0)" stroke="rgb(60, 60, 60)" stroke-width="1px" opacity="0.25"></line><line x1="765.0200892857143" y1="0" x2="765.0200892857143" y2="378" fill="rgb(0, 0, 0)" stroke="rgb(60, 60, 60)" stroke-width="1px" opacity="0.25"></line><line x1="841.5220982142857" y1="0" x2="841.5220982142857" y2="378" fill="rgb(0, 0, 0)" stroke="rgb(60, 60, 60)" stroke-width="1px" opacity="0.25"></line><line x1="918.0241071428571" y1="0" x2="918.0241071428571" y2="378" fill="rgb(0, 0, 0)" stroke="rgb(60, 60, 60)" stroke-width="1px" opacity="0.25"></line><line x1="994.5261160714286" y1="0" x2="994.5261160714286" y2="378" fill="rgb(0, 0, 0)" stroke="rgb(60, 60, 60)" stroke-width="1px" opacity="0.25"></line><line x1="1071.028125" y1="0" x2="1071.028125" y2="378" fill="rgb(0, 0, 0)" stroke="rgb(60, 60, 60)" stroke-width="1px" opacity="0.25"></line></g><g><line x1="0" y1="378" x2="1071.028125" y2="378" fill="rgb(0, 0, 0)" stroke="rgb(60, 60, 60)" stroke-width="1px" opacity="0.25"></line><line x1="0" y1="343.6363636363636" x2="1071.028125" y2="343.6363636363636" fill="rgb(0, 0, 0)" stroke="rgb(60, 60, 60)" stroke-width="1px" opacity="0.25"></line><line x1="0" y1="309.27272727272725" x2="1071.028125" y2="309.27272727272725" fill="rgb(0, 0, 0)" stroke="rgb(60, 60, 60)" stroke-width="1px" opacity="0.25"></line><line x1="0" y1="274.90909090909093" x2="1071.028125" y2="274.90909090909093" fill="rgb(0, 0, 0)" stroke="rgb(60, 60, 60)" stroke-width="1px" opacity="0.25"></line><line x1="0" y1="240.54545454545453" x2="1071.028125" y2="240.54545454545453" fill="rgb(0, 0, 0)" stroke="rgb(60, 60, 60)" stroke-width="1px" opacity="0.25"></line><line x1="0" y1="206.18181818181816" x2="1071.028125" y2="206.18181818181816" fill="rgb(0, 0, 0)" stroke="rgb(60, 60, 60)" stroke-width="1px" opacity="0.25"></line><line x1="0" y1="171.81818181818184" x2="1071.028125" y2="171.81818181818184" fill="rgb(0, 0, 0)" stroke="rgb(60, 60, 60)" stroke-width="1px" opacity="0.25"></line><line x1="0" y1="137.4545454545455" x2="1071.028125" y2="137.4545454545455" fill="rgb(0, 0, 0)" stroke="rgb(60, 60, 60)" stroke-width="1px" opacity="0.25"></line><line x1="0" y1="103.09090909090908" x2="1071.028125" y2="103.09090909090908" fill="rgb(0, 0, 0)" stroke="rgb(60, 60, 60)" stroke-width="1px" opacity="0.25"></line><line x1="0" y1="68.72727272727275" x2="1071.028125" y2="68.72727272727275" fill="rgb(0, 0, 0)" stroke="rgb(60, 60, 60)" stroke-width="1px" opacity="0.25"></line><line x1="0" y1="34.363636363636374" x2="1071.028125" y2="34.363636363636374" fill="rgb(0, 0, 0)" stroke="rgb(60, 60, 60)" stroke-width="1px" opacity="0.25"></line><line x1="0" y1="0" x2="1071.028125" y2="0" fill="rgb(0, 0, 0)" stroke="rgb(60, 60, 60)" stroke-width="1px" opacity="0.25"></line></g></g></g><g><g><line x1="0" y1="378" x2="1071.028125" y2="378" fill="rgb(0, 0, 0)" stroke="rgb(153, 153, 153)" stroke-width="1.5px"></line></g></g><g><g><line x1="76.50200892857143" y1="0" x2="76.50200892857143" y2="378" fill="rgb(0, 0, 0)" stroke="rgb(153, 153, 153)" stroke-width="1.5px"></line></g></g><g><g><g><g><g><path stroke="rgb(255, 112, 67)" stroke-width="2px" d="M78.03204910714285,347.0727260437879L79.5620892857143,340.4302719468504L81.09212946428572,344.007823401976L82.62216964285714,342.1273245853384L84.15220982142857,336.3492847761745L85.68225000000001,341.29325177976636L87.21229017857144,337.66787959831566L88.74233035714286,340.3650097667381L90.27237053571429,341.83758301427144L91.80241071428571,334.9278322507165L93.33245089285715,335.75146707182205L94.86249107142856,331.58310920908383L96.39253125,336.985353577389L97.92257142857143,333.8062670920183L99.45261160714287,322.81376106281016L100.9826517857143,321.36574278005975L102.51269196428571,320.56651150266345L104.04273214285715,317.0463077414224L105.57277232142857,319.72174131609495L107.10281250000001,330.43556580006714L108.63285267857142,342.50753304611266L110.16289285714286,338.39476851179035L111.69293303571429,336.1245285000806L113.22297321428573,331.79237240320714L114.75301339285714,340.17746553385336L116.28305357142857,326.33213963185415L117.81309375000001,332.5449418378779L119.34313392857143,326.7374618193129L120.87317410714286,326.6107143661282L122.40321428571428,328.08024153769793L123.93325446428572,330.4309122682266L125.46329464285715,333.2679730915584L126.99333482142859,331.7550483228956L128.523375,333.99889618184613L130.05341517857144,335.23750019736207L131.58345535714287,328.2237543755205L133.1134955357143,324.3521666843639L134.64353571428572,329.9125055144701L136.17357589285714,334.5213031361457L137.70361607142857,335.525868835033L139.23365625000002,339.15937027672254L140.76369642857142,331.9281183977563L142.29373660714288,327.9364673606398L143.8237767857143,328.8120571640435L145.3538169642857,332.37436505839344L146.88385714285715,328.18279551733787L148.41389732142858,335.1059938052645L149.94393750000003,332.76963576147153L151.47397767857143,320.70353085878935L153.00401785714286,320.2010033042238L154.5340580357143,326.0815727398366L156.0640982142857,327.78815533335637L157.59413839285713,319.4932431033903L159.1241785714286,327.23037969690427L160.65421875,323.8038238628632L162.18425892857144,326.530837953267L163.71429910714286,312.6412415578688L165.2443392857143,317.2901113450539L166.77437946428572,310.61934164599137L169.83445982142857,311.55554968290323L171.36450000000002,318.23029887099085L172.89454017857142,315.75679807110293L174.42458035714287,323.6283714511535L175.9546205357143,323.355007046147L177.48466071428572,330.90156398123395L179.01470089285715,311.97490114945043L180.54474107142858,321.54076435040133L182.07478125000003,308.34722919414884L183.60482142857143,313.3803247853423L185.13486160714285,317.69808528661923L186.6649017857143,323.1604702591803L188.19494196428573,320.01774211830144L189.72498214285713,305.9670314811117L191.25502232142858,295.1320557395066L192.7850625,275.2957303977575L194.31510267857144,278.2014975414951L195.84514285714286,252.09464354007216L197.3751830357143,219.20977307614973L198.90522321428574,196.43884708122982L200.43526339285714,163.8559148479386L201.9653035714286,127.39624461198454L203.49534375000002,111.88898414057267L205.02538392857142,106.40795524218925L206.55542410714287,95.6849709096109L208.0854642857143,85.14741523527373L209.61550446428572,93.18609864738217L211.14554464285715,93.0049835681122L212.67558482142857,92.90500804435513L214.20562500000003,75.9154193529818L215.73566517857145,81.9320791566852L217.26570535714285,74.4768309297419L218.7957455357143,78.05899028913993L220.32578571428573,76.95736337369175L221.85582589285715,71.73078781752955L223.38586607142858,68.845718110528L224.91590625,70.33214769017998L226.44594642857146,69.6131673772299L227.97598660714286,72.29526912631735L229.50602678571428,64.53884347022499L231.03606696428574,63.33627538989795L232.56610714285713,68.83042474931011L234.0961473214286,61.08675993319901L235.62618750000001,58.35174639562363L237.15622767857144,64.5394753035528L238.68626785714287,61.79713472097687L240.2163080357143,64.90184021822976L241.74634821428572,69.69461653454928L243.27638839285714,69.26125017932178L244.80642857142857,61.32457557056546L246.33646875000002,64.64098756720267L247.86650892857145,64.93214837234756L249.39654910714285,60.47440081403361L250.9265892857143,64.17169110159709L252.45662946428573,61.59411784149737L253.98666964285718,57.092318520086366L255.51670982142858,57.68630417650348L257.04675,54.93520537700976L258.57679017857146,64.1930341021959L261.6368705357143,55.447932238075126L263.16691071428573,52.16013462607933L264.69695089285716,51.88475978517561L266.2269910714286,57.89071063666862L267.75703125,58.12701662485685L269.28707142857144,58.257457530336744L270.81711160714286,56.78997146924368L272.3471517857143,54.4404297226023L273.8771919642857,56.222461560292224L275.40723214285714,54.127164252861135L276.93727232142857,63.74699540166582L278.46731250000005,55.20171887538256L279.9973526785715,52.024224849873L281.52739285714284,50.27024814779174L283.0574330357143,49.30205300824288L284.58747321428575,54.92556705488381L286.1175133928571,50.33229042795885L287.6475535714286,47.79680172989628L289.17759375,49.47620002648259L290.7076339285714,53.48220676803417L292.2376741071429,49.53555554961783L293.7677142857143,51.97548157588681L295.2977544642857,50.24334186055136L296.82779464285716,49.28720073768619L298.3578348214286,53.37787916061856L299.88787500000007,52.55695476824126L301.41791517857143,55.18278338548501L302.94795535714286,50.4742738424507L304.47799553571434,50.954164632612596L306.0080357142857,54.29804323061794L307.53807589285714,59.22284309855281L309.0681160714286,58.8623537438169L310.59815625,60.202853060920646L312.1281964285714,56.32434036120804L313.6582366071429,49.564923852131884L315.18827678571427,48.91271399703867L316.71831696428575,45.47370609911039L318.2483571428572,42.035884298536004L319.7783973214286,47.835663045289614L321.3084375,47.958162031661715L322.83847767857145,51.10476035397508L324.3685178571429,46.68371568813929L325.8985580357143,50.40126597235072L327.4285982142857,49.37437484739943L328.95863839285715,45.72854288850954L330.4886785714286,48.334521146037105L332.01871875,52.852000026028264L333.54875892857143,49.18768142803058L335.07879910714286,45.625488121017945L336.6088392857143,52.89610323713563L338.13887946428576,52.29101445847869L339.66891964285713,50.41751601174209L341.19895982142856,49.38334486914345L342.72900000000004,54.97044016210093L344.25904017857147,50.35706038314275L345.78908035714284,53.96844168491059L347.3191205357143,54.42243472256842L348.84916071428574,56.21252832027355L350.3792008928571,55.66117054528875L353.43928125,53.81733161257923L354.96932142857145,49.72054446380674L356.4993616071429,52.07759545651914L358.0294017857143,51.83919816357836L359.5594419642857,48.62861479995829L361.08948214285715,46.85637278323996L362.6195223214286,45.878095190011464L364.14956250000006,48.41707401646619L365.6796026785714,46.73960227075235L367.20964285714285,45.81363786711831L368.73968303571434,48.38149357422913L370.2697232142857,48.259460483636296L371.79976339285713,45.113110159712335L373.3298035714286,43.376324780906245L374.85984375,47.03609675064004L376.38988392857146,44.437813379098344L377.9199241071429,41.46407151708932L379.44996428571426,45.98053294901312L380.98000446428574,50.01310910035301L382.51004464285717,49.16011225405671L384.0400848214286,48.68925799490117L385.570125,48.42934644384727L387.10016517857144,48.28587526766554L388.63020535714287,48.206679178413204L390.1602455357143,43.544485438311135L391.6902857142857,44.04993337561076L393.2203258928572,45.868439253999014L394.7503660714286,51.49072282162323L396.28040625,48.43625641119903L397.8104464285715,49.82917901056171L399.34048660714285,44.440105345657166L400.8705267857143,47.62330362238258L402.40056696428576,46.30144101321816L403.9306071428572,47.11127146995827L405.46064732142855,46.01879926507997L406.99068750000004,42.33677572615122L408.52072767857146,44.9227762314973L410.05076785714283,43.27126045253159L411.5808080357143,42.35962374254245L413.11084821428574,46.474877777463284L414.64088839285716,48.74649800473957L416.1709285714286,48.46094292927809L417.70096875,49.842805968541334L419.23100892857144,49.06610492529665L420.76104910714287,51.71634483126152L422.2910892857143,50.1002983775182L423.8211294642858,49.2082407350519L425.35116964285714,50.25531435732847L426.88120982142857,49.29380955590716L428.41125000000005,50.3025483464406L429.9412901785714,44.70140521906221L431.4713303571429,44.68855309458534L433.00137053571433,41.60247984003814L434.5314107142857,46.05693434328088L436.0614508928572,45.43680517115405L437.5914910714286,45.094493868140034L439.12153125,49.524015527711086L440.65157142857146,48.89013260195835L442.1816116071429,48.54022922694285L445.24169196428574,46.80758394693547L446.77173214285716,45.85116375237139L448.3017723214286,45.32321980497205L449.8318125,46.5712933630064L451.36185267857144,41.10226302728864L452.8918928571429,47.32030410356115L454.4219330357143,47.67368389582757L455.9519732142857,50.9477284229946L457.4820133928572,46.597034062238095L459.01205357142857,42.6559613341825L460.54209375,43.55946807013175L462.0721339285715,42.518714347457745L463.6021741071429,41.944218292541734L465.13221428571427,44.70608452814492L466.66225446428575,41.612157191363046L468.1922946428572,41.44379874237748L469.7223348214286,41.350864878537465L471.25237500000003,38.22058650386179L472.78241517857145,41.11114116379469L474.3124553571429,44.24622595307653L475.8424955357143,44.437294139761235L477.37253571428573,43.00327433789324L478.90257589285716,40.67220596634413L480.4326160714286,45.54342316500177L481.96265625,48.2323350586608L483.49269642857143,45.09813692512584L485.02273660714286,43.368059555414526L486.5527767857143,50.11051322800456L488.08281696428577,47.67438071552151L489.61285714285714,41.71116724587701L491.1428973214286,41.49845229246918L492.67293750000005,42.92052307910599L494.2029776785714,48.32398365216429L495.7330178571429,45.14872694873972L497.2630580357143,46.474973306366195L498.7930982142857,41.049094356023254L500.3231383928572,45.75146555610466L501.8531785714286,45.26818640063281L503.38321874999997,45.00141630681234L504.91325892857145,43.31466977410543L506.4432991071429,54.699519567556756L507.97333928571436,48.668022774036345L509.50337946428573,43.799147103095116L511.03341964285715,41.11152773273559L512.5634598214286,41.16745128121513L514.0935,50.435266901564475L515.6235401785715,49.39314336032545L517.1535803571429,47.27839254856265L518.6836205357143,44.57156065955162L520.2136607142858,41.53790001589953L521.7437008928572,44.481796839438374L523.2737410714286,43.027839828115034L524.80378125,45.30424361578133L526.3338214285715,46.56081850657317L527.8638616071429,44.17545978837345L529.3939017857143,53.63517703843385L530.9239419642857,45.00152681612456L532.4539821428572,43.314730775245835L533.9840223214286,45.46260741859756L537.0441026785714,45.10873670872888L538.5741428571429,41.8344211950454L540.1041830357144,40.0269990314921L541.6342232142857,39.0293019972107L543.1642633928572,38.47857323428742L544.6943035714286,36.63508151623574L546.22434375,37.156963528789156L547.7543839285714,38.98453184063665L549.284424107143,36.9143706669405L550.8144642857143,35.77164169906026L552.3445044642857,39.759323631544255L553.8745446428571,40.4210346173575L555.4045848214286,39.246809640608376L556.9346250000001,46.29609383411364L558.4646651785715,44.02933176917576L559.994705357143,44.31756855024804L561.5247455357143,44.476675253399925L563.0547857142857,47.6434902114566L564.5848258928571,44.77309456946911L566.1148660714287,43.18863617509203L567.6449062500001,39.23503625955987L569.1749464285715,38.59213854710415L570.7049866071428,36.6977695689106L572.2350267857142,41.810044832700505L573.7650669642857,40.01354327947771L575.2951071428572,37.482384981180815L576.8251473214286,40.70365392327481L578.3551875,44.021292996309526L579.8852276785715,39.69466282487198L581.4152678571428,37.30636297023843L582.9453080357143,42.14598839023345L584.4753482142858,41.73847356415392L586.0053883928572,39.974035939240004L587.5354285714286,39.00006637028759L589.06546875,40.00192460914381L590.5955089285713,37.475971475156506L592.1255491071429,42.23961228494824L593.6555892857143,43.32964339495444L595.1856294642857,39.31287224492395L596.7156696428572,38.63510401102506L598.2457098214286,42.87945344474768L599.7757500000001,39.06436739240983L601.3057901785714,38.497929332437266L602.8358303571429,38.18525552333244L604.3658705357143,38.0126595807066L605.8959107142857,40.99636550221304L607.4259508928571,38.02490284813067L608.9559910714287,41.00312378583114L610.48603125,39.568122861605836L612.0160714285714,40.315491792351416L613.5461116071428,40.72803944212305L615.0761517857143,39.41627630387901L616.6061919642858,38.692183051568264L618.1362321428572,38.29248357629274L619.6662723214287,38.07184946594066L621.1963125,37.95005943702627L622.7263526785714,37.88283134106559L624.2563928571428,42.46419893093004L625.7864330357144,43.4536152235364L628.8465133928572,42.46028357613716L630.3765535714285,38.83298562493682L631.90659375,36.83071715587425L633.4366339285715,37.2649544018696L634.9666741071429,35.96516392074113L636.4967142857143,36.78716901607617L638.0267544642858,37.24091582870112L639.5567946428572,37.49138406927009L641.0868348214285,36.090153097146214L642.616875,36.85616304145179L644.1469151785715,38.81848997162643L645.6769553571429,36.82271555524689L647.2069955357143,35.72104807740537L648.7370357142858,36.65241707055489L650.2670758928571,38.70602219569134L651.7971160714286,39.83961222476667L653.32715625,38.92586447989825L654.8571964285715,39.96096516564891L656.3872366071429,40.53234074418322L657.9172767857143,37.76876118169826L659.4473169642858,36.24326526320653L660.9773571428572,36.94068095711712L662.5073973214286,35.78616497923777L664.0374375,38.22785104128425L665.5674776785714,36.49668286569804L667.0975178571429,37.080567473692355L668.6275580357144,35.863382336387275L670.1575982142857,38.2704750224308L671.6876383928571,36.52021130329091L673.2176785714286,38.63304461216166L674.74771875,38.25983915774029L676.2777589285715,36.51434030598175L677.807799107143,35.55082493981103L679.3378392857143,38.097943339520754L680.8678794642857,36.424973814324545L682.3979196428571,38.58047351825222L683.9279598214285,38.230819913902295L685.4580000000001,38.037811124301136L686.9880401785715,36.39178083152334L688.5180803571429,38.56215099174595L690.0481205357142,38.22070587927084L691.5781607142857,42.65070567601934L693.1082008928572,38.93809862407175L694.6382410714286,38.428228972314685L696.1682812500001,38.1467809245448L697.6983214285715,36.451932161257815L699.2283616071428,37.05586508484138L700.7584017857142,38.92872549957747L702.2884419642858,38.42305500759387L703.8184821428572,38.14392489601892L705.3485223214286,36.450355633511535L706.8785625,35.5155054006075L708.4086026785715,36.538957512962426L709.9386428571429,35.56441363806438L711.4686830357143,36.56595486003864L712.9987232142857,37.1188056145684L714.5287633928572,38.96346867198681L716.0588035714286,38.44223323876376L717.58884375,38.15451127962463L720.6489241071429,37.99568875817988L722.1789642857143,40.98699760817828L723.7090044642857,42.63820009337743L725.2390446428572,40.4706849833714L726.7690848214287,39.27421664264809L728.2991250000001,40.153255559486816L729.8291651785714,37.55950615974582L731.3592053571429,40.74622481384271L732.8892455357143,37.886825188150276L734.4192857142857,36.30843659476809L735.9493258928572,35.43716609122107L737.4793660714287,41.11419171301588L739.00940625,41.16892179832982L740.5394464285714,42.73862224634106L742.0694866071428,38.986628570889394L743.5995267857143,36.91552806204001L745.1295669642858,38.85125946299113L746.6596071428572,36.840804314480216L748.1896473214287,40.349501395256105L749.7196875,40.74681274292637L751.2497276785714,37.88714972500445L752.7797678571429,39.38759462094749L754.3098080357144,44.83431770234284L755.8398482142858,41.682941903520344L757.3698883928572,39.94338246257035L758.8999285714285,37.44365621024792L760.42996875,42.2217742587187L761.9600089285715,40.240817922639806L763.4900491071429,39.14733002512425L765.0200892857143,40.0832141466136L766.5501294642858,40.59982218167579L768.0801696428572,37.80601093519413L769.6102098214286,36.263827127136274L771.14025,36.95203110600625L772.6702901785715,37.33191970234257L774.2003303571429,36.00212876660219L775.7303705357143,35.26808417007353L777.2604107142857,37.941870434625635L778.7904508928572,39.417800452658376L780.3204910714286,38.69302438169449L781.85053125,39.832437431440376L783.3805714285714,38.92190399398216L784.9106116071429,36.87980009558727L786.4406517857144,35.75255874367329L787.9706919642858,36.66981095833473L789.5007321428571,37.17613418082778L791.0307723214286,38.995114040562L792.5608125,38.45970148221729L794.0908526785714,39.70364319092901L795.620892857143,40.39029901413784L797.1509330357144,37.6903541467132L798.6809732142857,36.199984579894775L800.2110133928571,44.6142464005997L801.7410535714286,41.56146254495808L803.2710937500001,39.8763258566439L804.8011339285715,37.40664096377653L806.3311741071429,36.043374902913776L807.8612142857144,36.83034147823547L809.3912544642857,37.26474702781306L812.4513348214286,35.96504945026191L813.9813750000001,36.78710582837165L815.5114151785715,37.24088094908825L817.0414553571429,35.951875374805816L818.5714955357142,36.779833738719866L820.1015357142857,35.69737731468245L821.6315758928572,35.099861368613844L823.1616160714286,36.30952200730189L824.69165625,35.437765238939726L826.2216964285715,34.95655550280385L827.7517366071429,37.76990661029276L829.2817767857143,36.2438975397907L830.8118169642858,36.94102997379149L832.3418571428572,37.325847077359974L833.8718973214286,35.99877667761182L835.4019375,38.345212698786774L836.9319776785715,39.64044538247536L838.4620178571429,37.27643494203551L839.9920580357143,35.971501178912696L841.5220982142857,35.25117774166891L843.0521383928572,36.39304864522829L844.5821785714286,35.48387194307512L846.1122187500001,34.982006403486565L847.6422589285716,34.704976625633684L849.1722991071429,34.552056188258895L850.7023392857143,37.546622988663934L852.2323794642857,37.66013442156952L853.7624196428571,39.262282173451425L855.2924598214287,38.60717829157223L856.8225000000001,39.78505038969294L858.3525401785714,38.89574634693754L859.8825803571428,38.40485051533658L861.4126205357143,39.67336545721082L862.9426607142858,41.91307514604339L864.4727008928572,38.53092657152505L866.0027410714287,39.74295944022686L867.5327812500001,40.41200158375032L869.0628214285714,39.241823406057264L870.5928616071428,38.595885051970676L872.1229017857144,39.778816521432816L873.6529419642858,40.431794692575934L875.1829821428572,40.792238643046986L876.7130223214286,39.451714262788975L878.2430625,40.251234245804575L879.7731026785714,39.15307983551116L881.3031428571429,40.0863880419472L882.8331830357143,39.06208473098191L884.3632232142858,40.03615874424704L885.8932633928572,39.03435815865147L887.4233035714286,38.48136423540265L888.95334375,36.636622148851366L890.4833839285715,38.69730339891099L892.0134241071429,39.83479944894393L893.5434642857143,38.92320782764415L895.0735044642857,36.88051981176864L896.6035446428572,37.29244546792342L898.1335848214286,39.05931787103876L899.663625,36.95565255572252L901.1936651785715,40.41289762442185L904.2537455357143,37.70282857958994L905.7837857142858,36.20687046684276L907.3138258928573,36.92059102952431L908.8438660714286,35.7750753392065L910.37390625,35.14275067815111L911.9039464285714,36.33319690616648L913.4339866071429,35.45083378311298L914.9640267857144,38.04274822102343L916.4940669642858,36.394506108914044L918.0241071428571,37.0241659039476L919.5541473214286,38.91122755172409L921.0841875,39.95288558129675L922.6142276785715,37.44890193178495L924.144267857143,36.066702957254364L925.6743080357144,35.30372912331351L927.2043482142858,36.42205700789613L928.7343883928571,37.039374000185695L930.2644285714285,37.38013297992958L931.7944687500001,36.02874249583024L933.3245089285715,38.361753830443355L934.8545491071429,38.110086646231814L936.3845892857144,37.97116636054704L937.9146294642857,37.894482362849004L939.4446696428572,39.391642237037665L940.9747098214286,38.678585046671834L942.5047500000001,36.74548803667198L944.0347901785715,35.67841848715206L945.5648303571429,35.08939609581704L947.0948705357142,34.76425573580011L948.6249107142858,36.124267697988714L950.1549508928572,35.33550486019888L951.6849910714286,36.43959721465682L953.21503125,37.04905619431768L954.7450714285715,38.92496699200841L956.275111607143,38.42098031141568L957.8051517857143,36.60329022281054L959.3351919642857,38.678904175736456L960.8652321428572,36.745664195915595L962.3952723214286,38.75749460889047L963.9253125,36.78904611501665L965.4553526785716,35.7024625463983L966.9853928571429,39.72113673927489L968.5154330357143,37.32097657098885L970.0454732142857,35.996088158094956L971.5755133928571,38.34372863601344L973.1055535714286,38.10013673890645L974.6355937500001,37.96567401170347L976.1656339285715,37.89145058628741L977.6956741071428,37.85047925545774L979.2257142857143,39.367352521757745L980.7557544642857,37.125687682919384L982.2857946428572,37.427778132798544L983.8158348214287,36.05504262021388L985.3458750000001,36.8367820581851L986.8759151785714,38.80779166886326L988.4059553571428,39.895788973957565L989.9359955357143,38.95687404545165L991.4660357142858,36.89910356399843L992.9960758928572,37.30270369915422" style="fill: none;" fill="none"></path></g></g></g></g><g opacity="0.2"><g><g><g><path stroke="rgb(255, 112, 67)" stroke-width="2px" d="M78.03204910714285,347.0727260437879L79.5620892857143,336.7636372853409L81.09212946428572,347.0727260437879L82.62216964285714,340.20000020482325L84.15220982142857,329.89090888608587L85.68225000000001,347.0727260437879L87.21229017857144,333.3272743658586L88.74233035714286,343.63636312430555L90.27237053571429,343.63636312430555L91.80241071428571,326.4545434063131L93.33245089285715,336.7636372853409L94.86249107142856,326.4545434063131L96.39253125,343.63636312430555L97.92257142857143,329.89090888608587L99.45261160714287,309.27272624861115L100.9826517857143,319.5818175673485L102.51269196428571,319.5818175673485L104.04273214285715,312.70909172838384L105.57277232142857,323.0181830471212L107.10281250000001,343.63636312430555L108.63285267857142,357.38181864267045L110.16289285714286,333.3272743658586L111.69293303571429,333.3272743658586L113.22297321428573,326.4545434063131L114.75301339285714,350.5090915235606L116.28305357142857,309.27272624861115L117.81309375000001,340.20000020482325L119.34313392857143,319.5818175673485L120.87317410714286,326.4545434063131L122.40321428571428,329.89090888608587L123.93325446428572,333.3272743658586L125.46329464285715,336.7636372853409L126.99333482142859,329.89090888608587L128.523375,336.7636372853409L130.05341517857144,336.7636372853409L131.58345535714287,319.5818175673485L133.1134955357143,319.5818175673485L134.64353571428572,336.7636372853409L136.17357589285714,340.20000020482325L137.70361607142857,336.7636372853409L139.23365625000002,343.63636312430555L140.76369642857142,323.0181830471212L142.29373660714288,323.0181830471212L143.8237767857143,329.89090888608587L145.3538169642857,336.7636372853409L146.88385714285715,323.0181830471212L148.41389732142858,343.63636312430555L149.94393750000003,329.89090888608587L151.47397767857143,305.83636588941926L153.00401785714286,319.5818175673485L154.5340580357143,333.3272743658586L156.0640982142857,329.89090888608587L157.59413839285713,309.27272624861115L159.1241785714286,336.7636372853409L160.65421875,319.5818175673485L162.18425892857144,329.89090888608587L163.71429910714286,295.52727457068187L165.2443392857143,323.0181830471212L166.77437946428572,302.40000040964645L169.83445982142857,312.70909172838384L171.36450000000002,326.4545434063131L172.89454017857142,312.70909172838384L174.42458035714287,333.3272743658586L175.9546205357143,323.0181830471212L177.48466071428572,340.20000020482325L179.01470089285715,288.65454873171717L180.54474107142858,333.3272743658586L182.07478125000003,292.09090909090907L183.60482142857143,319.5818175673485L185.13486160714285,323.0181830471212L186.6649017857143,329.89090888608587L188.19494196428573,316.14545208757573L189.72498214285713,288.65454873171717L191.25502232142858,281.78181777217173L192.7850625,250.8545438159596L194.31510267857144,281.78181777217173L195.84514285714286,219.9272698597475L197.3751830357143,178.69091482595965L198.90522321428574,168.3818132660606L200.43526339285714,123.70908763191919L201.9653035714286,82.47272235696967L203.49534375000002,92.78182391686877L205.02538392857142,99.65454463525256L206.55542410714287,82.47272235696967L208.0854642857143,72.16364127939399L209.61550446428572,103.09090499444446L211.14554464285715,92.78182391686877L212.67558482142857,92.78182391686877L214.20562500000003,54.98181900111115L215.73566517857145,89.34546355767688L217.26570535714285,65.29090007868683L218.7957455357143,82.47272235696967L220.32578571428573,75.60000163858588L221.85582589285715,65.29090007868683L223.38586607142858,65.29090007868683L224.91590625,72.16364127939399L226.44594642857146,68.72728092020209L227.97598660714286,75.60000163858588L229.50602678571428,54.98181900111115L231.03606696428574,61.85453971949494L232.56610714285713,75.60000163858588L234.0961473214286,51.545458641919254L235.62618750000001,54.98181900111115L237.15622767857144,72.16364127939399L238.68626785714287,58.41817936030304L240.2163080357143,68.72728092020209L241.74634821428572,75.60000163858588L243.27638839285714,68.72728092020209L244.80642857142857,51.545458641919254L246.33646875000002,68.72728092020209L247.86650892857145,65.29090007868683L249.39654910714285,54.98181900111115L250.9265892857143,68.72728092020209L252.45662946428573,58.41817936030304L253.98666964285718,51.545458641919254L255.51670982142858,58.41817936030304L257.04675,51.545458641919254L258.57679017857146,75.60000163858588L261.6368705357143,44.67271744121206L263.16691071428573,48.10909828272736L264.69695089285716,51.545458641919254L266.2269910714286,65.29090007868683L267.75703125,58.41817936030304L269.28707142857144,58.41817936030304L270.81711160714286,54.98181900111115L272.3471517857143,51.545458641919254L273.8771919642857,58.41817936030304L275.40723214285714,51.545458641919254L276.93727232142857,75.60000163858588L278.46731250000005,44.67271744121206L279.9973526785715,48.10909828272736L281.52739285714284,48.10909828272736L283.0574330357143,48.10909828272736L284.58747321428575,61.85453971949494L286.1175133928571,44.67271744121206L287.6475535714286,44.67271744121206L289.17759375,51.545458641919254L290.7076339285714,58.41817936030304L292.2376741071429,44.67271744121206L293.7677142857143,54.98181900111115L295.2977544642857,48.10909828272736L296.82779464285716,48.10909828272736L298.3578348214286,58.41817936030304L299.88787500000007,51.545458641919254L301.41791517857143,58.41817936030304L302.94795535714286,44.67271744121206L304.47799553571434,51.545458641919254L306.0080357142857,58.41817936030304L307.53807589285714,65.29090007868683L309.0681160714286,58.41817936030304L310.59815625,61.85453971949494L312.1281964285714,51.545458641919254L313.6582366071429,41.23635708202016L315.18827678571427,48.10909828272736L316.71831696428575,41.23635708202016L318.2483571428572,37.79999672282827L319.7783973214286,54.98181900111115L321.3084375,48.10909828272736L322.83847767857145,54.98181900111115L324.3685178571429,41.23635708202016L325.8985580357143,54.98181900111115L327.4285982142857,48.10909828272736L328.95863839285715,41.23635708202016L330.4886785714286,51.545458641919254L332.01871875,58.41817936030304L333.54875892857143,44.67271744121206L335.07879910714286,41.23635708202016L336.6088392857143,61.85453971949494L338.13887946428576,51.545458641919254L339.66891964285713,48.10909828272736L341.19895982142856,48.10909828272736L342.72900000000004,61.85453971949494L344.25904017857147,44.67271744121206L345.78908035714284,58.41817936030304L347.3191205357143,54.98181900111115L348.84916071428574,58.41817936030304L350.3792008928571,54.98181900111115L353.43928125,51.545458641919254L354.96932142857145,44.67271744121206L356.4993616071429,54.98181900111115L358.0294017857143,51.545458641919254L359.5594419642857,44.67271744121206L361.08948214285715,44.67271744121206L362.6195223214286,44.67271744121206L364.14956250000006,51.545458641919254L365.6796026785714,44.67271744121206L367.20964285714285,44.67271744121206L368.73968303571434,51.545458641919254L370.2697232142857,48.10909828272736L371.79976339285713,41.23635708202016L373.3298035714286,41.23635708202016L374.85984375,51.545458641919254L376.38988392857146,41.23635708202016L377.9199241071429,37.79999672282827L379.44996428571426,51.545458641919254L380.98000446428574,54.98181900111115L382.51004464285717,48.10909828272736L384.0400848214286,48.10909828272736L385.570125,48.10909828272736L387.10016517857144,48.10909828272736L388.63020535714287,48.10909828272736L390.1602455357143,37.79999672282827L391.6902857142857,44.67271744121206L393.2203258928572,48.10909828272736L394.7503660714286,58.41817936030304L396.28040625,44.67271744121206L397.8104464285715,51.545458641919254L399.34048660714285,37.79999672282827L400.8705267857143,51.545458641919254L402.40056696428576,44.67271744121206L403.9306071428572,48.10909828272736L405.46064732142855,44.67271744121206L406.99068750000004,37.79999672282827L408.52072767857146,48.10909828272736L410.05076785714283,41.23635708202016L411.5808080357143,41.23635708202016L413.11084821428574,51.545458641919254L414.64088839285716,51.545458641919254L416.1709285714286,48.10909828272736L417.70096875,51.545458641919254L419.23100892857144,48.10909828272736L420.76104910714287,54.98181900111115L422.2910892857143,48.10909828272736L423.8211294642858,48.10909828272736L425.35116964285714,51.545458641919254L426.88120982142857,48.10909828272736L428.41125000000005,51.545458641919254L429.9412901785714,37.79999672282827L431.4713303571429,44.67271744121206L433.00137053571433,37.79999672282827L434.5314107142857,51.545458641919254L436.0614508928572,44.67271744121206L437.5914910714286,44.67271744121206L439.12153125,54.98181900111115L440.65157142857146,48.10909828272736L442.1816116071429,48.10909828272736L445.24169196428574,44.67271744121206L446.77173214285716,44.67271744121206L448.3017723214286,44.67271744121206L449.8318125,48.10909828272736L451.36185267857144,34.363636363636374L452.8918928571429,54.98181900111115L454.4219330357143,48.10909828272736L455.9519732142857,54.98181900111115L457.4820133928572,41.23635708202016L459.01205357142857,37.79999672282827L460.54209375,44.67271744121206L462.0721339285715,41.23635708202016L463.6021741071429,41.23635708202016L465.13221428571427,48.10909828272736L466.66225446428575,37.79999672282827L468.1922946428572,41.23635708202016L469.7223348214286,41.23635708202016L471.25237500000003,34.363636363636374L472.78241517857145,44.67271744121206L474.3124553571429,48.10909828272736L475.8424955357143,44.67271744121206L477.37253571428573,41.23635708202016L478.90257589285716,37.79999672282827L480.4326160714286,51.545458641919254L481.96265625,51.545458641919254L483.49269642857143,41.23635708202016L485.02273660714286,41.23635708202016L486.5527767857143,58.41817936030304L488.08281696428577,44.67271744121206L489.61285714285714,34.363636363636374L491.1428973214286,41.23635708202016L492.67293750000005,44.67271744121206L494.2029776785714,54.98181900111115L495.7330178571429,41.23635708202016L497.2630580357143,48.10909828272736L498.7930982142857,34.363636363636374L500.3231383928572,51.545458641919254L501.8531785714286,44.67271744121206L503.38321874999997,44.67271744121206L504.91325892857145,41.23635708202016L506.4432991071429,68.72728092020209L507.97333928571436,41.23635708202016L509.50337946428573,37.79999672282827L511.03341964285715,37.79999672282827L512.5634598214286,41.23635708202016L514.0935,61.85453971949494L515.6235401785715,48.10909828272736L517.1535803571429,44.67271744121206L518.6836205357143,41.23635708202016L520.2136607142858,37.79999672282827L521.7437008928572,48.10909828272736L523.2737410714286,41.23635708202016L524.80378125,48.10909828272736L526.3338214285715,48.10909828272736L527.8638616071429,41.23635708202016L529.3939017857143,65.29090007868683L530.9239419642857,34.363636363636374L532.4539821428572,41.23635708202016L533.9840223214286,48.10909828272736L537.0441026785714,44.67271744121206L538.5741428571429,37.79999672282827L540.1041830357144,37.79999672282827L541.6342232142857,37.79999672282827L543.1642633928572,37.79999672282827L544.6943035714286,34.363636363636374L546.22434375,37.79999672282827L547.7543839285714,41.23635708202016L549.284424107143,34.363636363636374L550.8144642857143,34.363636363636374L552.3445044642857,44.67271744121206L553.8745446428571,41.23635708202016L555.4045848214286,37.79999672282827L556.9346250000001,54.98181900111115L558.4646651785715,41.23635708202016L559.994705357143,44.67271744121206L561.5247455357143,44.67271744121206L563.0547857142857,51.545458641919254L564.5848258928571,41.23635708202016L566.1148660714287,41.23635708202016L567.6449062500001,34.363636363636374L569.1749464285715,37.79999672282827L570.7049866071428,34.363636363636374L572.2350267857142,48.10909828272736L573.7650669642857,37.79999672282827L575.2951071428572,34.363636363636374L576.8251473214286,44.67271744121206L578.3551875,48.10909828272736L579.8852276785715,34.363636363636374L581.4152678571428,34.363636363636374L582.9453080357143,48.10909828272736L584.4753482142858,41.23635708202016L586.0053883928572,37.79999672282827L587.5354285714286,37.79999672282827L589.06546875,41.23635708202016L590.5955089285713,34.363636363636374L592.1255491071429,48.10909828272736L593.6555892857143,44.67271744121206L595.1856294642857,34.363636363636374L596.7156696428572,37.79999672282827L598.2457098214286,48.10909828272736L599.7757500000001,34.363636363636374L601.3057901785714,37.79999672282827L602.8358303571429,37.79999672282827L604.3658705357143,37.79999672282827L605.8959107142857,44.67271744121206L607.4259508928571,34.363636363636374L608.9559910714287,44.67271744121206L610.48603125,37.79999672282827L612.0160714285714,41.23635708202016L613.5461116071428,41.23635708202016L615.0761517857143,37.79999672282827L616.6061919642858,37.79999672282827L618.1362321428572,37.79999672282827L619.6662723214287,37.79999672282827L621.1963125,37.79999672282827L622.7263526785714,37.79999672282827L624.2563928571428,48.10909828272736L625.7864330357144,44.67271744121206L628.8465133928572,41.23635708202016L630.3765535714285,34.363636363636374L631.90659375,34.363636363636374L633.4366339285715,37.79999672282827L634.9666741071429,34.363636363636374L636.4967142857143,37.79999672282827L638.0267544642858,37.79999672282827L639.5567946428572,37.79999672282827L641.0868348214285,34.363636363636374L642.616875,37.79999672282827L644.1469151785715,41.23635708202016L645.6769553571429,34.363636363636374L647.2069955357143,34.363636363636374L648.7370357142858,37.79999672282827L650.2670758928571,41.23635708202016L651.7971160714286,41.23635708202016L653.32715625,37.79999672282827L654.8571964285715,41.23635708202016L656.3872366071429,41.23635708202016L657.9172767857143,34.363636363636374L659.4473169642858,34.363636363636374L660.9773571428572,37.79999672282827L662.5073973214286,34.363636363636374L664.0374375,41.23635708202016L665.5674776785714,34.363636363636374L667.0975178571429,37.79999672282827L668.6275580357144,34.363636363636374L670.1575982142857,41.23635708202016L671.6876383928571,34.363636363636374L673.2176785714286,41.23635708202016L674.74771875,37.79999672282827L676.2777589285715,34.363636363636374L677.807799107143,34.363636363636374L679.3378392857143,41.23635708202016L680.8678794642857,34.363636363636374L682.3979196428571,41.23635708202016L683.9279598214285,37.79999672282827L685.4580000000001,37.79999672282827L686.9880401785715,34.363636363636374L688.5180803571429,41.23635708202016L690.0481205357142,37.79999672282827L691.5781607142857,48.10909828272736L693.1082008928572,34.363636363636374L694.6382410714286,37.79999672282827L696.1682812500001,37.79999672282827L697.6983214285715,34.363636363636374L699.2283616071428,37.79999672282827L700.7584017857142,41.23635708202016L702.2884419642858,37.79999672282827L703.8184821428572,37.79999672282827L705.3485223214286,34.363636363636374L706.8785625,34.363636363636374L708.4086026785715,37.79999672282827L709.9386428571429,34.363636363636374L711.4686830357143,37.79999672282827L712.9987232142857,37.79999672282827L714.5287633928572,41.23635708202016L716.0588035714286,37.79999672282827L717.58884375,37.79999672282827L720.6489241071429,37.79999672282827L722.1789642857143,44.67271744121206L723.7090044642857,44.67271744121206L725.2390446428572,37.79999672282827L726.7690848214287,37.79999672282827L728.2991250000001,41.23635708202016L729.8291651785714,34.363636363636374L731.3592053571429,44.67271744121206L732.8892455357143,34.363636363636374L734.4192857142857,34.363636363636374L735.9493258928572,34.363636363636374L737.4793660714287,48.10909828272736L739.00940625,41.23635708202016L740.5394464285714,44.67271744121206L742.0694866071428,34.363636363636374L743.5995267857143,34.363636363636374L745.1295669642858,41.23635708202016L746.6596071428572,34.363636363636374L748.1896473214287,44.67271744121206L749.7196875,41.23635708202016L751.2497276785714,34.363636363636374L752.7797678571429,41.23635708202016L754.3098080357144,51.545458641919254L755.8398482142858,37.79999672282827L757.3698883928572,37.79999672282827L758.8999285714285,34.363636363636374L760.42996875,48.10909828272736L761.9600089285715,37.79999672282827L763.4900491071429,37.79999672282827L765.0200892857143,41.23635708202016L766.5501294642858,41.23635708202016L768.0801696428572,34.363636363636374L769.6102098214286,34.363636363636374L771.14025,37.79999672282827L772.6702901785715,37.79999672282827L774.2003303571429,34.363636363636374L775.7303705357143,34.363636363636374L777.2604107142857,41.23635708202016L778.7904508928572,41.23635708202016L780.3204910714286,37.79999672282827L781.85053125,41.23635708202016L783.3805714285714,37.79999672282827L784.9106116071429,34.363636363636374L786.4406517857144,34.363636363636374L787.9706919642858,37.79999672282827L789.5007321428571,37.79999672282827L791.0307723214286,41.23635708202016L792.5608125,37.79999672282827L794.0908526785714,41.23635708202016L795.620892857143,41.23635708202016L797.1509330357144,34.363636363636374L798.6809732142857,34.363636363636374L800.2110133928571,54.98181900111115L801.7410535714286,37.79999672282827L803.2710937500001,37.79999672282827L804.8011339285715,34.363636363636374L806.3311741071429,34.363636363636374L807.8612142857144,37.79999672282827L809.3912544642857,37.79999672282827L812.4513348214286,34.363636363636374L813.9813750000001,37.79999672282827L815.5114151785715,37.79999672282827L817.0414553571429,34.363636363636374L818.5714955357142,37.79999672282827L820.1015357142857,34.363636363636374L821.6315758928572,34.363636363636374L823.1616160714286,37.79999672282827L824.69165625,34.363636363636374L826.2216964285715,34.363636363636374L827.7517366071429,41.23635708202016L829.2817767857143,34.363636363636374L830.8118169642858,37.79999672282827L832.3418571428572,37.79999672282827L833.8718973214286,34.363636363636374L835.4019375,41.23635708202016L836.9319776785715,41.23635708202016L838.4620178571429,34.363636363636374L839.9920580357143,34.363636363636374L841.5220982142857,34.363636363636374L843.0521383928572,37.79999672282827L844.5821785714286,34.363636363636374L846.1122187500001,34.363636363636374L847.6422589285716,34.363636363636374L849.1722991071429,34.363636363636374L850.7023392857143,41.23635708202016L852.2323794642857,37.79999672282827L853.7624196428571,41.23635708202016L855.2924598214287,37.79999672282827L856.8225000000001,41.23635708202016L858.3525401785714,37.79999672282827L859.8825803571428,37.79999672282827L861.4126205357143,41.23635708202016L862.9426607142858,44.67271744121206L864.4727008928572,34.363636363636374L866.0027410714287,41.23635708202016L867.5327812500001,41.23635708202016L869.0628214285714,37.79999672282827L870.5928616071428,37.79999672282827L872.1229017857144,41.23635708202016L873.6529419642858,41.23635708202016L875.1829821428572,41.23635708202016L876.7130223214286,37.79999672282827L878.2430625,41.23635708202016L879.7731026785714,37.79999672282827L881.3031428571429,41.23635708202016L882.8331830357143,37.79999672282827L884.3632232142858,41.23635708202016L885.8932633928572,37.79999672282827L887.4233035714286,37.79999672282827L888.95334375,34.363636363636374L890.4833839285715,41.23635708202016L892.0134241071429,41.23635708202016L893.5434642857143,37.79999672282827L895.0735044642857,34.363636363636374L896.6035446428572,37.79999672282827L898.1335848214286,41.23635708202016L899.663625,34.363636363636374L901.1936651785715,44.67271744121206L904.2537455357143,34.363636363636374L905.7837857142858,34.363636363636374L907.3138258928573,37.79999672282827L908.8438660714286,34.363636363636374L910.37390625,34.363636363636374L911.9039464285714,37.79999672282827L913.4339866071429,34.363636363636374L914.9640267857144,41.23635708202016L916.4940669642858,34.363636363636374L918.0241071428571,37.79999672282827L919.5541473214286,41.23635708202016L921.0841875,41.23635708202016L922.6142276785715,34.363636363636374L924.144267857143,34.363636363636374L925.6743080357144,34.363636363636374L927.2043482142858,37.79999672282827L928.7343883928571,37.79999672282827L930.2644285714285,37.79999672282827L931.7944687500001,34.363636363636374L933.3245089285715,41.23635708202016L934.8545491071429,37.79999672282827L936.3845892857144,37.79999672282827L937.9146294642857,37.79999672282827L939.4446696428572,41.23635708202016L940.9747098214286,37.79999672282827L942.5047500000001,34.363636363636374L944.0347901785715,34.363636363636374L945.5648303571429,34.363636363636374L947.0948705357142,34.363636363636374L948.6249107142858,37.79999672282827L950.1549508928572,34.363636363636374L951.6849910714286,37.79999672282827L953.21503125,37.79999672282827L954.7450714285715,41.23635708202016L956.275111607143,37.79999672282827L957.8051517857143,34.363636363636374L959.3351919642857,41.23635708202016L960.8652321428572,34.363636363636374L962.3952723214286,41.23635708202016L963.9253125,34.363636363636374L965.4553526785716,34.363636363636374L966.9853928571429,44.67271744121206L968.5154330357143,34.363636363636374L970.0454732142857,34.363636363636374L971.5755133928571,41.23635708202016L973.1055535714286,37.79999672282827L974.6355937500001,37.79999672282827L976.1656339285715,37.79999672282827L977.6956741071428,37.79999672282827L979.2257142857143,41.23635708202016L980.7557544642857,34.363636363636374L982.2857946428572,37.79999672282827L983.8158348214287,34.363636363636374L985.3458750000001,37.79999672282827L986.8759151785714,41.23635708202016L988.4059553571428,41.23635708202016L989.9359955357143,37.79999672282827L991.4660357142858,34.363636363636374L992.9960758928572,37.79999672282827" style="fill: none;" fill="none"></path></g></g></g></g></g></g><g transform="translate(41, 378)" clip-path="url(#clip_1)"><clipPath id="clip_1"><rect width="1071" height="22"></rect></clipPath><g><g><line x1="0" y1="0" x2="0" y2="5" style="visibility: inherit;" fill="rgb(0, 0, 0)" stroke="rgb(204, 204, 204)" stroke-width="1px"></line><line x1="76.50200892857143" y1="0" x2="76.50200892857143" y2="5" style="visibility: inherit;" fill="rgb(0, 0, 0)" stroke="rgb(204, 204, 204)" stroke-width="1px"></line><line x1="153.00401785714286" y1="0" x2="153.00401785714286" y2="5" style="visibility: inherit;" fill="rgb(0, 0, 0)" stroke="rgb(204, 204, 204)" stroke-width="1px"></line><line x1="229.50602678571428" y1="0" x2="229.50602678571428" y2="5" style="visibility: inherit;" fill="rgb(0, 0, 0)" stroke="rgb(204, 204, 204)" stroke-width="1px"></line><line x1="306.0080357142857" y1="0" x2="306.0080357142857" y2="5" style="visibility: inherit;" fill="rgb(0, 0, 0)" stroke="rgb(204, 204, 204)" stroke-width="1px"></line><line x1="382.51004464285717" y1="0" x2="382.51004464285717" y2="5" style="visibility: inherit;" fill="rgb(0, 0, 0)" stroke="rgb(204, 204, 204)" stroke-width="1px"></line><line x1="459.01205357142857" y1="0" x2="459.01205357142857" y2="5" style="visibility: inherit;" fill="rgb(0, 0, 0)" stroke="rgb(204, 204, 204)" stroke-width="1px"></line><line x1="535.5140625" y1="0" x2="535.5140625" y2="5" style="visibility: inherit;" fill="rgb(0, 0, 0)" stroke="rgb(204, 204, 204)" stroke-width="1px"></line><line x1="612.0160714285714" y1="0" x2="612.0160714285714" y2="5" style="visibility: inherit;" fill="rgb(0, 0, 0)" stroke="rgb(204, 204, 204)" stroke-width="1px"></line><line x1="688.5180803571429" y1="0" x2="688.5180803571429" y2="5" style="visibility: inherit;" fill="rgb(0, 0, 0)" stroke="rgb(204, 204, 204)" stroke-width="1px"></line><line x1="765.0200892857143" y1="0" x2="765.0200892857143" y2="5" style="visibility: inherit;" fill="rgb(0, 0, 0)" stroke="rgb(204, 204, 204)" stroke-width="1px"></line><line x1="841.5220982142857" y1="0" x2="841.5220982142857" y2="5" style="visibility: inherit;" fill="rgb(0, 0, 0)" stroke="rgb(204, 204, 204)" stroke-width="1px"></line><line x1="918.0241071428571" y1="0" x2="918.0241071428571" y2="5" style="visibility: inherit;" fill="rgb(0, 0, 0)" stroke="rgb(204, 204, 204)" stroke-width="1px"></line><line x1="994.5261160714286" y1="0" x2="994.5261160714286" y2="5" style="visibility: inherit;" fill="rgb(0, 0, 0)" stroke="rgb(204, 204, 204)" stroke-width="1px"></line><line x1="1071.028125" y1="0" x2="1071.028125" y2="5" style="visibility: inherit;" fill="rgb(0, 0, 0)" stroke="rgb(204, 204, 204)" stroke-width="1px"></line></g><g transform="translate(0, 8)"><text x="0" y="0" dx="0em" dy="0.95em" style="text-anchor: middle; visibility: hidden; font-family: Roboto, sans-serif; font-size: 12px; font-weight: 200;" fill="rgb(50, 49, 63)" stroke="none" stroke-width="1px">-500</text><text x="76.50200892857143" y="0" dx="0em" dy="0.95em" style="text-anchor: middle; visibility: inherit; font-family: Roboto, sans-serif; font-size: 12px; font-weight: 200;" fill="rgb(50, 49, 63)" stroke="none" stroke-width="1px">0</text><text x="153.00401785714286" y="0" dx="0em" dy="0.95em" style="text-anchor: middle; visibility: inherit; font-family: Roboto, sans-serif; font-size: 12px; font-weight: 200;" fill="rgb(50, 49, 63)" stroke="none" stroke-width="1px">500</text><text x="229.50602678571428" y="0" dx="0em" dy="0.95em" style="text-anchor: middle; visibility: inherit; font-family: Roboto, sans-serif; font-size: 12px; font-weight: 200;" fill="rgb(50, 49, 63)" stroke="none" stroke-width="1px">1k</text><text x="306.0080357142857" y="0" dx="0em" dy="0.95em" style="text-anchor: middle; visibility: inherit; font-family: Roboto, sans-serif; font-size: 12px; font-weight: 200;" fill="rgb(50, 49, 63)" stroke="none" stroke-width="1px">1.5k</text><text x="382.51004464285717" y="0" dx="0em" dy="0.95em" style="text-anchor: middle; visibility: inherit; font-family: Roboto, sans-serif; font-size: 12px; font-weight: 200;" fill="rgb(50, 49, 63)" stroke="none" stroke-width="1px">2k</text><text x="459.01205357142857" y="0" dx="0em" dy="0.95em" style="text-anchor: middle; visibility: inherit; font-family: Roboto, sans-serif; font-size: 12px; font-weight: 200;" fill="rgb(50, 49, 63)" stroke="none" stroke-width="1px">2.5k</text><text x="535.5140625" y="0" dx="0em" dy="0.95em" style="text-anchor: middle; visibility: inherit; font-family: Roboto, sans-serif; font-size: 12px; font-weight: 200;" fill="rgb(50, 49, 63)" stroke="none" stroke-width="1px">3k</text><text x="612.0160714285714" y="0" dx="0em" dy="0.95em" style="text-anchor: middle; visibility: inherit; font-family: Roboto, sans-serif; font-size: 12px; font-weight: 200;" fill="rgb(50, 49, 63)" stroke="none" stroke-width="1px">3.5k</text><text x="688.5180803571429" y="0" dx="0em" dy="0.95em" style="text-anchor: middle; visibility: inherit; font-family: Roboto, sans-serif; font-size: 12px; font-weight: 200;" fill="rgb(50, 49, 63)" stroke="none" stroke-width="1px">4k</text><text x="765.0200892857143" y="0" dx="0em" dy="0.95em" style="text-anchor: middle; visibility: inherit; font-family: Roboto, sans-serif; font-size: 12px; font-weight: 200;" fill="rgb(50, 49, 63)" stroke="none" stroke-width="1px">4.5k</text><text x="841.5220982142857" y="0" dx="0em" dy="0.95em" style="text-anchor: middle; visibility: inherit; font-family: Roboto, sans-serif; font-size: 12px; font-weight: 200;" fill="rgb(50, 49, 63)" stroke="none" stroke-width="1px">5k</text><text x="918.0241071428571" y="0" dx="0em" dy="0.95em" style="text-anchor: middle; visibility: inherit; font-family: Roboto, sans-serif; font-size: 12px; font-weight: 200;" fill="rgb(50, 49, 63)" stroke="none" stroke-width="1px">5.5k</text><text x="994.5261160714286" y="0" dx="0em" dy="0.95em" style="text-anchor: middle; visibility: inherit; font-family: Roboto, sans-serif; font-size: 12px; font-weight: 200;" fill="rgb(50, 49, 63)" stroke="none" stroke-width="1px">6k</text><text x="1071.028125" y="0" dx="0em" dy="0.95em" style="text-anchor: middle; visibility: hidden; font-family: Roboto, sans-serif; font-size: 12px; font-weight: 200;" fill="rgb(50, 49, 63)" stroke="none" stroke-width="1px">6.5k</text></g><line x1="0" y1="0" x2="1071.028125" y2="0" fill="rgb(0, 0, 0)" stroke="rgb(204, 204, 204)" stroke-width="1px"></line></g></g></g></g></svg>